<?xml version="1.0" encoding="utf-8"?>
<!-- Generator: Adobe Illustrator 16.0.0, SVG Export Plug-In . SVG Version: 6.00 Build 0)  -->
<!DOCTYPE svg PUBLIC "-//W3C//DTD SVG 1.1//EN" "http://www.w3.org/Graphics/SVG/1.1/DTD/svg11.dtd">
<svg version="1.1" id="Layer_3" xmlns="http://www.w3.org/2000/svg" xmlns:xlink="http://www.w3.org/1999/xlink" x="0px" y="0px"
	 width="481.5px" height="175.5px" viewBox="0 0 481.5 175.5" enable-background="new 0 0 481.5 175.5" xml:space="preserve">
<g>
	<path d="M7.192,23.507l-0.35,0.525C6.53,23.604,6.083,23.177,5.5,22.749c-0.583-0.428-1.089-0.759-1.517-0.992
		c1.322-1.789,2.469-3.733,3.441-5.833c0.972-2.1,1.809-4.19,2.508-6.271c0.7-2.08,1.244-4.015,1.634-5.804L15.3,4.374
		c-0.389,1.517-0.855,3.091-1.4,4.725h5.483l0.7-0.233l2.333,1.575c-0.506,1.323-1.089,2.693-1.75,4.112
		c-0.662,1.42-1.322,2.752-1.983,3.996h6.242v22.4H7.192V23.507z M6.842,57.107L3.983,55.59c1.127-1.361,1.934-3.14,2.421-5.337
		c0.486-2.197,0.807-4.423,0.962-6.679l2.917,0.7c-0.195,2.373-0.525,4.735-0.992,7.087C8.825,53.714,8.008,55.629,6.842,57.107z
		 M17.75,12.424h-4.958c-0.389,1.012-0.808,2.033-1.254,3.063c-0.448,1.031-0.924,2.052-1.429,3.063h5.133
		C16.175,16.761,17.011,14.719,17.75,12.424z M10.517,27.999h3.967v-6.067h-3.967V27.999z M14.483,31.266h-3.967v6.242h3.967V31.266
		z M12.15,44.157l2.684-0.292c0.271,1.711,0.427,3.549,0.466,5.512c0.039,1.964,0,3.665-0.117,5.104l-2.917,0.292
		c0.155-1.4,0.223-3.082,0.204-5.046C12.451,47.765,12.344,45.907,12.15,44.157z M16.817,43.982l2.566-0.466
		c0.544,1.517,0.992,3.17,1.342,4.958c0.35,1.79,0.544,3.306,0.583,4.55l-2.683,0.583c-0.039-1.321-0.224-2.877-0.554-4.667
		C17.74,47.152,17.322,45.499,16.817,43.982z M21.483,27.999v-6.067H17.4v6.067H21.483z M21.483,37.507v-6.242H17.4v6.242H21.483z
		 M21.658,43.457l2.45-0.816c0.661,1.245,1.273,2.616,1.837,4.112c0.563,1.498,0.962,2.791,1.196,3.879l-2.683,0.875
		c-0.195-1.05-0.554-2.333-1.079-3.85C22.854,46.141,22.28,44.741,21.658,43.457z M30.117,43.924l3.383,0.7
		c-0.583,2.256-1.391,4.472-2.421,6.65c-1.031,2.177-2.129,4.025-3.296,5.542c-0.312-0.272-0.768-0.612-1.371-1.021
		c-0.604-0.408-1.138-0.71-1.604-0.904c1.205-1.439,2.265-3.121,3.179-5.046C28.901,47.919,29.611,45.946,30.117,43.924z
		 M40.675,6.065v36.4H27.958v-36.4H40.675z M37.233,17.149V9.974h-5.95v7.175H37.233z M37.233,27.882V20.59h-5.95v7.292H37.233z
		 M37.233,38.616v-7.35h-5.95v7.35H37.233z M35.309,44.974l3.033-1.167c0.972,1.556,1.896,3.248,2.771,5.075
		c0.875,1.828,1.507,3.403,1.896,4.725l-3.267,1.342c-0.35-1.322-0.954-2.926-1.808-4.813C37.078,48.25,36.203,46.53,35.309,44.974z
		 M47.733,10.032v32.783h-3.5V10.032H47.733z M52.05,4.374h3.617v48.008c0,1.088-0.126,1.944-0.379,2.566
		c-0.253,0.622-0.71,1.088-1.371,1.4c-0.662,0.272-1.526,0.457-2.596,0.554c-1.07,0.097-2.402,0.146-3.996,0.146
		c-0.04-0.506-0.175-1.128-0.409-1.867c-0.233-0.739-0.466-1.362-0.7-1.867c1.127,0.039,2.148,0.059,3.063,0.059
		c0.913,0,1.526,0,1.837,0c0.622,0,0.933-0.312,0.933-0.934V4.374z"/>
	<path d="M87.517,28.057l3.966,0.992c-0.895,2.683-2.12,5.231-3.675,7.642c-1.556,2.412-3.208,4.454-4.958,6.125
		c-0.35-0.311-0.875-0.748-1.575-1.313c-0.7-0.563-1.304-0.981-1.809-1.254c0.311-0.272,0.622-0.554,0.934-0.846
		c0.311-0.292,0.602-0.592,0.875-0.904c-2.956,1.478-5.931,2.956-8.925,4.433c-2.995,1.479-5.697,2.781-8.108,3.908l-1.75-4.2
		c1.05-0.428,2.217-0.923,3.5-1.488c1.284-0.563,2.625-1.156,4.025-1.779V21.699H63.6v-4.025h6.417V4.549h3.967v13.125h6.008v4.025
		h-6.008v15.867L80.4,34.59l1.05,3.792c1.322-1.438,2.498-3.042,3.529-4.813C86.009,31.8,86.855,29.963,87.517,28.057z
		 M100.467,21.641h15.75v3.792h-15.808v14.233c0,1.089-0.117,1.935-0.35,2.538c-0.233,0.603-0.739,1.06-1.517,1.371
		c-0.739,0.312-1.712,0.496-2.917,0.554c-1.206,0.059-2.703,0.087-4.492,0.087c-0.039-0.583-0.146-1.225-0.321-1.925
		c-0.175-0.7-0.399-1.342-0.67-1.925c1.283,0.039,2.42,0.058,3.412,0.058s1.663-0.019,2.013-0.058c0.583,0,0.875-0.272,0.875-0.817
		V25.432H80.4v-3.792h5.542V9.391h3.908v12.25h6.592V3.907h4.025v7.175h12.309v3.675h-12.309V21.641z M108.867,29.457l4.025,1.05
		c-1.284,4.939-3.17,9.168-5.659,12.688c-2.489,3.52-5.727,6.417-9.712,8.691c-3.987,2.275-8.896,4.054-14.729,5.337
		c-0.195-0.583-0.496-1.225-0.904-1.925s-0.827-1.264-1.254-1.692c5.483-1.05,10.101-2.596,13.854-4.637
		c3.752-2.042,6.796-4.676,9.129-7.904C105.95,37.838,107.7,33.969,108.867,29.457z"/>
	<path d="M143.634,46.899h-9.275v10.325h-3.675V46.899h-9.566v-3.733h9.566V38.44h-7.7V18.315h7.642v-4.258h-8.75v-3.733h8.75V3.907
		h3.733v6.417h8.808v3.733h-8.808v4.258h8.05V38.44h-8.05v4.725h9.275V46.899z M126.192,21.582v5.192h4.783v-5.192H126.192z
		 M126.192,29.866v5.308h4.783v-5.308H126.192z M139.025,26.774v-5.192h-4.958v5.192H139.025z M139.025,35.174v-5.308h-4.958v5.308
		H139.025z M163.642,50.574h10.792v4.142h-31.675v-4.142h16.917c0.505-1.905,1.021-4.063,1.546-6.475
		c0.525-2.411,1.03-4.919,1.517-7.525c0.486-2.605,0.934-5.182,1.342-7.729c0.408-2.547,0.748-4.929,1.021-7.146l4.375,0.875
		c-0.506,2.956-1.08,6.116-1.721,9.479s-1.313,6.65-2.012,9.858C165.042,45.12,164.342,48.007,163.642,50.574z M173.325,14.407
		v4.083h-29.05v-4.083H173.325z M155.184,46.782l-4.083,1.05c-0.156-2.021-0.438-4.452-0.846-7.292
		c-0.408-2.838-0.875-5.804-1.4-8.896s-1.079-5.979-1.663-8.663l3.675-0.7c0.622,2.683,1.225,5.552,1.808,8.604
		c0.583,3.054,1.098,5.97,1.546,8.75C154.668,42.417,154.989,44.799,155.184,46.782z M161.192,12.599l-4.142,1.167
		c-0.233-1.244-0.642-2.692-1.225-4.346c-0.583-1.652-1.187-3.198-1.808-4.637l3.967-1.05c0.661,1.439,1.292,2.966,1.896,4.58
		C160.482,9.925,160.919,11.354,161.192,12.599z"/>
	<path d="M227.517,9.624l2.392,1.225c-0.816,2.8-1.837,5.435-3.063,7.904c-1.225,2.47-2.616,4.754-4.171,6.854
		c1.478,1.712,3.072,3.229,4.784,4.55c1.71,1.322,3.538,2.392,5.483,3.208c-0.389,0.389-0.817,0.875-1.284,1.458
		c-0.466,0.583-0.816,1.147-1.05,1.692c-3.772-1.905-7.117-4.647-10.033-8.225c-1.284,1.517-2.645,2.897-4.083,4.142
		c-1.439,1.245-2.897,2.373-4.375,3.383h17.15v20.883h-3.792v-2.566h-9.742v2.683h-3.675v-21c-0.39,0.272-0.75,0.525-1.08,0.758
		c-0.331,0.233-0.691,0.448-1.079,0.642c-0.156-0.427-0.408-0.933-0.758-1.517c-0.35-0.583-0.681-1.069-0.992-1.458l-0.233,0.35
		c-0.389-0.777-0.933-1.788-1.633-3.033c-0.7-1.244-1.4-2.469-2.1-3.675v29.108h-3.617V29.166c-0.779,3.15-1.683,6.154-2.713,9.013
		c-1.031,2.858-2.11,5.202-3.237,7.029c-0.272-0.427-0.681-0.913-1.225-1.458c-0.545-0.544-1.031-0.992-1.458-1.342
		c0.389-0.505,0.738-1.05,1.05-1.633h-8.05v5.483h-3.383V9.565h11.842v30.508c0.894-1.633,1.759-3.538,2.596-5.717
		c0.836-2.177,1.604-4.471,2.304-6.883c0.7-2.411,1.284-4.802,1.75-7.175h-5.658v-3.675h6.184V4.082h3.617v12.542h5.366v2.275
		c1.867-2.294,3.374-4.803,4.521-7.525c1.146-2.722,1.993-5.211,2.538-7.467l3.617,0.467c-0.195,0.855-0.428,1.75-0.7,2.683
		c-0.272,0.933-0.583,1.848-0.933,2.742h8.283L227.517,9.624z M190.008,36.749v-23.1h-5.075v23.1H190.008z M210.075,31.557
		l-1.05,1.4c3.461-2.021,6.553-4.627,9.275-7.816c-0.7-1.088-1.371-2.217-2.012-3.383c-0.642-1.167-1.235-2.372-1.779-3.617
		c-0.856,1.439-1.925,2.858-3.208,4.258c-0.195-0.311-0.466-0.661-0.816-1.05c-0.35-0.388-0.681-0.738-0.992-1.05h-5.308v2.683
		c0.388,0.506,0.875,1.167,1.458,1.983c0.583,0.817,1.176,1.673,1.779,2.567c0.603,0.895,1.146,1.702,1.633,2.421
		C209.54,30.673,209.88,31.207,210.075,31.557z M225.475,39.607h-9.742v10.792h9.742V39.607z M225.125,13.357h-7.992
		c-0.078,0.233-0.166,0.467-0.262,0.7c-0.098,0.233-0.205,0.448-0.321,0.642c0.467,1.362,1.03,2.693,1.692,3.996
		c0.661,1.303,1.38,2.557,2.158,3.762c0.972-1.361,1.857-2.8,2.654-4.316C223.851,16.624,224.542,15.03,225.125,13.357z"/>
	<path d="M257.617,7.057H297.4c-0.039,4.2-0.039,8.458,0,12.775c0.037,4.317,0.116,8.429,0.232,12.337
		c0.117,3.909,0.301,7.399,0.555,10.471c0.252,3.072,0.603,5.493,1.05,7.262c0.446,1.77,1.021,2.654,1.722,2.654
		c0.388,0,0.67-0.855,0.846-2.566c0.174-1.711,0.281-3.85,0.32-6.417c0.389,0.583,0.826,1.158,1.313,1.721
		c0.486,0.564,0.924,1.021,1.313,1.371c-0.195,3.733-0.574,6.407-1.138,8.021c-0.563,1.613-1.585,2.42-3.063,2.42
		c-1.438,0-2.606-0.797-3.5-2.392c-0.896-1.595-1.595-3.821-2.101-6.679c-0.506-2.858-0.875-6.221-1.107-10.091
		c-0.233-3.869-0.379-8.088-0.438-12.659c-0.059-4.569-0.107-9.323-0.146-14.262h-31.5V22.34c0,2.528-0.087,5.29-0.262,8.284
		c-0.176,2.995-0.525,6.047-1.051,9.158c-0.524,3.112-1.293,6.154-2.304,9.129c-1.012,2.975-2.354,5.707-4.024,8.196
		c-0.39-0.35-0.934-0.787-1.634-1.313c-0.7-0.525-1.323-0.885-1.866-1.079c1.594-2.372,2.857-4.938,3.791-7.7
		c0.934-2.761,1.633-5.58,2.1-8.458c0.467-2.877,0.768-5.697,0.904-8.458c0.137-2.761,0.205-5.347,0.205-7.758V7.057z
		 M279.959,31.907v16.8h13.707v4.083h-33.6v-4.083h6.242V22.282h3.85v26.425h5.834V13.532h3.967V27.94h10.324v3.967H279.959z"/>
	<path d="M361.566,37.741h-23.741v2.1c2.217,0.739,4.55,1.595,7,2.567c2.45,0.973,4.792,1.964,7.029,2.975
		c2.235,1.012,4.093,1.964,5.571,2.858l-2.101,3.558c-1.283-0.817-2.888-1.701-4.813-2.654c-1.925-0.952-3.987-1.905-6.184-2.858
		c-2.197-0.952-4.366-1.837-6.504-2.654v13.475h-4.2V37.741H310.35v-3.792h51.217V37.741z M315.309,17.032v9.1H311.4V13.649h22.225
		V9.682h-18.9V6.24h42.351v3.442h-19.25v3.967h22.634v12.483h-4.025v-9.1h-18.608v15.283h-4.2V17.032H315.309z M316.883,30.391
		v-3.034h13.884v3.034H316.883z M318.108,20.649h12.601v3.091h-12.601V20.649z M340.742,20.649h12.891v3.091h-12.891V20.649z
		 M340.742,30.391v-3.034h14.35v3.034H340.742z"/>
	<path d="M385.018,41.357V15.34h3.324v33.192h-3.324v-3.5h-12.076v5.775h-3.383V15.34h3.383v26.017h4.143V4.49h3.675v36.867H385.018
		z M405.492,21.874h15.4v3.558h-31.209v-3.558h11.666V3.965h4.143v6.825h12.309v3.441h-12.309V21.874z M389.684,34.124v-3.559
		h31.209v3.559h-15.4v4.492l0.699-0.875c1.439,0.739,2.965,1.585,4.58,2.537c1.613,0.954,3.158,1.916,4.637,2.888
		c1.479,0.973,2.684,1.848,3.617,2.625l-2.275,3.092c-0.816-0.7-1.838-1.488-3.063-2.363s-2.547-1.769-3.967-2.683
		c-1.42-0.914-2.828-1.759-4.229-2.538v15.75h-4.143V34.124H389.684z"/>
	<path d="M443.233,28.815l-1.983,3.5c-0.389-0.622-1.001-1.438-1.837-2.45c-0.837-1.011-1.644-1.963-2.421-2.858v30.1h-3.733V29.866
		c-0.739,3.111-1.595,6.086-2.566,8.925c-0.973,2.839-1.965,5.231-2.976,7.175c-0.233-0.583-0.563-1.225-0.991-1.925
		c-0.429-0.7-0.798-1.283-1.108-1.75c0.972-1.672,1.915-3.752,2.829-6.242c0.913-2.488,1.74-5.124,2.479-7.904
		c0.738-2.78,1.321-5.473,1.75-8.079h-6.184v-3.85h6.767V3.849h3.733v12.367h4.783v3.85h-4.783v3.092
		c0.544,0.428,1.254,1.031,2.129,1.808c0.875,0.778,1.711,1.537,2.509,2.275C442.426,27.979,442.961,28.505,443.233,28.815z
		 M453.5,14.115l2.101,1.4c-0.584,2.178-1.274,4.327-2.071,6.446c-0.797,2.12-1.662,4.171-2.596,6.154
		c0.544,0.7,1.226,1.575,2.042,2.625c0.816,1.05,1.594,2.062,2.333,3.033c0.738,0.973,1.244,1.672,1.517,2.1l-2.333,3.267
		c-0.39-0.778-0.973-1.75-1.75-2.917c-0.778-1.167-1.556-2.313-2.333-3.441v24.325h-3.617v-21.7
		c-0.739,1.167-1.526,2.266-2.362,3.296c-0.837,1.031-1.644,1.993-2.421,2.887c-0.195-0.544-0.506-1.234-0.934-2.071
		c-0.428-0.835-0.797-1.448-1.108-1.837c1.517-1.438,2.984-3.208,4.404-5.308c1.419-2.1,2.731-4.375,3.938-6.825
		c1.205-2.45,2.217-4.919,3.033-7.408h-8.575v-3.85h10.092L453.5,14.115z M452.45,11.724l-3.208,1.809
		c-0.312-1.05-0.856-2.294-1.634-3.733c-0.778-1.438-1.595-2.742-2.449-3.908l3.033-1.633c0.894,1.167,1.729,2.431,2.508,3.792
		C451.478,9.411,452.062,10.636,452.45,11.724z M468.726,13.766h8.283v29.4h-3.559v-1.809h-4.666v15.75h-3.733v-15.75H460.5v2.567
		h-3.441V13.766h7.934V3.849h3.733V13.766z M465.459,17.207H460.5v8.458h4.959V17.207z M460.5,29.049v8.808h4.959v-8.808H460.5z
		 M473.45,25.666v-8.458h-5.191v8.458H473.45z M468.259,37.857h5.191v-8.808h-5.191V37.857z"/>
</g>
<g>
	<path d="M26.267,110.299H18.45c-0.623,4.006-1.818,7.486-3.588,10.441c-1.77,2.956-4.56,5.348-8.371,7.176
		c-0.272-0.467-0.652-1.021-1.138-1.663c-0.486-0.642-0.943-1.138-1.371-1.487c3.344-1.517,5.794-3.48,7.35-5.892
		c1.555-2.411,2.625-5.27,3.208-8.575H5.967v-3.85h9.1c0.077-0.895,0.155-1.809,0.233-2.742c0.078-0.934,0.136-1.886,0.175-2.858
		h3.908c-0.039,0.973-0.098,1.925-0.175,2.858c-0.079,0.934-0.156,1.848-0.233,2.742h11.492c0,0.855-0.02,1.439-0.059,1.75
		c-0.195,3.695-0.408,6.679-0.642,8.953c-0.233,2.275-0.506,4.025-0.816,5.25c-0.312,1.226-0.7,2.092-1.167,2.597
		c-0.739,0.896-1.828,1.399-3.267,1.517c-0.623,0.039-1.449,0.059-2.479,0.059c-1.031,0-2.11-0.039-3.238-0.117
		c-0.039-0.544-0.146-1.146-0.321-1.809c-0.175-0.66-0.418-1.244-0.729-1.75c1.127,0.117,2.148,0.186,3.063,0.205
		c0.913,0.02,1.565,0.029,1.954,0.029c0.738,0,1.283-0.195,1.633-0.584c0.388-0.428,0.729-1.555,1.021-3.383
		S25.994,114.383,26.267,110.299z M20.083,148.273h27.941c0.972,0,1.74-0.164,2.304-0.496c0.563-0.329,0.992-1.039,1.283-2.129
		c0.292-1.088,0.476-2.741,0.554-4.958c1.244,0.661,2.625,1.147,4.142,1.458c-0.233,2.956-0.642,5.163-1.225,6.621
		c-0.583,1.459-1.468,2.43-2.654,2.917c-1.187,0.485-2.771,0.729-4.754,0.729H20.55c-3.461,0-5.999-0.517-7.612-1.547
		c-1.614-1.03-2.421-2.439-2.421-4.229c0-0.545,0.097-1.117,0.292-1.721c0.194-0.603,0.642-1.273,1.342-2.013
		c0.7-0.738,1.817-1.575,3.354-2.509c1.536-0.934,3.636-2.002,6.3-3.208c2.663-1.205,6.057-2.586,10.179-4.142h-21.7v-3.675H42.6
		l0.933-0.175l3.208,2.333c-0.233,0.233-0.623,0.467-1.167,0.7c-5.679,1.945-10.394,3.627-14.146,5.045
		c-3.753,1.421-6.737,2.625-8.954,3.617s-3.87,1.818-4.958,2.479c-1.089,0.661-1.799,1.216-2.129,1.662
		c-0.331,0.448-0.496,0.847-0.496,1.196c0,0.738,0.476,1.264,1.429,1.574C17.273,148.119,18.527,148.273,20.083,148.273z
		 M55.317,105.34v20.125H34.783V105.34H55.317z M51.059,121.732v-12.658H38.867v12.658H51.059z"/>
	<path d="M81.8,107.907l2.566,1.108c-1.05,3.383-2.538,6.368-4.462,8.954c-1.925,2.587-4.142,4.783-6.65,6.592
		c-2.508,1.808-5.144,3.257-7.904,4.346c-0.272-0.505-0.642-1.079-1.108-1.721c-0.466-0.642-0.914-1.138-1.341-1.487
		c3.267-1.128,6.367-2.888,9.304-5.279c2.936-2.393,5.221-5.26,6.854-8.604H65.233v-3.733h15.75L81.8,107.907z M69.842,154.107
		v-23.684h39.375v23.45H104.9v-2.509H74.042v2.742H69.842z M87.458,133.749H74.042v5.425h13.417V133.749z M74.042,142.383v5.658
		h13.417v-5.658H74.042z M108.809,104.699l3.5,2.625c-1.867,1.556-3.918,3.141-6.154,4.754c-2.237,1.614-4.346,3.023-6.329,4.229
		c4.277,4.201,9.663,7.117,16.158,8.75c-0.428,0.429-0.904,1.002-1.429,1.721c-0.525,0.721-0.924,1.371-1.196,1.955
		c-4.745-1.438-8.896-3.578-12.454-6.417c-3.558-2.839-6.504-6.319-8.837-10.441v11.725c0,1.128-0.146,1.983-0.438,2.567
		c-0.292,0.583-0.866,1.049-1.721,1.399c-0.739,0.312-1.77,0.506-3.092,0.583c-1.323,0.078-2.956,0.117-4.9,0.117
		c-0.117-0.584-0.312-1.234-0.583-1.954c-0.272-0.72-0.545-1.351-0.817-1.896c1.478,0.039,2.8,0.068,3.967,0.087
		c1.167,0.021,1.925,0.011,2.275-0.029c0.428-0.038,0.709-0.116,0.846-0.233c0.136-0.116,0.204-0.35,0.204-0.699v-22.634h4.258
		v3.558c1.322,3.384,3.111,6.476,5.367,9.275c1.283-0.854,2.625-1.798,4.025-2.829c1.4-1.03,2.742-2.09,4.025-3.179
		C106.767,106.645,107.875,105.633,108.809,104.699z M104.9,139.174v-5.425H91.542v5.425H104.9z M91.542,148.041H104.9v-5.658
		H91.542V148.041z"/>
	<path d="M173.325,141.449h-20.183c2.45,2.256,5.542,4.133,9.275,5.629c3.733,1.498,7.817,2.576,12.25,3.237
		c-0.467,0.428-0.953,1.001-1.458,1.721c-0.506,0.72-0.914,1.351-1.225,1.896c-5.017-0.933-9.577-2.44-13.679-4.521
		c-4.104-2.079-7.458-4.733-10.063-7.962h-0.409c-0.933,1.556-2.343,3.092-4.229,4.607c-1.887,1.518-4.414,2.957-7.583,4.317
		c-3.17,1.36-7.146,2.604-11.929,3.733c-0.272-0.467-0.67-1.031-1.196-1.691c-0.525-0.662-1.021-1.188-1.487-1.576
		c6.144-1.283,10.879-2.741,14.204-4.375c3.325-1.633,5.726-3.305,7.204-5.016H122.4v-3.851h22.575
		c0.271-0.738,0.446-1.478,0.525-2.216c0.077-0.738,0.117-1.459,0.117-2.159v-0.524h-18.958v-3.792h18.958v-3.851h0.466
		c-0.272-0.467-0.632-0.962-1.079-1.486c-0.447-0.525-0.846-0.924-1.196-1.196c2.994-1.284,5.211-2.946,6.65-4.987
		c1.438-2.042,2.45-4.501,3.034-7.379h-9.042v-3.734h9.567c0.117-0.934,0.204-1.914,0.262-2.945c0.059-1.03,0.107-2.09,0.146-3.18
		h4.258c-0.039,1.09-0.098,2.149-0.175,3.18c-0.079,1.031-0.175,2.012-0.292,2.945h14c-0.039,0.896-0.078,1.498-0.116,1.809
		c-0.195,3.307-0.399,6-0.613,8.079c-0.214,2.081-0.477,3.685-0.788,4.813c-0.312,1.128-0.7,1.945-1.167,2.45
		c-0.506,0.545-1.041,0.924-1.604,1.138c-0.564,0.214-1.254,0.341-2.071,0.379c-0.739,0.079-1.779,0.107-3.121,0.087
		c-1.342-0.019-2.771-0.048-4.288-0.087c-0.078-1.36-0.466-2.625-1.167-3.792c1.438,0.117,2.771,0.195,3.996,0.234
		c1.225,0.039,2.09,0.058,2.596,0.058c0.544,0,0.972-0.029,1.283-0.087c0.311-0.059,0.563-0.224,0.758-0.496
		c0.428-0.428,0.788-1.459,1.079-3.092c0.292-1.633,0.554-4.219,0.788-7.758h-10.092c-0.623,3.461-1.731,6.436-3.325,8.924
		c-1.595,2.49-4.064,4.531-7.409,6.125h2.975v3.851H169.3v3.792h-19.367v0.583c0,0.7-0.039,1.41-0.117,2.129
		c-0.078,0.72-0.214,1.449-0.408,2.188h23.917V141.449z M122.517,124.357l-0.934-4.025c1.361-0.193,2.877-0.418,4.55-0.671
		c1.671-0.253,3.46-0.515,5.367-0.787v-11.025h-8.225v-3.733h20.592v3.733H135.7v10.384l8.867-1.4l0.233,3.5
		c-3.928,0.739-7.866,1.459-11.813,2.158C129.041,123.19,125.55,123.813,122.517,124.357z"/>
	<path d="M209.842,126.107l3.267-1.342c1.322,1.595,3.052,3.072,5.191,4.434c2.139,1.361,4.521,2.527,7.146,3.5
		s5.298,1.73,8.021,2.274c-0.506,0.467-1.041,1.06-1.604,1.779c-0.564,0.72-1.001,1.371-1.313,1.954
		c-1.439-0.389-2.897-0.846-4.375-1.371c-1.478-0.524-2.897-1.137-4.258-1.837l-0.117,0.991c-0.506,4.939-1.06,8.586-1.662,10.938
		c-0.604,2.353-1.333,3.918-2.188,4.696c-0.545,0.544-1.128,0.923-1.75,1.138c-0.623,0.213-1.381,0.34-2.275,0.379
		c-0.739,0.038-1.799,0.049-3.179,0.029c-1.381-0.021-2.869-0.049-4.463-0.088c-0.039-0.583-0.166-1.245-0.379-1.983
		c-0.214-0.739-0.477-1.361-0.788-1.866c1.517,0.154,2.946,0.252,4.288,0.291s2.304,0.059,2.887,0.059
		c0.544,0,0.972-0.029,1.284-0.088c0.311-0.058,0.603-0.224,0.875-0.495c0.583-0.505,1.117-1.624,1.604-3.354
		c0.486-1.73,0.923-4.424,1.313-8.079h-12.892c-0.895,3.229-2.295,5.892-4.2,7.991c-1.906,2.101-4.258,3.792-7.058,5.076
		c-2.8,1.283-6.028,2.313-9.684,3.091c-0.156-0.466-0.447-1.069-0.875-1.808c-0.428-0.74-0.836-1.304-1.225-1.692
		c4.978-0.739,9.061-2.071,12.25-3.995c3.188-1.926,5.328-4.813,6.417-8.663h-10.208v-3.033c-1.4,0.739-2.829,1.41-4.288,2.013
		c-1.458,0.604-2.887,1.157-4.287,1.662c-0.195-0.428-0.525-1.011-0.992-1.75c-0.467-0.738-0.856-1.321-1.167-1.75
		c2.411-0.699,4.832-1.564,7.263-2.596c2.43-1.029,4.686-2.207,6.767-3.529c2.08-1.321,3.782-2.742,5.104-4.258l3.442,1.458
		c-1.323,1.595-2.946,3.092-4.871,4.491c-1.925,1.4-3.958,2.664-6.096,3.792h29.342c-2.062-1.128-3.977-2.411-5.746-3.851
		C212.592,129.277,211.086,127.74,209.842,126.107z M202.375,103.999v18.433h-18.608v-18.433H202.375z M198.175,118.874v-11.375
		h-10.441v11.375H198.175z M225.767,124.416h-10.325c-1.867,0-3.325-0.166-4.375-0.496c-1.05-0.33-1.79-0.914-2.217-1.75
		c-0.428-0.836-0.642-2.013-0.642-3.529v-16.508h4.258v8.107c2.683-0.895,5.337-1.875,7.962-2.945
		c2.625-1.069,4.832-2.071,6.621-3.004l2.917,3.266c-2.489,1.129-5.279,2.237-8.371,3.326c-3.091,1.088-6.135,2.1-9.129,3.033v4.666
		c0,0.895,0.194,1.459,0.583,1.691c0.389,0.234,1.303,0.351,2.742,0.351h9.625c0.817,0,1.419-0.155,1.809-0.467
		c0.388-0.312,0.671-0.952,0.846-1.925c0.175-0.972,0.301-2.43,0.379-4.375c0.505,0.312,1.127,0.612,1.867,0.904
		c0.738,0.291,1.4,0.516,1.983,0.67c-0.156,2.373-0.447,4.211-0.875,5.514c-0.428,1.303-1.079,2.207-1.954,2.712
		C228.596,124.163,227.361,124.416,225.767,124.416z"/>
	<path d="M275.934,103.474c-0.156,0.39-0.292,0.817-0.408,1.284c-0.117,0.466-0.215,0.914-0.292,1.341
		c-0.116,0.622-0.233,1.304-0.351,2.042c-0.116,0.739-0.232,1.537-0.35,2.392c3.694-0.194,7.291-0.485,10.791-0.875
		c3.5-0.388,6.729-0.934,9.684-1.634l0.059,4.316c-3.072,0.506-6.445,0.954-10.121,1.342c-3.674,0.39-7.301,0.682-10.879,0.875
		c-0.156,1.129-0.282,2.295-0.379,3.5c-0.098,1.207-0.186,2.432-0.263,3.676c3.422-0.972,6.688-1.459,9.8-1.459
		c0.389,0,0.759,0,1.109,0c0.35,0,0.699,0.021,1.049,0.059c0.078-0.233,0.137-0.428,0.176-0.583
		c0.154-0.428,0.291-0.972,0.408-1.634c0.117-0.66,0.193-1.244,0.232-1.75l4.609,1.167c-0.156,0.39-0.35,0.925-0.584,1.604
		c-0.232,0.681-0.428,1.254-0.583,1.721c0,0.039-0.011,0.068-0.029,0.088c-0.021,0.02-0.028,0.068-0.028,0.145
		c3.654,0.973,6.504,2.693,8.545,5.163c2.042,2.47,3.063,5.318,3.063,8.546c0,2.8-0.651,5.416-1.954,7.846
		c-1.304,2.432-3.354,4.512-6.153,6.242c-2.801,1.729-6.457,2.965-10.967,3.703l-2.509-3.908c3.538-0.388,6.581-1.215,9.129-2.479
		c2.547-1.264,4.511-2.888,5.892-4.871s2.07-4.238,2.07-6.767c0-2.217-0.719-4.238-2.158-6.066c-1.438-1.827-3.52-3.13-6.241-3.909
		c-1.673,4.123-3.637,7.788-5.892,10.996c-2.256,3.209-4.629,5.863-7.117,7.963c0.467,1.672,0.934,3.248,1.4,4.725l-4.199,1.283
		c-0.156-0.504-0.313-1.029-0.467-1.574c-0.156-0.545-0.313-1.108-0.467-1.691c-1.596,0.973-3.248,1.75-4.959,2.333
		s-3.363,0.875-4.958,0.875c-1.905,0-3.529-0.603-4.871-1.809c-1.341-1.205-2.013-3.052-2.013-5.542
		c0-2.527,0.661-4.996,1.984-7.408c1.32-2.41,3.081-4.617,5.278-6.621c2.196-2.002,4.638-3.625,7.321-4.87
		c0.077-1.478,0.175-2.937,0.291-4.375c0.117-1.438,0.234-2.839,0.351-4.2c-0.622,0.039-1.226,0.059-1.809,0.059s-1.167,0-1.75,0
		c-0.816,0-1.818-0.02-3.004-0.059c-1.187-0.038-2.354-0.097-3.5-0.175c-1.147-0.077-2.13-0.136-2.946-0.175l-0.116-4.375
		c0.7,0.116,1.642,0.232,2.829,0.35c1.186,0.117,2.41,0.215,3.675,0.291c1.263,0.079,2.304,0.117,3.121,0.117
		c0.661,0,1.321,0,1.983,0c0.66,0,1.321-0.02,1.982-0.059c0.078-0.854,0.166-1.662,0.264-2.42c0.096-0.759,0.164-1.449,0.203-2.071
		c0.039-0.544,0.078-1.06,0.117-1.546c0.038-0.486,0.038-0.904,0-1.254L275.934,103.474z M259.191,141.391
		c0,2.412,1.108,3.617,3.325,3.617c1.128,0,2.382-0.253,3.763-0.759c1.38-0.505,2.809-1.284,4.287-2.333
		c-0.389-2.062-0.72-4.238-0.992-6.533c-0.271-2.295-0.408-4.531-0.408-6.709c0-0.194,0-0.379,0-0.555c0-0.174,0-0.34,0-0.495
		c-1.866,1.05-3.558,2.353-5.074,3.908c-1.518,1.556-2.713,3.188-3.588,4.899C259.629,138.145,259.191,139.797,259.191,141.391z
		 M273.25,128.207c0,1.867,0.097,3.686,0.291,5.454c0.195,1.771,0.428,3.511,0.701,5.222c1.943-1.828,3.781-3.957,5.512-6.389
		c1.73-2.43,3.199-5.279,4.404-8.545c-0.156,0-0.312,0-0.467,0c-0.156,0-0.33,0-0.525,0c-1.905,0-3.685,0.185-5.337,0.554
		c-1.653,0.37-3.16,0.808-4.521,1.313c-0.039,0.39-0.059,0.778-0.059,1.167S273.25,127.779,273.25,128.207z"/>
	<path d="M319.742,108.957c-0.117,0.7-0.225,1.625-0.321,2.771c-0.098,1.146-0.146,2.109-0.146,2.887
		c-0.039,1.828-0.029,3.986,0.029,6.475c0.059,2.49,0.184,4.939,0.379,7.351c0.311,3.229,0.826,6.067,1.545,8.517
		c0.72,2.45,1.624,4.346,2.713,5.688c1.088,1.342,2.313,2.013,3.676,2.013c1.01,0,1.963-0.583,2.857-1.75s1.721-2.663,2.479-4.491
		s1.39-3.714,1.896-5.658l3.676,4.141c-1.167,3.307-2.344,5.932-3.529,7.875c-1.188,1.945-2.392,3.336-3.617,4.172
		c-1.225,0.835-2.499,1.254-3.82,1.254c-1.828,0-3.598-0.672-5.309-2.013c-1.711-1.342-3.189-3.52-4.434-6.534
		c-1.244-3.013-2.139-7.028-2.684-12.045c-0.155-1.711-0.281-3.559-0.379-5.542s-0.166-3.869-0.203-5.658
		c-0.04-1.788-0.059-3.247-0.059-4.375c0-0.661-0.021-1.517-0.059-2.567c-0.039-1.049-0.156-1.924-0.35-2.625L319.742,108.957z
		 M350.133,110.59c1.284,1.674,2.499,3.656,3.646,5.951c1.146,2.295,2.178,4.754,3.092,7.379c0.913,2.625,1.672,5.279,2.275,7.963
		c0.602,2.683,1.021,5.25,1.254,7.699l-4.667,1.926c-0.351-3.539-0.962-7.127-1.837-10.764c-0.875-3.635-2.014-7.077-3.413-10.324
		s-3.033-5.998-4.899-8.254L350.133,110.59z"/>
	<path d="M399.191,108.082v3.85h-30.857v-3.85h13.008v-6.416h4.783v6.416H399.191z M396.275,124.532
		c0,1.944-0.535,3.655-1.604,5.134c-1.07,1.479-2.539,2.615-4.404,3.412c-1.867,0.797-4.045,1.195-6.534,1.195
		c-2.45,0-4.618-0.398-6.504-1.195c-1.887-0.797-3.354-1.934-4.404-3.412s-1.575-3.189-1.575-5.134s0.525-3.646,1.575-5.104
		c1.05-1.458,2.518-2.586,4.404-3.383c1.886-0.797,4.054-1.196,6.504-1.196c2.489,0,4.667,0.399,6.534,1.196
		c1.865,0.797,3.334,1.925,4.404,3.383C395.74,120.887,396.275,122.588,396.275,124.532z M375.801,124.532
		c0,1.828,0.729,3.286,2.188,4.375c1.458,1.089,3.373,1.634,5.745,1.634s4.296-0.545,5.774-1.634s2.217-2.547,2.217-4.375
		c0-1.827-0.738-3.276-2.217-4.346s-3.402-1.604-5.774-1.604s-4.287,0.535-5.745,1.604
		C376.529,121.256,375.801,122.705,375.801,124.532z M380.992,137.832v11.084h30.1v3.908h-34.883v-14.992H380.992z M408.758,118.932
		h7.701v4.025h-7.701v17.967h-4.783v-39.258h4.783V118.932z"/>
	<path d="M439.441,110.999v6.649c0,2.101,0.351,4.211,1.051,6.33c0.699,2.119,1.662,4.141,2.887,6.066
		c1.226,1.925,2.654,3.646,4.288,5.162c1.633,1.517,3.402,2.723,5.308,3.617l-2.741,3.85c-2.917-1.478-5.532-3.646-7.846-6.504
		c-2.314-2.858-4.074-6.037-5.279-9.537c-0.778,2.527-1.838,4.92-3.179,7.174c-1.342,2.256-2.879,4.259-4.608,6.009
		c-1.731,1.75-3.588,3.131-5.571,4.142l-2.8-3.791c1.866-0.934,3.626-2.207,5.279-3.821c1.652-1.613,3.12-3.45,4.404-5.513
		c1.283-2.061,2.284-4.219,3.004-6.475c0.719-2.256,1.079-4.492,1.079-6.709v-6.649h-11.958v-3.967h28.291v3.967H439.441z
		 M470.708,122.782v4.024h-8.633v27.184h-4.783v-52.267h4.783v21.059H470.708z"/>
</g>
<g>
	<path fill="#999999" d="M18.16,68.912h-5.194c0.439,0.485,0.959,0.964,1.561,1.435c0.602,0.472,1.232,0.896,1.89,1.274
		s1.286,0.679,1.883,0.903c-0.121,0.093-0.224,0.205-0.308,0.336c-0.607-0.252-1.253-0.585-1.939-1.001
		c-0.686-0.416-1.342-0.88-1.967-1.393s-1.162-1.031-1.61-1.554h-0.294v3.066h-0.406v-3.066h-0.252
		c-0.429,0.569-0.957,1.125-1.582,1.666c-0.625,0.542-1.281,1.027-1.967,1.456c-0.686,0.43-1.337,0.779-1.953,1.05
		c-0.084-0.131-0.187-0.243-0.308-0.336c0.607-0.242,1.237-0.562,1.89-0.959c0.653-0.396,1.279-0.844,1.876-1.344
		c0.597-0.499,1.111-1.01,1.54-1.533H5.868v-0.406h5.908v-1.96C11,66.63,10.209,66.702,9.402,66.763
		c-0.807,0.061-1.584,0.114-2.331,0.161c-0.009-0.056-0.025-0.117-0.049-0.182c-0.023-0.065-0.044-0.126-0.063-0.182
		c0.812-0.046,1.654-0.107,2.527-0.182s1.727-0.159,2.562-0.252s1.61-0.198,2.324-0.315c0.714-0.116,1.318-0.245,1.813-0.385
		l0.406,0.322c-0.569,0.149-1.232,0.285-1.988,0.406c-0.756,0.122-1.563,0.233-2.422,0.336v2.016h5.978V68.912z M7.981,77.858
		v-5.432H16.2v5.39h-0.406v-0.532H8.388v0.574H7.981z M15.793,72.832H8.388v1.778h7.406V72.832z M8.388,76.878h7.406v-1.862H8.388
		V76.878z"/>
	<path fill="#999999" d="M22.275,70.676l-0.238,0.336c-0.168-0.168-0.385-0.345-0.651-0.532c-0.266-0.187-0.556-0.369-0.868-0.546
		c-0.313-0.177-0.619-0.331-0.917-0.462l0.252-0.308c0.299,0.131,0.602,0.283,0.91,0.455c0.308,0.173,0.595,0.353,0.861,0.539
		C21.891,70.345,22.107,70.517,22.275,70.676z M22.304,72.832l0.322,0.252c-0.206,0.485-0.439,1.001-0.7,1.547
		s-0.527,1.08-0.798,1.603c-0.271,0.522-0.527,0.989-0.77,1.4l-0.35-0.28c0.224-0.364,0.471-0.8,0.742-1.309
		c0.271-0.509,0.541-1.045,0.812-1.61C21.832,73.87,22.08,73.336,22.304,72.832z M22.919,67.064L22.667,67.4
		c-0.159-0.177-0.369-0.369-0.63-0.574c-0.262-0.205-0.544-0.406-0.847-0.602c-0.303-0.196-0.6-0.369-0.889-0.518l0.266-0.28
		c0.29,0.14,0.586,0.306,0.889,0.497s0.583,0.385,0.84,0.581C22.553,66.7,22.761,66.887,22.919,67.064z M32.412,70.172h-2.842
		c0.215,0.458,0.481,0.898,0.798,1.323c0.317,0.425,0.667,0.803,1.05,1.134c0.383,0.331,0.77,0.595,1.162,0.791
		c-0.112,0.093-0.21,0.201-0.294,0.322c-0.411-0.233-0.814-0.537-1.211-0.91c-0.397-0.373-0.761-0.789-1.092-1.246
		c-0.332-0.458-0.609-0.929-0.833-1.414h-3.192c-0.233,0.485-0.523,0.961-0.868,1.428c-0.345,0.467-0.714,0.894-1.106,1.281
		s-0.779,0.707-1.162,0.959c-0.037-0.056-0.086-0.114-0.147-0.175c-0.061-0.061-0.114-0.109-0.161-0.147
		c0.364-0.214,0.735-0.499,1.113-0.854c0.378-0.354,0.732-0.747,1.064-1.176c0.331-0.429,0.614-0.868,0.847-1.316H22.64v-0.42h2.688
		V67.54H23.27v-0.406h2.058v-1.876h0.406v1.876h3.514v-1.876h0.42v1.876h2.38v0.406h-2.38v2.212h2.744V70.172z M26.392,77.256h3.598
		c0.252,0,0.438-0.04,0.56-0.119c0.122-0.08,0.208-0.245,0.259-0.497s0.086-0.625,0.105-1.12c0.065,0.047,0.135,0.086,0.21,0.119
		s0.145,0.059,0.21,0.077c-0.028,0.513-0.077,0.913-0.147,1.197c-0.07,0.285-0.196,0.483-0.378,0.595s-0.455,0.168-0.819,0.168
		h-3.556c-0.598,0-1.003-0.061-1.218-0.182s-0.322-0.387-0.322-0.798v-4.774h5.166v2.842h-4.76v1.946
		c0,0.214,0.068,0.359,0.203,0.434S25.934,77.256,26.392,77.256z M29.653,72.328h-4.354v2.03h4.354V72.328z M25.733,67.54v2.212
		h3.514V67.54H25.733z"/>
	<path fill="#999999" d="M45.908,72.846v0.406h-5.698v3.934c0,0.177-0.03,0.308-0.091,0.392c-0.061,0.084-0.17,0.149-0.329,0.196
		c-0.149,0.037-0.387,0.061-0.714,0.07c-0.327,0.009-0.789,0.014-1.386,0.014c-0.019-0.056-0.044-0.119-0.077-0.189
		c-0.033-0.07-0.072-0.133-0.119-0.189c0.522,0.009,0.961,0.014,1.316,0.014c0.354,0,0.583-0.005,0.686-0.014
		c0.121-0.01,0.203-0.035,0.245-0.077s0.063-0.11,0.063-0.203v-3.948h-5.754v-0.406h5.754v-1.008
		c0.354-0.168,0.723-0.369,1.106-0.602c0.382-0.233,0.756-0.483,1.12-0.749c0.364-0.266,0.686-0.53,0.966-0.791h-6.734V69.29h7.154
		l0.084-0.028l0.308,0.21c-0.308,0.317-0.665,0.635-1.071,0.952c-0.406,0.317-0.828,0.614-1.267,0.889
		c-0.439,0.275-0.859,0.516-1.26,0.721v0.812H45.908z M34.722,67.26v2.128h-0.406v-2.534h5.796
		c-0.093-0.243-0.224-0.504-0.392-0.784c-0.168-0.28-0.341-0.537-0.518-0.77l0.35-0.154c0.215,0.261,0.416,0.551,0.602,0.868
		c0.187,0.317,0.327,0.598,0.42,0.84h5.124v2.534h-0.406V67.26H34.722z"/>
</g>
<g>
	<path fill="#999999" d="M251.119,66.308h8.567v11.284h-0.405v-0.798h-7.757v0.91h-0.405V66.308z M259.281,66.714h-7.757v4.592
		h7.757V66.714z M251.524,76.388h7.757v-4.676h-7.757V76.388z"/>
	<path fill="#999999" d="M275.367,68.842h-5.139c0.383,0.896,0.861,1.757,1.436,2.583c0.573,0.826,1.211,1.563,1.91,2.212
		c0.7,0.649,1.424,1.155,2.17,1.519c-0.131,0.103-0.232,0.21-0.308,0.322c-0.756-0.401-1.489-0.942-2.198-1.624
		c-0.709-0.682-1.355-1.454-1.939-2.317c-0.582-0.863-1.066-1.761-1.448-2.695h-0.322v5.726h3.654v0.406h-3.654v2.884h-0.405v-2.884
		h-3.612v-0.406h3.612v-5.726h-0.336c-0.393,0.924-0.878,1.813-1.457,2.667c-0.578,0.854-1.209,1.624-1.89,2.31
		s-1.377,1.244-2.086,1.673c-0.028-0.056-0.069-0.114-0.126-0.175s-0.111-0.11-0.168-0.147c0.7-0.383,1.381-0.903,2.044-1.561
		c0.663-0.658,1.276-1.398,1.841-2.219s1.039-1.67,1.422-2.548h-5.041v-0.406h5.797v-3.164h0.405v3.164h5.839V68.842z"/>
	<path fill="#999999" d="M279.679,70.676l-0.238,0.336c-0.261-0.243-0.62-0.508-1.078-0.798c-0.457-0.289-0.909-0.537-1.358-0.742
		l0.252-0.308c0.299,0.131,0.603,0.283,0.91,0.455c0.309,0.173,0.596,0.353,0.861,0.539
		C279.293,70.345,279.511,70.517,279.679,70.676z M277.761,77.634l-0.351-0.28c0.225-0.364,0.472-0.8,0.742-1.309
		c0.271-0.509,0.541-1.045,0.813-1.61c0.271-0.564,0.518-1.099,0.742-1.603l0.321,0.252c-0.205,0.485-0.438,1.001-0.7,1.547
		s-0.527,1.08-0.797,1.603C278.26,76.756,278.003,77.223,277.761,77.634z M277.705,65.706l0.266-0.28
		c0.289,0.14,0.586,0.306,0.889,0.497s0.584,0.385,0.84,0.581c0.257,0.196,0.465,0.383,0.623,0.56L280.07,67.4
		c-0.168-0.177-0.383-0.369-0.644-0.574c-0.262-0.205-0.542-0.406-0.841-0.602C278.287,66.028,277.994,65.855,277.705,65.706z
		 M289.492,75.156h-4.046c0.383,0.635,0.947,1.146,1.694,1.533c0.746,0.387,1.614,0.66,2.604,0.819
		c-0.111,0.103-0.205,0.224-0.279,0.364c-1.027-0.187-1.932-0.509-2.717-0.966c-0.783-0.457-1.367-1.041-1.75-1.75h-0.49
		c-0.279,0.532-0.734,1.031-1.364,1.498s-1.542,0.863-2.737,1.19c-0.027-0.047-0.063-0.105-0.104-0.175
		c-0.042-0.07-0.082-0.124-0.119-0.161c1.083-0.29,1.923-0.637,2.521-1.043c0.597-0.406,1.04-0.842,1.33-1.309h-3.697V74.75h3.906
		c0.094-0.215,0.166-0.429,0.217-0.644c0.052-0.215,0.092-0.425,0.119-0.63h-3.527v-0.42h3.556c0.009-0.103,0.015-0.203,0.015-0.301
		c0-0.098,0-0.194,0-0.287v-0.434h-3.332v-2.562h3.332v-0.854h-1.947v-1.722h-2.254V66.49h2.254v-1.316h0.406v1.316h3.431v-1.316
		h0.42v1.316h2.575v0.406h-2.575v1.722h-1.89v0.854h3.5v2.562h-3.5v0.434c0,0.093,0,0.189,0,0.287c0,0.098-0.006,0.198-0.015,0.301
		h3.752v0.42h-3.78c-0.037,0.43-0.135,0.854-0.293,1.274h4.787V75.156z M281.694,71.614h2.927v-1.736h-2.927V71.614z M283.08,66.896
		v1.302h3.431v-1.302H283.08z M288.135,69.878h-3.094v1.736h3.094V69.878z"/>
	<path fill="#999999" d="M303.24,72.846v0.406h-5.697v3.934c0,0.177-0.031,0.308-0.092,0.392s-0.17,0.149-0.328,0.196
		c-0.15,0.037-0.388,0.061-0.715,0.07c-0.326,0.009-0.789,0.014-1.386,0.014c-0.019-0.056-0.044-0.119-0.077-0.189
		c-0.033-0.07-0.072-0.133-0.119-0.189c0.523,0.009,0.961,0.014,1.316,0.014c0.354,0,0.583-0.005,0.686-0.014
		c0.121-0.01,0.203-0.035,0.246-0.077c0.041-0.042,0.063-0.11,0.063-0.203v-3.948h-5.754v-0.406h5.754v-1.008
		c0.354-0.168,0.723-0.369,1.105-0.602s0.756-0.483,1.12-0.749s0.687-0.53,0.966-0.791h-6.733V69.29h7.153l0.084-0.028l0.309,0.21
		c-0.309,0.317-0.665,0.635-1.071,0.952c-0.405,0.317-0.828,0.614-1.267,0.889c-0.439,0.275-0.859,0.516-1.26,0.721v0.812H303.24z
		 M292.055,67.26v2.128h-0.406v-2.534h5.796c-0.093-0.243-0.224-0.504-0.392-0.784c-0.168-0.28-0.341-0.537-0.518-0.77l0.35-0.154
		c0.215,0.261,0.415,0.551,0.602,0.868c0.188,0.317,0.326,0.598,0.42,0.84h5.125v2.534h-0.406V67.26H292.055z"/>
</g>
<g>
	<path fill="#999999" d="M8.766,169.502v1.582h2.576v0.406H8.766v2.674H8.359v-2.674H5.713v-0.406h2.646v-1.582H6.315v-4.299h2.044
		v-1.567H5.854v-0.405h2.506v-1.695h0.406v1.695h2.408v0.405H8.766v1.567h2.072v4.299H8.766z M6.722,165.609v1.526h3.71v-1.526
		H6.722z M6.722,167.542v1.554h3.71v-1.554H6.722z M18.229,164.77v0.406h-6.972v-0.406h2.296c0.037-0.224,0.072-0.469,0.105-0.734
		c0.032-0.267,0.063-0.539,0.091-0.819h-1.68v-0.406h1.722c0.019-0.214,0.04-0.425,0.063-0.63s0.04-0.396,0.049-0.574l0.406,0.043
		c-0.009,0.177-0.023,0.365-0.042,0.566c-0.019,0.201-0.038,0.398-0.056,0.595h2.842v1.96H18.229z M18.286,172.119v0.406h-2.87
		v1.639h-0.406v-1.639h-2.702c0.093-0.308,0.184-0.662,0.273-1.063c0.088-0.401,0.166-0.788,0.231-1.162h-1.036v-0.406h3.234v-1.12
		h-2.576v-2.716h5.068v2.716h-2.086v1.12h2.464v0.406h-2.464v1.819H18.286z M12.826,172.119h2.184V170.3h-1.792
		c-0.046,0.308-0.105,0.62-0.175,0.938C12.973,171.555,12.9,171.85,12.826,172.119z M12.839,166.464v1.903h4.256v-1.903H12.839z
		 M16.647,163.216h-2.478c-0.037,0.28-0.072,0.556-0.105,0.826s-0.063,0.513-0.091,0.728h2.674V163.216z"/>
	<path fill="#999999" d="M30.899,170.104l0.35,0.225c-0.411,0.289-0.88,0.578-1.407,0.867c-0.527,0.29-1.029,0.547-1.505,0.771
		c1.055,0.812,2.366,1.362,3.934,1.651c-0.103,0.104-0.196,0.229-0.28,0.379c-1.372-0.299-2.581-0.808-3.626-1.526
		c-1.045-0.719-1.83-1.628-2.352-2.729c-0.374,0.299-0.817,0.59-1.33,0.875c-0.514,0.284-1.05,0.548-1.61,0.791v1.987l3.878-0.854
		c0,0.131,0.009,0.244,0.028,0.337c-1.018,0.252-1.825,0.452-2.422,0.602c-0.598,0.149-1.048,0.264-1.351,0.343
		c-0.303,0.08-0.516,0.143-0.637,0.189c-0.121,0.047-0.21,0.088-0.266,0.126c-0.019-0.065-0.052-0.14-0.098-0.224
		c-0.047-0.084-0.093-0.154-0.14-0.211c0.093-0.047,0.21-0.133,0.35-0.258c0.14-0.127,0.21-0.324,0.21-0.596v-1.26
		c-0.467,0.195-0.931,0.371-1.393,0.525c-0.462,0.153-0.898,0.281-1.309,0.385c-0.037-0.057-0.082-0.121-0.133-0.196
		s-0.101-0.13-0.147-0.168c0.635-0.149,1.307-0.348,2.016-0.595c0.709-0.248,1.395-0.529,2.058-0.848
		c0.663-0.316,1.237-0.648,1.722-0.994h-5.572v-0.405h6.244c-0.075-0.159-0.166-0.331-0.273-0.519
		c-0.107-0.186-0.212-0.354-0.315-0.504l0.378-0.111c0.131,0.168,0.254,0.359,0.371,0.574s0.212,0.4,0.287,0.56h5.6v0.405h-5.726
		c0.187,0.393,0.415,0.756,0.686,1.092c0.271,0.337,0.574,0.649,0.91,0.938c0.327-0.158,0.665-0.331,1.015-0.518
		s0.688-0.376,1.015-0.567S30.666,170.271,30.899,170.104z M23.228,165.638v-0.979h-3.444v-0.406h3.444v-1.176h-2.03
		c-0.178,0.373-0.374,0.709-0.588,1.008c-0.037-0.028-0.098-0.061-0.182-0.098s-0.159-0.066-0.224-0.084
		c0.252-0.309,0.474-0.66,0.665-1.058c0.191-0.396,0.352-0.8,0.483-1.211l0.42,0.099c-0.056,0.158-0.114,0.314-0.175,0.469
		c-0.061,0.154-0.124,0.311-0.189,0.469h1.82v-1.092h0.406v1.092h2.646v0.406h-2.646v1.176h3.248v0.406h-3.248v0.979h2.73v1.849
		c0,0.121-0.016,0.217-0.049,0.287c-0.033,0.069-0.105,0.128-0.217,0.174c-0.112,0.038-0.271,0.062-0.476,0.07
		c-0.206,0.01-0.472,0.014-0.798,0.014c-0.01-0.064-0.028-0.127-0.056-0.188c-0.028-0.061-0.061-0.124-0.098-0.188
		c0.606,0.018,0.98,0.018,1.12,0c0.112-0.01,0.168-0.066,0.168-0.168v-1.442h-2.324v2.506h-0.406v-2.506h-2.142v2.1H20.68v-2.506
		H23.228z M28.66,162.32v4.549h-0.406v-4.549H28.66z M31.235,161.732v6.02c0,0.178-0.028,0.306-0.084,0.385
		c-0.056,0.08-0.154,0.143-0.294,0.189c-0.149,0.037-0.378,0.061-0.686,0.07c-0.308,0.009-0.709,0.014-1.204,0.014
		c-0.009-0.065-0.03-0.133-0.063-0.203s-0.072-0.138-0.119-0.203c0.457,0.01,0.844,0.014,1.162,0.014
		c0.317,0,0.527-0.004,0.63-0.014c0.103,0,0.172-0.019,0.21-0.057c0.037-0.037,0.056-0.102,0.056-0.195v-6.02H31.235z"/>
	<path fill="#999999" d="M36.346,167.01l-0.238,0.336c-0.261-0.242-0.621-0.508-1.078-0.798c-0.457-0.289-0.91-0.536-1.358-0.742
		l0.252-0.308c0.299,0.131,0.602,0.282,0.91,0.455c0.308,0.172,0.595,0.352,0.861,0.539C35.96,166.679,36.178,166.852,36.346,167.01
		z M34.428,173.968l-0.35-0.28c0.224-0.363,0.471-0.8,0.742-1.309c0.271-0.509,0.542-1.045,0.812-1.61
		c0.271-0.564,0.518-1.099,0.742-1.603l0.322,0.252c-0.205,0.485-0.438,1.001-0.7,1.547c-0.262,0.546-0.527,1.08-0.798,1.604
		C34.927,173.09,34.67,173.557,34.428,173.968z M34.372,162.039l0.266-0.279c0.289,0.141,0.585,0.306,0.889,0.497
		s0.583,0.385,0.84,0.581c0.256,0.195,0.464,0.383,0.623,0.561l-0.252,0.336c-0.168-0.178-0.383-0.369-0.644-0.574
		c-0.262-0.205-0.542-0.406-0.84-0.603S34.661,162.189,34.372,162.039z M46.16,171.49h-4.046c0.383,0.635,0.947,1.146,1.694,1.533
		c0.747,0.387,1.614,0.66,2.604,0.818c-0.112,0.103-0.206,0.225-0.28,0.363c-1.027-0.186-1.932-0.508-2.716-0.965
		s-1.367-1.041-1.75-1.75h-0.49c-0.28,0.531-0.735,1.031-1.365,1.498s-1.542,0.863-2.737,1.189
		c-0.028-0.047-0.063-0.105-0.105-0.175c-0.042-0.07-0.082-0.124-0.119-0.161c1.083-0.289,1.922-0.637,2.52-1.043
		c0.597-0.406,1.041-0.842,1.33-1.309h-3.696v-0.406h3.906c0.093-0.215,0.166-0.43,0.217-0.645s0.091-0.424,0.119-0.63h-3.528v-0.42
		h3.556c0.009-0.103,0.014-0.203,0.014-0.301c0-0.099,0-0.194,0-0.287v-0.435h-3.332v-2.562h3.332v-0.854h-1.946v-1.721h-2.254
		v-0.406h2.254v-1.316h0.406v1.316h3.43v-1.316h0.42v1.316h2.576v0.406h-2.576v1.721h-1.89v0.854h3.5v2.562h-3.5v0.435
		c0,0.093,0,0.188,0,0.287c0,0.098-0.005,0.198-0.014,0.301h3.752v0.42h-3.78c-0.038,0.43-0.135,0.854-0.294,1.274h4.788V171.49z
		 M38.361,167.947h2.926v-1.735h-2.926V167.947z M39.748,163.23v1.301h3.43v-1.301H39.748z M44.801,166.212h-3.094v1.735h3.094
		V166.212z"/>
	<path fill="#999999" d="M59.908,169.18v0.406h-5.698v3.934c0,0.178-0.03,0.309-0.091,0.393c-0.061,0.084-0.17,0.148-0.329,0.195
		c-0.149,0.037-0.387,0.061-0.714,0.07c-0.327,0.01-0.789,0.014-1.386,0.014c-0.019-0.056-0.044-0.119-0.077-0.188
		c-0.033-0.07-0.072-0.134-0.119-0.188c0.522,0.008,0.961,0.014,1.316,0.014c0.354,0,0.583-0.006,0.686-0.014
		c0.121-0.01,0.203-0.035,0.245-0.078c0.042-0.041,0.063-0.109,0.063-0.203v-3.947h-5.754v-0.406h5.754v-1.008
		c0.354-0.168,0.723-0.369,1.106-0.602c0.382-0.234,0.756-0.483,1.12-0.75c0.364-0.266,0.686-0.529,0.966-0.791h-6.734v-0.406h7.154
		l0.084-0.027l0.308,0.21c-0.308,0.317-0.665,0.635-1.071,0.952c-0.406,0.317-0.828,0.613-1.267,0.889
		c-0.439,0.275-0.859,0.516-1.26,0.721v0.813H59.908z M48.722,163.594v2.128h-0.406v-2.534h5.796
		c-0.093-0.242-0.224-0.504-0.392-0.783c-0.168-0.281-0.341-0.537-0.518-0.771l0.35-0.153c0.215,0.261,0.416,0.551,0.602,0.867
		c0.187,0.317,0.327,0.598,0.42,0.84h5.124v2.534h-0.406v-2.128H48.722z"/>
</g>
<g>
	<path fill="#999999" d="M251.119,162.642h8.567v11.284h-0.405v-0.798h-7.757v0.909h-0.405V162.642z M259.281,163.048h-7.757v4.592
		h7.757V163.048z M251.524,172.722h7.757v-4.676h-7.757V172.722z"/>
	<path fill="#999999" d="M275.367,165.176h-5.139c0.383,0.896,0.861,1.757,1.436,2.583c0.573,0.826,1.211,1.563,1.91,2.212
		c0.7,0.648,1.424,1.155,2.17,1.52c-0.131,0.103-0.232,0.209-0.308,0.321c-0.756-0.401-1.489-0.942-2.198-1.624
		s-1.355-1.453-1.939-2.316c-0.582-0.863-1.066-1.762-1.448-2.695h-0.322v5.727h3.654v0.405h-3.654v2.884h-0.405v-2.884h-3.612
		v-0.405h3.612v-5.727h-0.336c-0.393,0.924-0.878,1.813-1.457,2.667c-0.578,0.854-1.209,1.624-1.89,2.31
		c-0.681,0.687-1.377,1.244-2.086,1.674c-0.028-0.057-0.069-0.115-0.126-0.176s-0.111-0.109-0.168-0.146
		c0.7-0.383,1.381-0.903,2.044-1.561c0.663-0.658,1.276-1.398,1.841-2.22s1.039-1.671,1.422-2.548h-5.041v-0.406h5.797v-3.164h0.405
		v3.164h5.839V165.176z"/>
	<path fill="#999999" d="M279.595,161.689l0.405,0.084c-0.14,0.523-0.293,1.041-0.461,1.555s-0.351,1.018-0.547,1.512v9.352h-0.406
		v-8.386c-0.186,0.42-0.385,0.817-0.594,1.19c-0.211,0.373-0.423,0.723-0.638,1.05c-0.093-0.112-0.2-0.22-0.321-0.322
		c0.541-0.765,1.03-1.68,1.469-2.743C278.941,163.916,279.305,162.819,279.595,161.689z M284.229,171.252h-3.038v2.884h-0.405
		v-11.858h3.682v3.906h-3.276v1.946h2.912v0.405h-2.912v2.311h3.038V171.252z M284.061,162.684h-2.87v3.094h2.87V162.684z
		 M288.862,167.64l0.267,0.112c-0.178,0.84-0.428,1.592-0.75,2.254c-0.321,0.662-0.692,1.25-1.112,1.764
		c0.336,0.448,0.709,0.846,1.12,1.19c0.41,0.345,0.85,0.616,1.316,0.812c-0.122,0.104-0.229,0.225-0.322,0.364
		c-0.457-0.224-0.887-0.511-1.289-0.86c-0.4-0.351-0.77-0.744-1.105-1.184c-0.447,0.485-0.938,0.9-1.47,1.246
		s-1.083,0.635-1.651,0.867c-0.029-0.055-0.066-0.116-0.113-0.182c-0.047-0.064-0.093-0.117-0.14-0.154
		c0.579-0.215,1.132-0.494,1.659-0.84c0.527-0.345,1.02-0.77,1.477-1.273c-0.345-0.514-0.648-1.071-0.91-1.674
		c-0.261-0.602-0.48-1.229-0.657-1.883l0.364-0.111c0.158,0.606,0.361,1.197,0.608,1.771c0.247,0.573,0.534,1.098,0.861,1.574
		c0.364-0.447,0.684-0.949,0.959-1.505c0.274-0.556,0.497-1.173,0.665-1.854h-3.92v-0.406h4.06L288.862,167.64z M288.975,162.277
		v3.906h-3.809v-0.406h3.402v-3.094h-3.402v-0.406H288.975z"/>
	<path fill="#999999" d="M302.61,168.605v5.614h-0.405v-0.616h-6.763v0.588h-0.42v-4.914c-0.635,0.402-1.278,0.752-1.933,1.051
		c-0.652,0.299-1.287,0.545-1.903,0.742c-0.056-0.15-0.136-0.275-0.237-0.379c0.896-0.261,1.824-0.641,2.785-1.141
		c0.961-0.499,1.871-1.104,2.73-1.813c-0.215-0.271-0.486-0.564-0.813-0.883c-0.326-0.316-0.679-0.635-1.057-0.951
		c-0.379-0.318-0.754-0.607-1.127-0.869c-0.318,0.271-0.651,0.535-1.002,0.791c-0.35,0.258-0.716,0.498-1.098,0.722
		c-0.038-0.047-0.087-0.099-0.147-0.154c-0.062-0.056-0.114-0.103-0.161-0.14c0.766-0.439,1.458-0.926,2.079-1.463
		c0.62-0.537,1.157-1.086,1.61-1.645c0.452-0.561,0.813-1.088,1.084-1.582l0.477,0.084c-0.121,0.215-0.259,0.436-0.413,0.664
		c-0.153,0.229-0.324,0.46-0.511,0.693h4.787l0.099-0.028l0.238,0.154c-0.467,1.12-1.097,2.14-1.89,3.06
		c-0.794,0.919-1.662,1.724-2.604,2.414H302.61z M299.951,163.412h-4.887c-0.195,0.232-0.401,0.464-0.615,0.693
		c-0.215,0.229-0.444,0.454-0.687,0.678c0.382,0.252,0.763,0.533,1.141,0.84c0.378,0.309,0.735,0.619,1.071,0.932
		s0.615,0.609,0.84,0.889c0.653-0.568,1.25-1.191,1.792-1.869C299.148,164.898,299.596,164.178,299.951,163.412z M295.442,173.197
		h6.763v-4.186h-6.763V173.197z"/>
	<path fill="#999999" d="M370.258,169.502v1.582h2.576v0.406h-2.576v2.674h-0.406v-2.674h-2.646v-0.406h2.646v-1.582h-2.043v-4.299
		h2.043v-1.567h-2.506v-0.405h2.506v-1.695h0.406v1.695h2.408v0.405h-2.408v1.567h2.072v4.299H370.258z M368.215,165.609v1.526
		h3.709v-1.526H368.215z M368.215,167.542v1.554h3.709v-1.554H368.215z M379.723,164.77v0.406h-6.973v-0.406h2.297
		c0.037-0.224,0.071-0.469,0.104-0.734c0.032-0.267,0.063-0.539,0.091-0.819h-1.68v-0.406h1.722c0.019-0.214,0.04-0.425,0.063-0.63
		s0.039-0.396,0.049-0.574l0.406,0.043c-0.01,0.177-0.023,0.365-0.043,0.566c-0.019,0.201-0.037,0.398-0.056,0.595h2.843v1.96
		H379.723z M379.778,172.119v0.406h-2.87v1.639h-0.406v-1.639h-2.701c0.093-0.308,0.184-0.662,0.272-1.063s0.165-0.788,0.231-1.162
		h-1.037v-0.406h3.234v-1.12h-2.576v-2.716h5.068v2.716h-2.086v1.12h2.464v0.406h-2.464v1.819H379.778z M374.318,172.119h2.184
		V170.3h-1.792c-0.046,0.308-0.104,0.62-0.175,0.938C374.465,171.555,374.393,171.85,374.318,172.119z M374.332,166.464v1.903h4.256
		v-1.903H374.332z M378.141,163.216h-2.479c-0.037,0.28-0.072,0.556-0.105,0.826c-0.032,0.271-0.063,0.513-0.09,0.728h2.674V163.216
		z"/>
	<path fill="#999999" d="M381.794,162.264h11.41v11.971h-0.42v-0.729h-10.569v0.729h-0.421V162.264z M382.215,173.1h10.569v-10.43
		h-10.569V173.1z M387.604,170.062l0.029,0.364c-0.785,0.178-1.56,0.359-2.324,0.546c-0.766,0.187-1.451,0.346-2.059,0.476
		l-0.14-0.392c0.569-0.121,1.251-0.269,2.044-0.44C385.947,170.442,386.764,170.258,387.604,170.062z M390.572,166.281l0.406,0.084
		c-0.178,0.719-0.406,1.387-0.687,2.002c-0.28,0.617-0.602,1.186-0.966,1.709c0.215,0.531,0.459,0.959,0.734,1.281
		c0.275,0.321,0.586,0.506,0.932,0.553c0.121,0.019,0.225-0.117,0.309-0.406s0.153-0.686,0.209-1.189
		c0.047,0.037,0.104,0.069,0.168,0.098c0.065,0.027,0.127,0.051,0.183,0.07c-0.084,0.672-0.194,1.154-0.329,1.448
		s-0.344,0.413-0.623,0.356c-0.401-0.046-0.754-0.232-1.057-0.56c-0.304-0.326-0.572-0.756-0.805-1.288
		c-0.318,0.402-0.664,0.775-1.037,1.12c-0.373,0.346-0.779,0.658-1.218,0.938c-0.037-0.047-0.089-0.104-0.153-0.168
		c-0.066-0.065-0.127-0.117-0.183-0.154c0.962-0.569,1.769-1.297,2.423-2.184c-0.225-0.607-0.409-1.307-0.554-2.101
		c-0.146-0.793-0.269-1.633-0.371-2.521h-4.718v-0.405h4.676c-0.027-0.299-0.054-0.597-0.077-0.896
		c-0.022-0.299-0.044-0.603-0.063-0.91h0.406c0.02,0.308,0.04,0.611,0.063,0.91c0.022,0.299,0.049,0.597,0.077,0.896h3.514v0.405
		h-3.472c0.084,0.804,0.19,1.564,0.321,2.283s0.289,1.367,0.477,1.945C389.783,168.639,390.255,167.533,390.572,166.281z
		 M383.866,166.548h3.108v2.772h-3.108V166.548z M386.555,168.9v-1.947h-2.269v1.947H386.555z M391.244,164.14l-0.238,0.322
		c-0.187-0.177-0.443-0.364-0.77-0.56c-0.327-0.197-0.645-0.359-0.952-0.49l0.237-0.266c0.309,0.121,0.626,0.275,0.953,0.461
		C390.801,163.795,391.058,163.972,391.244,164.14z"/>
	<path fill="#999999" d="M399.826,164.014v0.406h-4.564v-0.406H399.826z M399.35,166.17h-3.569v-0.406h3.569V166.17z
		 M399.35,167.556v0.406h-3.569v-0.406H399.35z M399.35,173.268h-3.107v0.729h-0.406v-4.635h3.514V173.268z M398.93,169.768h-2.688
		v3.094h2.688V169.768z M397.979,163.271l-0.35,0.238c-0.122-0.242-0.287-0.534-0.498-0.875c-0.209-0.341-0.412-0.642-0.609-0.902
		l0.322-0.211c0.215,0.271,0.43,0.57,0.645,0.896S397.866,163.029,397.979,163.271z M407.82,166.617v0.406h-7.028v1.303
		c0,0.56-0.034,1.183-0.104,1.869c-0.07,0.686-0.203,1.379-0.399,2.078c-0.196,0.7-0.485,1.344-0.868,1.932
		c-0.037-0.046-0.094-0.09-0.168-0.133c-0.074-0.041-0.135-0.072-0.182-0.09c0.373-0.58,0.652-1.202,0.84-1.869
		c0.187-0.668,0.313-1.33,0.378-1.988s0.099-1.258,0.099-1.799v-1.709H407.82z M407.652,163.09v0.406h-7.098v-0.406H407.652z
		 M407.316,170.691l0.392,0.182c-0.383,0.542-0.898,1.027-1.547,1.457c-0.649,0.43-1.394,0.801-2.233,1.113s-1.73,0.562-2.674,0.748
		c-0.027-0.047-0.064-0.107-0.111-0.182s-0.094-0.135-0.141-0.182c0.943-0.168,1.82-0.399,2.633-0.693
		c0.812-0.294,1.535-0.646,2.17-1.057C406.439,171.667,406.943,171.205,407.316,170.691z M406.729,166.016l-0.225,0.336
		c-0.262-0.187-0.576-0.378-0.945-0.574c-0.368-0.195-0.762-0.387-1.183-0.574c-0.476,0.234-0.968,0.446-1.477,0.638
		s-1.006,0.366-1.491,0.524c-0.027-0.046-0.08-0.106-0.154-0.182c-0.074-0.074-0.14-0.135-0.195-0.182
		c0.476-0.131,0.959-0.28,1.449-0.448c0.489-0.168,0.959-0.354,1.406-0.56c-0.354-0.149-0.714-0.295-1.078-0.435
		c-0.363-0.14-0.723-0.261-1.078-0.364l0.238-0.279c0.383,0.111,0.777,0.242,1.184,0.392c0.405,0.149,0.805,0.308,1.196,0.476
		c0.337-0.168,0.649-0.348,0.938-0.539c0.289-0.19,0.541-0.389,0.756-0.594l0.42,0.168c-0.233,0.205-0.49,0.405-0.77,0.602
		c-0.28,0.195-0.584,0.378-0.91,0.546c0.383,0.177,0.739,0.354,1.07,0.532C406.213,165.676,406.494,165.848,406.729,166.016z
		 M405.65,167.556l0.378,0.183c-0.317,0.271-0.705,0.524-1.162,0.763c-0.458,0.237-0.944,0.454-1.463,0.651
		c-0.519,0.195-1.029,0.359-1.533,0.489c-0.037-0.046-0.081-0.101-0.133-0.161s-0.101-0.109-0.147-0.146
		c0.504-0.121,1.011-0.271,1.52-0.448c0.508-0.177,0.984-0.38,1.428-0.608S405.352,167.808,405.65,167.556z M406.406,169.082
		l0.378,0.182c-0.345,0.346-0.772,0.674-1.28,0.987c-0.51,0.313-1.061,0.591-1.652,0.833c-0.594,0.242-1.188,0.447-1.785,0.615
		c-0.037-0.046-0.082-0.102-0.133-0.168c-0.052-0.064-0.101-0.116-0.147-0.153c0.588-0.149,1.171-0.341,1.75-0.574
		s1.118-0.497,1.617-0.791S406.07,169.408,406.406,169.082z M404.208,162.865l-0.378,0.211c-0.074-0.188-0.184-0.42-0.329-0.7
		c-0.145-0.28-0.282-0.532-0.413-0.757l0.35-0.182c0.15,0.234,0.297,0.483,0.441,0.749
		C404.023,162.453,404.133,162.68,404.208,162.865z"/>
	<path fill="#999999" d="M421.75,164.574h-2.268c-0.906,2.389-2.133,4.33-3.682,5.824c0.83,0.773,1.752,1.446,2.765,2.016
		s2.106,1.012,3.282,1.33c-0.047,0.037-0.098,0.091-0.153,0.16c-0.056,0.07-0.107,0.139-0.154,0.203
		c-1.176-0.336-2.271-0.791-3.282-1.365c-1.014-0.573-1.936-1.252-2.766-2.037c-0.821,0.738-1.731,1.389-2.73,1.953
		c-0.998,0.564-2.104,1.063-3.317,1.492c-0.028-0.057-0.073-0.127-0.134-0.211s-0.113-0.145-0.16-0.182
		c1.213-0.401,2.318-0.877,3.318-1.428c0.998-0.551,1.898-1.195,2.701-1.932c-0.803-0.794-1.517-1.681-2.142-2.66
		c-0.626-0.98-1.153-2.035-1.582-3.164h-2.17v-0.406h12.474V164.574z M418.992,164.574h-7.111c0.42,1.063,0.93,2.061,1.532,2.988
		c0.603,0.93,1.295,1.781,2.079,2.555c0.746-0.736,1.412-1.563,1.995-2.478S418.572,165.703,418.992,164.574z M416.192,163.72
		l-0.406,0.153c-0.112-0.289-0.282-0.641-0.511-1.057c-0.229-0.415-0.465-0.795-0.707-1.141l0.378-0.126
		c0.243,0.336,0.483,0.71,0.721,1.12C415.905,163.08,416.08,163.431,416.192,163.72z"/>
</g>
<g>
</g>
<g>
</g>
<g>
</g>
<g>
</g>
<g>
</g>
<g>
</g>
</svg>
