<?xml version="1.0" encoding="utf-8"?>
<!-- Generator: Adobe Illustrator 16.0.0, SVG Export Plug-In . SVG Version: 6.00 Build 0)  -->
<!DOCTYPE svg PUBLIC "-//W3C//DTD SVG 1.1//EN" "http://www.w3.org/Graphics/SVG/1.1/DTD/svg11.dtd">
<svg version="1.1" id="Layer_1" xmlns="http://www.w3.org/2000/svg" xmlns:xlink="http://www.w3.org/1999/xlink" x="0px" y="0px"
	 width="481.5px" height="175.5px" viewBox="0 0 481.5 175.5" enable-background="new 0 0 481.5 175.5" xml:space="preserve">
<circle fill="#85D5F7" cx="25.167" cy="12.5" r="9"/>
<ellipse fill="#85D5F7" cx="84.667" cy="26.288" rx="27.167" ry="9"/>
<circle fill="#85D5F7" cx="126.501" cy="24.475" r="9"/>
<circle fill="#85D5F7" cx="144.501" cy="55.301" r="9"/>
<circle fill="#85D5F7" cx="183.833" cy="42.475" r="9"/>
<ellipse fill="#85D5F7" cx="436.109" cy="11.288" rx="19.667" ry="9"/>
<circle fill="#85D5F7" cx="245.833" cy="42.475" r="9"/>
<ellipse fill="#85D5F7" cx="319.848" cy="26.288" rx="24.5" ry="9"/>
<circle fill="#85D5F7" cx="277.441" cy="42.475" r="9"/>
<circle fill="#85D5F7" cx="375.348" cy="35.288" r="9"/>
<circle fill="#85D5F7" cx="357.348" cy="51.475" r="9"/>
<g>
	<path d="M40.216,147.433h7.875c0.777,0,1.361-0.224,1.75-0.671c0.388-0.447,0.671-1.332,0.846-2.654s0.301-3.285,0.379-5.892
		c0.505,0.429,1.156,0.816,1.954,1.167c0.796,0.35,1.506,0.622,2.129,0.816c-0.156,2.995-0.438,5.318-0.846,6.971
		s-1.07,2.8-1.983,3.441c-0.914,0.643-2.208,0.963-3.879,0.963h-8.75c-2.684,0-4.492-0.447-5.425-1.342
		c-0.933-0.895-1.4-2.547-1.4-4.959v-16.625l-8.633,0.467c-0.272,2.996-0.739,5.727-1.4,8.196c-0.662,2.47-1.663,4.696-3.004,6.679
		c-1.342,1.984-3.15,3.725-5.425,5.221c-2.275,1.497-5.183,2.771-8.721,3.821c-0.233-0.545-0.622-1.206-1.167-1.983
		c-0.545-0.778-1.07-1.381-1.575-1.809c3.188-0.854,5.804-1.904,7.846-3.149c2.042-1.244,3.655-2.684,4.842-4.317
		c1.186-1.633,2.071-3.479,2.654-5.541c0.583-2.061,1.011-4.336,1.284-6.825c-2.684,0.156-4.745,0.302-6.184,0.438
		c-1.439,0.137-2.499,0.253-3.179,0.351c-0.681,0.098-1.254,0.224-1.721,0.379c-0.156-0.467-0.379-1.167-0.671-2.1
		c-0.292-0.934-0.574-1.711-0.846-2.334c0.583-0.077,1.205-0.379,1.867-0.904c0.661-0.525,1.38-1.156,2.158-1.896
		c0.467-0.428,1.167-1.146,2.1-2.158c0.933-1.011,1.983-2.207,3.15-3.588c1.167-1.38,2.313-2.849,3.441-4.403h-16.1v-4.201h50.283
		v4.201h-28.35c-1.672,2.256-3.441,4.424-5.308,6.504s-3.714,3.996-5.542,5.746l27.358-1.226c-1.206-1.244-2.47-2.45-3.792-3.616
		c-1.323-1.167-2.606-2.236-3.85-3.209l3.5-2.1c1.789,1.361,3.636,2.887,5.542,4.579c1.905,1.691,3.694,3.374,5.367,5.046
		c1.672,1.672,3.014,3.208,4.025,4.607l-3.792,2.509c-0.428-0.622-0.933-1.272-1.517-1.954c-0.583-0.68-1.206-1.39-1.867-2.129
		l-8.167,0.467v16.8c0,0.933,0.165,1.536,0.496,1.808C38.3,147.297,39.049,147.433,40.216,147.433z M33.508,107.416l-4.492,1.517
		c-0.428-1.089-1.089-2.411-1.983-3.967c-0.895-1.556-1.789-2.955-2.683-4.2l4.258-1.283c0.933,1.245,1.856,2.605,2.771,4.084
		C32.292,105.044,33.002,106.328,33.508,107.416z"/>
	<path d="M112.958,122.291H99.483v7.232h12.542v4.143H99.483v13.357c0,1.362-0.185,2.393-0.554,3.092
		c-0.37,0.701-1.06,1.226-2.071,1.576c-1.012,0.35-2.382,0.563-4.112,0.641c-1.731,0.078-3.879,0.117-6.446,0.117
		c-0.117-0.662-0.321-1.4-0.613-2.217c-0.292-0.816-0.593-1.537-0.904-2.158c2.021,0.078,3.888,0.117,5.6,0.117
		c1.711,0,2.819,0,3.325,0c0.544-0.039,0.913-0.146,1.108-0.321c0.194-0.175,0.292-0.476,0.292-0.904v-13.3H62.266v-4.143h32.842
		v-7.232H60.983v-4.143H84.55v-7.524H66v-4.142h18.55v-6.767h4.433v6.767h19.775v4.142H88.983v7.524h23.975V122.291z
		 M69.675,137.107l3.558-2.158c1.127,0.934,2.275,1.993,3.442,3.18c1.167,1.186,2.246,2.353,3.237,3.5
		c0.992,1.146,1.779,2.207,2.363,3.179l-3.792,2.45c-0.506-0.973-1.235-2.061-2.188-3.268c-0.953-1.205-2.003-2.41-3.15-3.616
		C71.998,139.169,70.841,138.08,69.675,137.107z"/>
	<path d="M167.85,103.216l2.8,1.866c-1.245,2.49-2.81,4.988-4.696,7.496c-1.887,2.508-3.841,4.695-5.863,6.563
		c1.789,1.673,3.753,3.15,5.892,4.434c2.138,1.283,4.471,2.333,7,3.15c-0.467,0.428-0.973,1.001-1.517,1.721
		c-0.545,0.72-0.972,1.352-1.283,1.896c-4.939-1.827-9.217-4.491-12.833-7.991v2.975h-22.458v-3.15
		c-2.1,2.063-4.366,3.85-6.796,5.367c-2.431,1.517-4.929,2.781-7.496,3.791c-0.233-0.504-0.583-1.098-1.05-1.779
		c-0.467-0.68-0.914-1.215-1.342-1.604c2.1-0.738,4.171-1.672,6.213-2.801c2.042-1.127,3.957-2.469,5.746-4.024
		c-0.895-0.816-2.003-1.711-3.325-2.683c-1.322-0.973-2.625-1.887-3.908-2.742c-0.816,0.662-1.614,1.283-2.392,1.867
		c-0.312-0.467-0.758-0.982-1.342-1.547c-0.583-0.563-1.089-0.981-1.517-1.254c3.228-2.178,5.969-4.637,8.225-7.379
		c2.255-2.742,3.986-5.299,5.191-7.671l4.2,0.759c-0.545,1.049-1.108,2.061-1.691,3.033h8.517l0.7-0.176l2.625,1.109
		c-0.972,3.422-2.295,6.543-3.966,9.361c-1.673,2.82-3.598,5.338-5.775,7.555h20.65c-2.489-2.605-4.619-5.59-6.388-8.954
		c-1.77-3.363-3.218-7.067-4.346-11.112l3.792-0.816c1.711,6.262,4.394,11.569,8.05,15.924c1.361-1.32,2.664-2.809,3.909-4.462
		c1.244-1.652,2.333-3.276,3.267-4.87H152.8v-3.617h14.175L167.85,103.216z M130.517,138.273l4.258,1.284
		c-1.4,2.333-3.17,4.569-5.309,6.708c-2.139,2.139-4.278,3.928-6.417,5.367c-0.389-0.429-0.943-0.934-1.663-1.518
		c-0.72-0.583-1.352-1.012-1.896-1.283c2.177-1.283,4.258-2.848,6.242-4.695C127.716,142.29,129.311,140.336,130.517,138.273z
		 M168.025,135.707h-20.417v12.601c0,1.167-0.166,2.061-0.496,2.683c-0.331,0.622-0.962,1.089-1.896,1.4
		c-0.933,0.311-2.168,0.496-3.704,0.555c-1.537,0.059-3.452,0.087-5.746,0.087c-0.117-0.583-0.312-1.245-0.583-1.983
		c-0.272-0.738-0.564-1.381-0.875-1.925c1.828,0.038,3.451,0.067,4.871,0.087c1.419,0.02,2.381,0.01,2.887-0.028
		c0.505,0,0.836-0.068,0.992-0.204c0.155-0.137,0.233-0.399,0.233-0.787v-12.484h-19.833v-3.908h44.567V135.707z M128.475,110.391
		c-0.506,0.545-1.021,1.09-1.545,1.633c-0.525,0.546-1.06,1.09-1.604,1.634c1.244,0.817,2.528,1.692,3.85,2.625
		c1.322,0.934,2.469,1.79,3.442,2.567c1.167-1.167,2.236-2.411,3.208-3.734c-0.933-0.66-2.062-1.429-3.383-2.304
		C131.119,111.937,129.796,111.13,128.475,110.391z M140.492,106.6h-8.983c-0.195,0.271-0.389,0.535-0.583,0.787
		c-0.195,0.254-0.408,0.516-0.642,0.787c1.283,0.7,2.576,1.439,3.879,2.217c1.303,0.778,2.44,1.498,3.413,2.158
		c0.583-0.934,1.118-1.896,1.604-2.887C139.665,108.67,140.103,107.648,140.492,106.6z M154.841,140.549l3.442-2.158
		c1.478,1.051,2.984,2.246,4.521,3.588c1.536,1.342,2.984,2.674,4.346,3.996c1.361,1.322,2.45,2.527,3.267,3.616l-3.675,2.45
		c-0.817-1.051-1.887-2.256-3.208-3.617c-1.323-1.36-2.742-2.731-4.258-4.112C157.758,142.932,156.28,141.678,154.841,140.549z"/>
	<path d="M216.674,133.898l2.742,1.809c-1.322,1.945-2.907,3.705-4.754,5.279c-1.848,1.575-3.918,2.985-6.212,4.229
		c3.111,1.012,6.475,1.848,10.091,2.509s7.369,1.146,11.258,1.458c-0.466,0.427-0.924,1.03-1.371,1.808
		c-0.448,0.777-0.827,1.439-1.138,1.984c-4.278-0.429-8.42-1.1-12.425-2.014c-4.006-0.914-7.72-2.09-11.142-3.528
		c-3.5,1.438-7.272,2.596-11.317,3.471c-4.045,0.875-8.147,1.584-12.308,2.129c-0.195-0.506-0.516-1.128-0.962-1.866
		c-0.448-0.739-0.885-1.322-1.313-1.75c3.811-0.35,7.525-0.866,11.142-1.546c3.617-0.681,7.019-1.565,10.208-2.654
		c-1.517-0.854-2.937-1.779-4.258-2.771c-1.322-0.992-2.547-2.051-3.675-3.18c-1.556,1.012-3.141,1.965-4.754,2.858
		c-1.614,0.896-3.218,1.692-4.813,2.392c-0.312-0.389-0.787-0.875-1.429-1.458c-0.642-0.583-1.176-1.05-1.604-1.4
		c3.422-1.321,6.757-2.983,10.004-4.987c3.247-2.002,5.94-4.229,8.079-6.68c-1.206-0.193-2.033-0.631-2.479-1.313
		c-0.447-0.68-0.67-1.682-0.67-3.004v-5.6h4.025v5.541c0,0.584,0.175,0.963,0.525,1.139c0.35,0.174,1.127,0.262,2.333,0.262h8.517
		c0.894,0,1.487-0.213,1.779-0.642c0.292-0.427,0.496-1.497,0.612-3.208c0.427,0.272,0.972,0.516,1.633,0.729
		c0.661,0.215,1.263,0.379,1.809,0.496c-0.117,1.557-0.35,2.762-0.7,3.617s-0.885,1.439-1.604,1.75
		c-0.72,0.312-1.721,0.467-3.004,0.467h-9.45l1.05,0.35c-0.506,0.623-1.021,1.225-1.546,1.809c-0.525,0.583-1.099,1.146-1.721,1.691
		h18.142L216.674,133.898z M183.366,116.691v6.591h-4.025v-10.091h10.733c-0.35-0.934-0.875-1.975-1.575-3.121
		s-1.42-2.188-2.158-3.121l1.691-0.7c-1.012,0.039-2.012,0.079-3.004,0.116c-0.992,0.039-1.974,0.079-2.946,0.117
		c-0.04-0.505-0.156-1.088-0.35-1.75c-0.195-0.66-0.389-1.186-0.583-1.575c3.578-0.116,7.271-0.271,11.083-0.466
		c3.811-0.195,7.563-0.438,11.258-0.73c3.694-0.291,7.155-0.631,10.383-1.02c3.228-0.389,6.008-0.817,8.342-1.284l2.858,3.034
		c-2.956,0.582-6.329,1.099-10.121,1.545c-3.792,0.447-7.749,0.827-11.871,1.138c0.738,1.089,1.39,2.227,1.954,3.413
		c0.563,1.186,0.962,2.227,1.196,3.12l-3.617,1.284h10.5c0.894-1.205,1.856-2.625,2.888-4.259c1.03-1.634,1.856-3.071,2.479-4.317
		l4.083,1.576c-0.779,1.205-1.604,2.411-2.479,3.616c-0.875,1.206-1.741,2.333-2.596,3.384h10.5v10.5h-4.2v-7h-22.108
		c1.36,0.622,2.741,1.322,4.142,2.1c1.4,0.778,2.508,1.517,3.325,2.217l-2.275,2.625c-0.895-0.777-2.168-1.663-3.821-2.654
		c-1.653-0.992-3.257-1.818-4.813-2.479l1.692-1.808H183.366z M183.774,131.449l-2.975-2.508c1.75-0.934,3.218-2.197,4.404-3.793
		c1.186-1.594,2.09-3.266,2.712-5.016l3.267,1.399c-0.662,1.906-1.575,3.753-2.741,5.542
		C187.274,128.863,185.719,130.322,183.774,131.449z M199.058,105.898l0.7-0.232c-1.556,0.078-3.121,0.166-4.696,0.262
		c-1.575,0.098-3.141,0.186-4.696,0.264c0.816,0.972,1.565,2.021,2.246,3.149c0.68,1.128,1.157,2.14,1.429,3.033l-1.925,0.817
		h10.325c-0.195-1.012-0.613-2.197-1.254-3.559S199.835,107.027,199.058,105.898z M213,137.282h-18.725
		c2.411,2.372,5.58,4.415,9.508,6.125c1.828-0.816,3.52-1.739,5.075-2.771C210.413,139.606,211.793,138.488,213,137.282z
		 M214.516,121.475l2.975-2.042c1.127,0.855,2.284,1.808,3.471,2.858c1.186,1.05,2.275,2.1,3.267,3.15
		c0.992,1.049,1.779,2.021,2.363,2.916l-3.092,2.392c-0.583-0.894-1.362-1.886-2.333-2.976c-0.972-1.088-2.042-2.188-3.208-3.295
		C216.791,123.37,215.644,122.369,214.516,121.475z"/>
	<path d="M264.566,127.657l1.633,0.642c-0.271,2.295-0.611,4.473-1.021,6.533c-0.408,2.063-0.924,3.967-1.546,5.717
		c0.934,2.179,2.1,3.842,3.5,4.988s3.033,1.924,4.9,2.333c1.867,0.408,3.946,0.612,6.242,0.612c1.633,0,3.46-0.038,5.482-0.117
		c2.021-0.077,3.811-0.193,5.367-0.35c-0.233,0.467-0.467,1.088-0.7,1.867c-0.233,0.777-0.39,1.438-0.467,1.982
		c-1.399,0.078-2.985,0.146-4.754,0.205c-1.771,0.059-3.452,0.087-5.046,0.087c-2.528-0.039-4.793-0.263-6.796-0.671
		s-3.763-1.166-5.279-2.275c-1.517-1.107-2.819-2.691-3.908-4.754c-0.817,1.828-1.741,3.471-2.771,4.93
		c-1.031,1.458-2.149,2.713-3.354,3.762c-0.272-0.428-0.642-0.943-1.108-1.545c-0.467-0.604-0.914-1.061-1.342-1.371
		c-0.156,0.66-0.642,1.166-1.459,1.517c-0.621,0.312-1.438,0.496-2.449,0.554c-1.012,0.059-2.314,0.088-3.908,0.088
		c-0.078-0.467-0.233-0.992-0.467-1.574c-0.233-0.584-0.467-1.109-0.7-1.576c1.128,0.039,2.159,0.059,3.092,0.059s1.536,0,1.808,0
		c0.545,0,0.817-0.272,0.817-0.816v-5.717h-8.108v10.092h-3.5v-26.658H236.1v-8.342h2.1v-16.1h16.042v16.1h2.274v8.342h-2.74v22.342
		c0,0.271,0,0.515,0,0.729s-0.04,0.418-0.117,0.613c2.139-1.789,3.928-4.277,5.367-7.467c1.438-3.188,2.488-6.961,3.149-11.316
		h-1.75c-0.545,0-1.118,0.087-1.721,0.262c-0.604,0.176-1.002,0.36-1.196,0.555c-0.116-0.506-0.35-1.146-0.699-1.926
		c-0.351-0.777-0.643-1.379-0.875-1.808c0.427-0.077,0.825-0.243,1.195-0.496c0.369-0.253,0.689-0.632,0.963-1.138
		c0.232-0.389,0.554-1.137,0.962-2.246c0.409-1.107,0.847-2.361,1.313-3.762c0.467-1.4,0.875-2.722,1.226-3.967h-5.601v-3.617h6.942
		l0.758-0.35l2.742,0.758l-0.525,1.518c1.011-1.128,1.904-2.382,2.684-3.763c0.777-1.38,1.477-2.868,2.1-4.463h-5.25v-3.091h6.184
		c0.35-1.361,0.642-2.723,0.875-4.084l3.324,0.467c-0.116,0.623-0.232,1.234-0.35,1.838s-0.272,1.195-0.467,1.779h13.358v3.091
		h-14.233c-0.156,0.583-0.35,1.157-0.583,1.722c-0.233,0.563-0.467,1.117-0.7,1.662h14.059v2.857h-6.301v4.201h7.875v2.799h-19.658
		V117.1h8.226v-4.201h-4.783v-1.633c-1.479,2.995-3.325,5.522-5.542,7.584c-0.156-0.195-0.379-0.457-0.671-0.788
		c-0.292-0.33-0.593-0.651-0.903-0.962c-0.623,1.711-1.294,3.558-2.014,5.541s-1.37,3.695-1.953,5.133h2.741L264.566,127.657z
		 M253.074,124.857v-3.85h-13.649v3.85H253.074z M241.408,105.082v12.775h3.383v-9.041h6.125v-3.734H241.408z M250.333,132.207
		v-4.258h-8.108v4.258H250.333z M242.225,139.615h8.108v-4.316h-8.108V139.615z M247.416,117.857h3.5v-6.3h-3.5V117.857z
		 M264.508,109.166l-3.267,1.633c-0.506-1.244-1.225-2.731-2.158-4.463c-0.933-1.729-1.848-3.295-2.741-4.695l3.208-1.342
		c0.894,1.4,1.817,2.938,2.771,4.608C263.273,106.58,264.002,107.999,264.508,109.166z M286.675,122.758v18.899
		c0,0.856-0.098,1.517-0.292,1.983c-0.195,0.467-0.604,0.855-1.225,1.167c-0.584,0.272-1.342,0.438-2.275,0.495
		c-0.934,0.059-2.119,0.088-3.559,0.088c-0.039-0.505-0.166-1.04-0.379-1.604c-0.214-0.564-0.438-1.06-0.67-1.488
		c0.933,0.039,1.769,0.059,2.508,0.059c0.738,0,1.244,0,1.517,0c0.467,0,0.7-0.233,0.7-0.7v-4.259h-10.033v7.875h-3.559v-22.516
		H286.675z M283,125.615h-10.033v3.092H283V125.615z M272.967,134.6H283v-3.209h-10.033V134.6z"/>
	<path d="M343.199,102.457v45.268c0,1.321-0.194,2.313-0.582,2.975c-0.39,0.66-1.031,1.166-1.926,1.517s-2.158,0.563-3.791,0.642
		c-1.634,0.078-3.754,0.117-6.359,0.117c-0.078-0.545-0.262-1.196-0.554-1.955c-0.292-0.758-0.593-1.391-0.904-1.896
		c1.866,0.038,3.597,0.067,5.192,0.087c1.594,0.02,2.644,0.01,3.149-0.028c1.011-0.04,1.517-0.506,1.517-1.4v-41.241h-35.175v14.699
		c0,2.373-0.087,4.959-0.263,7.759c-0.175,2.8-0.516,5.64-1.021,8.517c-0.506,2.879-1.245,5.668-2.217,8.371
		c-0.973,2.702-2.256,5.182-3.851,7.438c-0.35-0.429-0.885-0.934-1.604-1.517c-0.721-0.583-1.332-1.012-1.838-1.284
		c1.478-2.1,2.654-4.383,3.529-6.854c0.875-2.469,1.525-4.996,1.954-7.584c0.428-2.585,0.71-5.152,0.847-7.699
		c0.135-2.547,0.203-4.93,0.203-7.146v-18.783H343.199z M332.583,144.749h-19.658v3.208H308.9v-18.434h9.508v-4.957H306.1v-3.559
		h12.309v-5.484h-12.133v-3.5h12.133v-4.549h4.084v4.549h13.299v3.5h-13.299v5.484h13.183v3.559h-13.183v4.957h10.091V144.749z
		 M328.441,133.023h-15.517v8.226h15.517V133.023z"/>
	<path d="M374.408,122.291v8.4c0,0.816-0.088,1.438-0.263,1.866c-0.175,0.429-0.554,0.798-1.138,1.108
		c-0.623,0.232-1.332,0.379-2.129,0.438c-0.798,0.059-1.76,0.088-2.888,0.088c-0.116-0.467-0.312-0.982-0.583-1.547
		c-0.273-0.563-0.525-1.039-0.759-1.429c0.854,0,1.575,0.01,2.158,0.029c0.583,0.021,1.011,0.01,1.284-0.029
		c0.388,0,0.582-0.194,0.582-0.583v-8.342h-9.625v-3.209h8.926v-9.857h-8.809v5.658c0,2.178-0.156,4.607-0.467,7.291
		c-0.312,2.684-0.914,5.338-1.809,7.963s-2.197,5.008-3.908,7.146c-0.312-0.427-0.816-0.923-1.516-1.487
		c-0.701-0.563-1.284-0.963-1.75-1.195c1.594-1.984,2.77-4.133,3.528-6.446s1.264-4.628,1.517-6.942
		c0.253-2.313,0.379-4.441,0.379-6.387v-9.158h25.316c-0.078-0.972-0.154-1.955-0.232-2.946s-0.137-1.992-0.176-3.004h4.084
		c0.078,2.022,0.193,4.006,0.35,5.95h18.025v3.559h-17.559c0.428,2.605,0.953,5.055,1.576,7.35c0.621,2.295,1.32,4.355,2.1,6.184
		c1.049-1.634,1.982-3.354,2.799-5.163c0.816-1.808,1.537-3.685,2.158-5.629l4.025,0.816c-0.816,2.606-1.809,5.075-2.975,7.409
		c-1.166,2.332-2.471,4.512-3.908,6.533c1.051,1.633,2.178,2.896,3.383,3.791s2.412,1.342,3.617,1.342
		c0.777-0.038,1.332-0.603,1.662-1.691c0.33-1.088,0.574-2.955,0.73-5.6c0.426,0.389,0.951,0.758,1.574,1.107
		c0.621,0.35,1.205,0.623,1.75,0.816c-0.234,2.412-0.574,4.288-1.021,5.63c-0.447,1.341-1.07,2.284-1.865,2.829
		c-0.799,0.545-1.818,0.816-3.063,0.816c-1.791,0-3.463-0.505-5.018-1.517c-1.557-1.011-2.996-2.43-4.316-4.259
		c-1.09,1.283-2.236,2.471-3.441,3.559c-1.207,1.09-2.451,2.1-3.734,3.033c-0.271-0.428-0.748-0.934-1.43-1.516
		c-0.68-0.584-1.234-1.031-1.662-1.342c1.518-0.973,2.947-2.071,4.287-3.297c1.342-1.225,2.615-2.557,3.822-3.995
		c-2.373-4.628-4.064-10.363-5.076-17.208h-9.274v3.383h7.817v2.916h-7.817v3.559h9.8v3.209H374.408z M355.566,151.225l-3.441-2.393
		c2.177-1.127,3.888-2.663,5.133-4.607c1.244-1.945,2.139-4.064,2.684-6.359l3.732,1.226c-0.622,2.45-1.545,4.765-2.77,6.941
		C359.679,148.211,357.899,149.941,355.566,151.225z M364.842,123.982l3.149,0.758c-0.661,1.596-1.497,3.17-2.509,4.726
		s-2.08,2.858-3.208,3.908c-0.272-0.233-0.69-0.544-1.254-0.933c-0.564-0.389-1.021-0.701-1.371-0.934
		C361.982,129.369,363.713,126.861,364.842,123.982z M375.107,148.249h10.209c0.816,0,1.43-0.136,1.838-0.408
		c0.408-0.271,0.699-0.836,0.875-1.692c0.174-0.854,0.301-2.158,0.379-3.908c0.428,0.351,1.039,0.672,1.838,0.963
		c0.795,0.292,1.467,0.496,2.012,0.613c-0.156,2.216-0.447,3.928-0.875,5.133s-1.08,2.041-1.955,2.508s-2.109,0.7-3.703,0.7h-10.967
		c-1.983,0-3.51-0.165-4.579-0.495c-1.07-0.332-1.809-0.904-2.217-1.721c-0.408-0.817-0.612-1.945-0.612-3.384v-8.517h4.258v8.517
		c0,0.7,0.205,1.157,0.613,1.37C372.629,148.143,373.592,148.249,375.107,148.249z M371.258,135.883l2.858-2.393
		c1.205,0.545,2.45,1.217,3.733,2.014s2.479,1.623,3.588,2.479c1.107,0.855,1.992,1.691,2.654,2.508l-2.976,2.625
		c-0.661-0.777-1.536-1.604-2.625-2.479s-2.267-1.73-3.529-2.566C373.697,137.234,372.463,136.505,371.258,135.883z
		 M383.332,129.466l-2.916,1.517c-0.35-0.816-0.924-1.76-1.721-2.829s-1.624-2.013-2.479-2.829l2.741-1.342
		c0.854,0.816,1.71,1.74,2.567,2.771C382.379,127.784,382.982,128.688,383.332,129.466z M399.492,102.982l-2.275,2.625
		c-0.857-0.584-2.004-1.215-3.441-1.896c-1.439-0.68-2.82-1.233-4.143-1.662l2.158-2.333c1.322,0.39,2.723,0.896,4.199,1.517
		C397.469,101.855,398.635,102.438,399.492,102.982z M391.207,139.441l3.385-2.101c1.438,1.05,2.848,2.245,4.229,3.587
		s2.645,2.684,3.791,4.025s2.033,2.616,2.654,3.82l-3.732,2.275c-0.584-1.205-1.42-2.499-2.508-3.879
		c-1.09-1.38-2.314-2.742-3.676-4.084C393.988,141.745,392.607,140.529,391.207,139.441z"/>
	<path d="M463.076,120.891H439.1v9.217h17.441v22.633h-4.549v-2.158h-29.518v2.742H418.1v-23.217h16.625v-9.217H411.1v-4.083h23.625
		v-9.101c-3.072,0.313-6.184,0.555-9.332,0.729c-3.15,0.175-6.164,0.302-9.043,0.38c-0.039-0.545-0.174-1.168-0.408-1.867
		c-0.232-0.7-0.447-1.303-0.641-1.809c3.383-0.117,6.883-0.291,10.5-0.525c3.615-0.232,7.154-0.554,10.615-0.962
		s6.65-0.913,9.568-1.517c2.916-0.603,5.365-1.313,7.35-2.129l3.732,3.208c-2.332,0.896-5.045,1.673-8.137,2.333
		c-3.092,0.662-6.369,1.206-9.83,1.634v9.625h23.977V120.891z M451.992,146.558v-12.425h-29.518v12.425H451.992z"/>
</g>
<g>
	<path d="M48.325,53.209c2.392,0,2.742-1.342,2.975-9.1c1.05,0.758,2.858,1.458,4.025,1.75c-0.525,8.925-1.692,11.317-6.65,11.317
		h-9.042c-5.367,0-6.767-1.342-6.767-6.184V32.325l-8.809,0.525c-1.05,12.775-4.025,21-18.434,25.317
		c-0.467-1.108-1.691-2.8-2.508-3.617c13.125-3.617,15.634-10.5,16.509-21.467c-8.167,0.525-9.917,0.758-11.2,1.167
		c-0.292-0.875-1.05-3.208-1.633-4.434c1.458-0.35,2.858-1.925,4.958-4.375c1.167-1.225,3.675-4.375,6.475-8.4H3.583V12.9h17.383
		c1.634-2.45,3.15-5.075,4.55-7.7l4.9,1.633c-1.225,2.042-2.508,4.083-3.85,6.067h27.3v4.142H23.767
		c-3.092,4.434-6.417,8.575-9.684,12.134l27.301-1.225c-2.45-2.45-5.134-4.842-7.583-6.825l3.5-2.1
		C42.55,23.108,48.792,29,51.65,33.2l-3.792,2.392c-0.759-1.167-1.75-2.508-3.034-3.908l-7.583,0.408v18.9
		c0,1.867,0.467,2.217,2.858,2.217H48.325z"/>
	<path d="M113.017,12.142v4.142H88.983v7.292h19.076v4.142H65.358v-4.142H84.55v-7.292H61.042v-4.142H84.55V5.2h4.433v6.942H113.017
		z M99.484,35.534h12.542v4.142H99.484v13.184c0,2.684-0.642,3.908-2.625,4.608s-5.425,0.7-10.559,0.7
		c-0.233-1.284-0.875-2.975-1.517-4.258c4.025,0.116,7.875,0.116,8.925,0.058c1.05-0.058,1.4-0.292,1.4-1.225V39.675H62.267v-4.142
		h32.842v-6.008h4.375V35.534z M73.233,41.017c3.033,3.033,7.058,7.292,9.042,9.858l-3.733,2.392c-1.867-2.566-5.833-7-8.867-10.208
		L73.233,41.017z"/>
	<path d="M168.434,9.983c-2.684,4.783-6.825,10.208-10.383,14c3.966,4.317,8.808,7.7,14.233,9.742
		c-0.992,0.817-2.217,2.392-2.858,3.559c-4.783-2.1-9.1-5.192-12.833-9.042v3.383h-21.875v-3.091
		c-4.2,4.025-8.925,7.117-13.825,9.158c-0.583-1.108-1.692-2.625-2.508-3.441c5.95-2.217,11.842-6.3,16.333-11.667
		c-1.925-1.633-4.842-3.85-7.292-5.717c-1.633,1.691-3.325,3.208-5.308,4.608c-0.583-0.875-1.867-2.217-2.8-2.742
		c5.659-3.909,9.567-9.217,11.609-13.65l4.258,0.817c-0.583,1.108-1.225,2.217-1.925,3.325h9.159l0.7-0.175l2.742,1.283
		c-2.1,6.942-5.775,12.717-10.267,17.326h20.476c-4.142-4.375-7.467-9.742-9.8-15.692l2.975-0.816V8.292h15.458L165.576,8
		L168.434,9.983z M130.283,26.025c-3.383,0.409-6.417,0.934-9.45,1.4l-0.583-3.267c2.683-0.292,6.008-0.7,9.8-1.167L130.283,26.025z
		 M137.75,44.925c-3.908,3.792-9.217,8.4-13.417,11.259c-0.758-0.758-2.45-2.275-3.384-2.917c4.375-2.625,9.392-6.533,12.892-10.033
		L137.75,44.925z M147.434,40.9v17.559h-4.375V40.9h-18.434v-3.967h42.234V40.9H147.434z M130.867,12.783
		c-0.467,0.583-0.933,1.167-1.4,1.692c2.45,1.75,5.309,3.733,7.35,5.367c1.517-2.217,2.8-4.55,3.792-7.059H130.867z M150.292,11.966
		c1.4,3.267,3.15,6.359,5.309,9.159c2.333-2.683,4.783-6.125,6.592-9.159H150.292z M156.067,43.292
		c4.2,3.208,9.742,7.759,12.658,10.5l-3.675,2.566c-2.684-2.8-8.225-7.642-12.484-10.967L156.067,43.292z"/>
	<path d="M221.342,41.25c-2.858,4.083-7,7.292-11.9,9.742c6.125,1.75,12.95,2.8,20.3,3.325c-0.875,1.05-1.925,2.8-2.45,4.025
		c-8.575-0.816-16.567-2.45-23.45-4.9c-7.117,2.625-15.342,4.2-23.625,5.133c-0.408-0.992-1.458-2.8-2.275-3.617
		c7.292-0.642,14.408-1.809,20.767-3.675c-3.384-1.517-6.476-3.383-9.101-5.425c-2.625,1.575-5.308,3.033-7.992,4.2
		c-0.583-0.759-2.158-2.217-3.033-2.858c2.742-1.05,5.542-2.392,8.167-3.85c-1.575-1.458-2.917-3.034-4.142-4.725l3.5-1.458
		c1.05,1.458,2.392,2.858,3.792,4.142c2.625-1.75,4.958-3.675,6.767-5.775c-2.45-0.467-3.15-1.633-3.15-4.375V25.5h4.083v5.6
		c0,1.225,0.408,1.4,2.858,1.4h8.517c1.809,0,2.158-0.409,2.392-3.909c0.817,0.583,2.333,1.05,3.442,1.283
		c-0.408,4.725-1.575,5.892-5.309,5.892h-9.392l0.992,0.35c-0.992,1.167-2.1,2.333-3.267,3.441h20.008l0.817-0.175L221.342,41.25z
		 M183.366,28.708h-4.083V18.675h10.559c-0.642-1.691-2.042-4.025-3.383-5.775l3.033-1.225c-2.508,0.117-5.017,0.175-7.467,0.233
		c-0.116-0.933-0.525-2.392-0.875-3.267c14.234-0.409,31.676-1.575,41.067-3.5l2.858,3.033c-6.008,1.225-14.059,2.1-22.4,2.742
		c1.458,1.925,2.8,4.55,3.208,6.417l-3.733,1.341c-0.35-1.808-1.691-4.55-3.092-6.533l3.384-1.225
		c-4.083,0.292-8.342,0.525-12.484,0.7c1.633,1.808,3.208,4.375,3.792,6.066l-2.217,0.992h21.583
		c1.75-2.392,4.083-6.008,5.367-8.517l4.083,1.517c-1.575,2.392-3.383,4.958-5.075,7h10.559v10.442h-4.258v-6.941h-22.109
		c2.742,1.283,5.833,2.975,7.467,4.375l-2.275,2.566c-1.867-1.575-5.542-3.792-8.633-5.133l1.691-1.808h-16.567V28.708z
		 M181.325,34.017c3.15-1.867,5.25-5.367,6.3-8.692l3.384,1.4c-1.225,3.617-3.15,7.409-6.65,9.684L181.325,34.017z M192.816,43.642
		c3.267,2.275,7.059,4.142,11.434,5.717c4.083-1.692,7.7-3.85,10.325-6.475h-20.708L192.816,43.642z M217.492,24.917
		c3.384,2.508,7.351,6.3,9.101,8.983l-3.092,2.333c-1.75-2.567-5.6-6.592-8.983-9.275L217.492,24.917z"/>
	<path d="M253.541,31.684v22.342c0,1.692-0.35,2.625-1.574,3.15s-3.209,0.583-6.358,0.583c-0.175-0.875-0.642-2.158-1.167-3.033
		c2.334,0.059,4.316,0.059,4.9,0.059c0.642,0,0.875-0.233,0.875-0.817v-7.758c-2.45,1.341-4.842,2.742-7.117,3.967l-1.517-2.8
		c-0.35,3.792-1.167,7.875-2.8,11.025c-0.583-0.642-1.983-1.692-2.742-2.1c2.275-4.492,2.508-10.559,2.508-15.109v-9.508h-2.45
		v-8.342h2.1v-16.1h15.576v16.1h2.741v8.342H253.541z M253.075,26.492h-13.65v3.85h13.65V26.492z M241.408,23.342h3.383V14.3h5.659
		v-3.733h-9.042V23.342z M241.875,41.192c0,1.809-0.059,3.792-0.233,5.833c2.333-0.933,5.366-2.333,8.575-3.792v-9.8h-8.342V41.192z
		 M243.975,35.592c2.216,1.458,4.783,3.325,6.066,4.608L248,42.534c-1.342-1.4-3.909-3.5-5.95-4.9L243.975,35.592z M250.45,23.342
		v-6.3h-3.092v6.3H250.45z M265.85,33.492c-0.524,4.784-1.341,9.042-2.508,12.717c2.742,6.358,7.7,7.642,14.759,7.642
		c3.267,0,7.759-0.175,10.908-0.525c-0.524,0.933-1.05,2.742-1.225,3.85c-2.8,0.175-6.592,0.292-9.858,0.292
		c-7.584,0-12.658-1.4-16.043-7.35c-1.516,3.617-3.383,6.417-5.658,8.517c-0.467-0.817-1.633-2.217-2.391-2.8
		c4.199-3.733,7.058-10.383,8.283-19.484h-1.809c-1.108,0-2.566,0.35-2.917,0.759c-0.233-0.934-1.05-2.742-1.458-3.559
		c0.758-0.175,1.517-0.583,2.1-1.575c0.7-1.167,2.334-6.183,3.5-9.917h-5.191v-3.442h6.184l1.05-0.467l2.567,0.758L265.5,20.6
		c2.042-2.217,3.676-5.075,5.018-8.342h-5.192V9.05h6.241c0.351-1.342,0.701-2.683,0.992-4.083l3.267,0.583
		c-0.233,1.225-0.524,2.333-0.875,3.5h13.417v3.208H273.9c-0.408,1.167-0.816,2.275-1.342,3.383h14.351v2.684h-6.3V22.7h7.875v2.683
		h-19.601V22.7h8.167v-4.375h-4.726v-2.159c-1.517,3.15-3.384,5.892-5.542,8.05c-0.35-0.467-1.166-1.283-1.866-1.925
		c-1.167,3.384-2.684,7.759-3.909,10.675h2.684l0.584-0.058L265.85,33.492z M261.417,16.283c-0.991-2.45-3.15-6.358-4.9-9.158
		l2.976-1.108c1.809,2.858,3.967,6.533,4.958,8.925L261.417,16.283z M286.326,47.142c0,1.809-0.408,2.567-1.634,3.15
		c-1.284,0.467-3.267,0.525-6.358,0.525c-0.176-0.934-0.643-2.1-1.108-2.917c2.101,0.059,4.083,0.059,4.608,0
		c0.642,0,0.816-0.175,0.816-0.758v-5.425c-3.092,0.933-6.066,1.867-8.809,2.683l-1.225-3.033c2.742-0.525,6.242-1.342,10.033-2.217
		v-8.225h-10.383v7c0,3.967-0.408,9.392-2.509,13.009c-0.642-0.583-2.159-1.575-2.858-1.925c1.867-3.267,1.983-7.7,1.983-11.2
		v-9.684h17.442V47.142z M274.95,32.5c2.392,1.05,5.017,2.275,6.417,3.383l-1.575,2.45c-1.458-1.05-4.142-2.742-6.3-3.733
		L274.95,32.5z"/>
	<path d="M342.326,53.15c0,2.742-0.759,3.85-2.567,4.55c-1.808,0.7-4.899,0.758-10.033,0.758c-0.233-1.108-0.934-2.8-1.517-3.85
		c3.733,0.117,7.35,0.117,8.342,0.059c1.108-0.059,1.458-0.409,1.458-1.458V30.867h-33.833c-0.293,9.101-1.809,20.184-7.467,27.942
		c-0.701-0.875-2.451-2.275-3.442-2.8c6.125-8.4,6.708-20.3,6.708-29.342V7.941h42.352V53.15z M304.233,12.025v5.483h14.175v-5.483
		H304.233z M304.233,27.192h14.175v-6.125h-14.175v5.6V27.192z M312.575,50.234v3.208h-4.024V35.009h24.208v15.225H312.575z
		 M312.575,38.509v8.225h16.042v-8.225H312.575z M338.009,12.025h-15.458v5.483h15.458V12.025z M338.009,27.192v-6.125h-15.458
		v6.125H338.009z"/>
	<path d="M400.133,21.067c-1.398,6.708-3.441,12.892-6.182,18.083c2.217,8.692,4.725,14.233,6.416,14.233
		c0.934,0,1.516-3.441,1.75-10.617c0.875,0.934,2.217,1.809,3.383,2.217c-0.699,9.625-2.041,12.483-5.658,12.483
		c-3.209,0-6.301-5.367-8.691-13.592c-1.225,1.75-2.508,3.325-3.85,4.725c-0.643-0.642-2.217-1.925-3.033-2.45
		c2.1-2.042,3.908-4.375,5.541-7.117c-1.691-7-2.975-15.517-3.676-24.325h-25.607v6.533c0,10.267-0.76,26.192-5.426,37.393
		c-0.758-0.7-2.508-1.867-3.441-2.275c4.491-10.675,4.958-25.317,4.958-35.117V11.15H385.9c-0.117-1.983-0.176-3.967-0.234-5.95
		h4.084c0,1.983,0.059,4.025,0.176,5.95h13.65v3.559H390.1c0.525,6.767,1.459,13.067,2.51,18.608
		c1.691-3.908,2.916-8.342,3.85-12.95L400.133,21.067z M358.309,54.726c1.107-3.033,2.508-7.992,3.149-11.083l2.976,1.167
		c-0.759,3.208-1.926,8.109-2.976,11.259L358.309,54.726z M369.742,30.284c-1.226,2.917-3.268,6.008-5.367,8.05
		c-0.584-0.525-1.867-1.517-2.625-1.925c2.1-1.809,3.85-4.317,4.9-6.825L369.742,30.284z M374.875,15.816v2.8h8.109v2.917h-8.109
		v3.442h10.092v3.15h-9.508v11.434H371.9V28.125h-9.625v-3.15h8.982v-9.217L374.875,15.816z M376.45,53.734
		c1.458,0,1.75-0.525,1.866-5.483c0.7,0.642,2.158,1.108,3.209,1.4c-0.408,6.125-1.459,7.525-4.667,7.525H370.5
		c-3.967,0-4.959-0.992-4.959-4.784v-9.1h3.442v9.1c0,1.167,0.292,1.342,1.866,1.342H376.45z M373.125,40.55
		c1.691,2.333,3.559,5.6,4.375,7.583l-3.15,1.4c-0.758-2.042-2.566-5.367-4.199-7.816L373.125,40.55z M381.408,37.867
		c-0.875-1.983-2.684-5.017-4.316-7.292l2.858-0.992c1.634,2.1,3.499,5.075,4.374,6.942L381.408,37.867z M382.809,44.05
		c1.982,2.917,3.967,7.059,4.725,9.509L384.5,55.25c-0.699-2.683-2.625-6.767-4.492-9.858L382.809,44.05z M396.051,5.375
		c1.4,1.225,3.092,2.975,3.967,4.258l-3.033,1.517c-0.816-1.225-2.451-3.092-3.852-4.375L396.051,5.375z"/>
	<path d="M438.984,26.375v9.217h16.857v22.75h-4.432v-2.392h-28.701v2.392h-4.258v-22.75h16.158v-9.217H411.1V22.35h23.51v-9.684
		h-18.9V8.7h42.758v3.967h-19.482v9.684h24.092v4.025H438.984z M451.41,39.559h-28.701v12.484h28.701V39.559z"/>
</g>
<g>
	<path fill="#999999" d="M3.899,76.035l-0.602-0.322c0.243-0.299,0.464-0.644,0.665-1.036s0.375-0.793,0.525-1.204
		c0.149-0.41,0.275-0.793,0.378-1.148l0.588,0.21c-0.112,0.364-0.243,0.761-0.392,1.19s-0.32,0.845-0.511,1.246
		C4.359,75.372,4.142,75.727,3.899,76.035z M14.259,64.639v6.104H4.613v-6.104H14.259z M5.271,65.269v2.114h3.878v-2.114H5.271z
		 M5.271,67.985v2.142h3.878v-2.142H5.271z M8.253,75.755h3.08c0.252,0,0.438-0.044,0.56-0.133c0.121-0.089,0.208-0.271,0.259-0.546
		c0.051-0.275,0.086-0.693,0.105-1.253c0.093,0.065,0.201,0.122,0.322,0.168c0.121,0.047,0.229,0.08,0.322,0.098
		c-0.037,0.616-0.1,1.09-0.189,1.421c-0.089,0.332-0.236,0.56-0.441,0.686c-0.206,0.126-0.509,0.189-0.91,0.189H8.253
		c-0.653,0-1.097-0.072-1.33-0.217c-0.233-0.145-0.35-0.437-0.35-0.875v-3.066h0.672v3.066c0,0.187,0.061,0.311,0.182,0.371
		C7.549,75.725,7.824,75.755,8.253,75.755z M11.306,73.249l-0.462,0.476c-0.215-0.206-0.49-0.434-0.826-0.686
		s-0.695-0.502-1.078-0.749c-0.383-0.248-0.756-0.464-1.12-0.651l0.448-0.42c0.364,0.187,0.737,0.397,1.12,0.63
		c0.382,0.233,0.744,0.471,1.085,0.714C10.813,72.806,11.091,73.034,11.306,73.249z M13.602,67.383v-2.114H9.793v2.114H13.602z
		 M13.602,70.127v-2.142H9.793v2.142H13.602z M12.972,72.381l0.602-0.252c0.28,0.355,0.558,0.742,0.833,1.162
		c0.275,0.42,0.522,0.831,0.742,1.232s0.385,0.761,0.497,1.078l-0.644,0.294c-0.112-0.317-0.273-0.681-0.483-1.092
		c-0.21-0.411-0.451-0.828-0.721-1.253C13.527,73.125,13.251,72.736,12.972,72.381z"/>
	<path fill="#999999" d="M19.916,69.371l-0.378,0.546c-0.168-0.159-0.385-0.331-0.651-0.518c-0.266-0.187-0.551-0.369-0.854-0.546
		c-0.304-0.177-0.604-0.332-0.903-0.462l0.392-0.476c0.289,0.121,0.585,0.268,0.889,0.441c0.303,0.173,0.588,0.345,0.854,0.518
		C19.53,69.047,19.748,69.212,19.916,69.371z M19.72,71.569l0.532,0.378c-0.206,0.485-0.432,0.999-0.679,1.54
		c-0.248,0.542-0.5,1.071-0.756,1.589c-0.257,0.518-0.501,0.987-0.735,1.407l-0.588-0.406c0.214-0.364,0.453-0.798,0.714-1.302
		s0.525-1.036,0.791-1.596C19.265,72.619,19.505,72.083,19.72,71.569z M20.574,65.759l-0.406,0.546
		c-0.159-0.177-0.366-0.366-0.623-0.567s-0.534-0.396-0.833-0.588s-0.593-0.357-0.882-0.497l0.406-0.476
		c0.28,0.14,0.569,0.301,0.868,0.483c0.299,0.182,0.579,0.369,0.84,0.56C20.205,65.411,20.415,65.591,20.574,65.759z M29.113,71.723
		h-2.814v4.172c0,0.196-0.028,0.348-0.084,0.455c-0.056,0.107-0.163,0.184-0.322,0.231c-0.149,0.056-0.374,0.088-0.672,0.098
		c-0.299,0.009-0.691,0.009-1.176,0c-0.019-0.075-0.049-0.168-0.091-0.28s-0.082-0.215-0.119-0.308
		c0.383,0.009,0.716,0.014,1.001,0.014s0.474,0,0.567,0c0.168-0.009,0.252-0.08,0.252-0.21v-4.172h-2.688v-4.69h2.338
		c0.074-0.261,0.149-0.55,0.224-0.868s0.131-0.607,0.168-0.868h-3.738v3.178c0,0.597-0.021,1.246-0.063,1.946
		s-0.126,1.412-0.252,2.135c-0.126,0.724-0.313,1.428-0.56,2.114c-0.248,0.686-0.576,1.323-0.987,1.911
		c-0.056-0.047-0.143-0.107-0.259-0.182s-0.212-0.126-0.287-0.154c0.401-0.579,0.719-1.197,0.952-1.855
		c0.233-0.658,0.408-1.333,0.525-2.023c0.117-0.69,0.191-1.367,0.224-2.03s0.049-1.283,0.049-1.862v-3.808h8.428v0.63h-3.514
		l0.224,0.056c-0.084,0.271-0.168,0.555-0.252,0.854s-0.164,0.574-0.238,0.826h3.164V71.723z M23.611,72.633l0.63,0.168
		c-0.233,0.551-0.518,1.099-0.854,1.645c-0.336,0.546-0.682,1.011-1.036,1.393c-0.065-0.047-0.156-0.112-0.273-0.196
		s-0.217-0.145-0.301-0.182c0.374-0.373,0.719-0.81,1.036-1.309C23.131,73.653,23.396,73.146,23.611,72.633z M23.598,67.607v1.47
		h4.872v-1.47H23.598z M23.598,69.651v1.498h4.872v-1.498H23.598z M27.56,72.801l0.574-0.252c0.243,0.28,0.483,0.59,0.721,0.931
		s0.455,0.674,0.651,1.001c0.196,0.327,0.345,0.621,0.448,0.882l-0.616,0.294c-0.093-0.261-0.236-0.558-0.427-0.889
		c-0.191-0.332-0.404-0.67-0.637-1.015S27.802,73.09,27.56,72.801z"/>
	<path fill="#999999" d="M43.688,72.675v0.616H31.326v-0.616h5.824v-1.596h-4.648v-0.588h4.648v-1.442h-4.382v-4.466h9.38v4.466
		h-4.34v1.442h4.662v0.588h-4.662v1.596H43.688z M32.012,76.749l-0.588-0.308c0.327-0.271,0.63-0.623,0.91-1.057
		s0.509-0.866,0.686-1.295l0.616,0.168c-0.178,0.43-0.406,0.875-0.686,1.337C32.669,76.056,32.357,76.441,32.012,76.749z
		 M33.412,68.447h3.738v-3.276h-3.738V68.447z M34.476,65.801l0.49-0.182c0.224,0.345,0.434,0.719,0.63,1.12
		c0.196,0.401,0.326,0.747,0.392,1.036l-0.532,0.224c-0.065-0.299-0.191-0.653-0.378-1.064
		C34.891,66.524,34.69,66.146,34.476,65.801z M35.386,74.355l0.63-0.028c0.093,0.346,0.17,0.728,0.231,1.148
		c0.061,0.42,0.091,0.765,0.091,1.036l-0.658,0.098c0-0.28-0.026-0.635-0.077-1.064S35.479,74.719,35.386,74.355z M41.476,68.447
		v-3.276h-3.668v3.276H41.476z M38.297,74.369l0.63-0.112c0.168,0.346,0.331,0.726,0.49,1.141s0.275,0.763,0.35,1.043l-0.658,0.168
		c-0.065-0.29-0.175-0.646-0.329-1.071C38.626,75.113,38.465,74.724,38.297,74.369z M39.109,68.181l-0.448-0.224
		c0.14-0.205,0.287-0.446,0.441-0.721c0.154-0.275,0.303-0.555,0.448-0.84c0.145-0.285,0.264-0.543,0.357-0.777l0.56,0.238
		c-0.205,0.392-0.429,0.803-0.672,1.232S39.324,67.882,39.109,68.181z M41.182,74.327l0.602-0.224
		c0.242,0.224,0.485,0.476,0.728,0.756c0.242,0.28,0.469,0.555,0.679,0.826c0.21,0.271,0.38,0.513,0.511,0.728l-0.616,0.28
		c-0.122-0.215-0.287-0.46-0.497-0.735c-0.21-0.275-0.436-0.555-0.679-0.84C41.667,74.833,41.424,74.57,41.182,74.327z"/>
	<path fill="#999999" d="M50.744,70.267h-0.574v-1.358h-4.116v1.358h-0.56v-1.904h0.798v-3.822h3.654v3.822h0.798V70.267z
		 M49.945,70.043v5.894c0,0.345-0.112,0.56-0.336,0.644c-0.131,0.046-0.315,0.074-0.553,0.084c-0.238,0.009-0.553,0.014-0.945,0.014
		c-0.009-0.075-0.037-0.163-0.084-0.266c-0.047-0.103-0.093-0.196-0.14-0.28c0.298,0.009,0.562,0.014,0.791,0.014
		c0.229,0,0.375-0.005,0.441-0.014c0.14,0,0.21-0.065,0.21-0.196v-1.764h-2.45v2.52h-0.602v-6.65H49.945z M46.852,65.101v3.262
		h0.896v-2.156h1.61v-1.106H46.852z M49.33,70.589h-2.45v1.218h2.45V70.589z M46.879,73.627h2.45v-1.26h-2.45V73.627z
		 M49.357,68.363v-1.638h-1.092v1.638H49.357z M55.434,75.811h2.436v0.56h-7.252v-0.56h2.324c-0.037-0.233-0.103-0.492-0.196-0.777
		c-0.093-0.284-0.206-0.543-0.336-0.777l0.532-0.168c0.14,0.243,0.261,0.516,0.364,0.819c0.103,0.304,0.172,0.567,0.21,0.791
		l-0.322,0.112h2.016l-0.28-0.112c0.112-0.233,0.231-0.504,0.357-0.812c0.126-0.308,0.222-0.579,0.287-0.812l0.588,0.21
		c-0.122,0.262-0.245,0.528-0.371,0.798S55.545,75.596,55.434,75.811z M57.799,70.099v0.56h-6.958v-0.56H57.799z M57.226,65.367
		v3.906h-5.88v-3.906h1.722v-1.358h0.56v1.358h1.232v-1.358h0.56v1.358H57.226z M56.917,73.991h-5.264v-2.52h5.264V73.991z
		 M51.905,65.899v1.134h1.218v-1.134H51.905z M51.905,67.579v1.162h1.218v-1.162H51.905z M52.255,71.989v1.484h4.046v-1.484H52.255z
		 M53.627,67.033h1.232v-1.134h-1.232V67.033z M54.859,67.579h-1.232v1.162h1.232V67.579z M56.638,67.033v-1.134h-1.274v1.134
		H56.638z M56.638,68.741v-1.162h-1.274v1.162H56.638z"/>
	<path fill="#999999" d="M61.888,78.373c-0.635-1.027-1.134-2.112-1.498-3.255c-0.364-1.143-0.546-2.396-0.546-3.759
		s0.182-2.618,0.546-3.766c0.364-1.148,0.863-2.235,1.498-3.262l0.504,0.266c-0.607,0.99-1.066,2.061-1.379,3.213
		c-0.313,1.153-0.469,2.335-0.469,3.549s0.156,2.399,0.469,3.556c0.313,1.157,0.772,2.226,1.379,3.206L61.888,78.373z"/>
	<path fill="#999999" d="M71.435,66.123l0.532-0.35c0.476,0.392,0.957,0.831,1.442,1.316s0.933,0.966,1.344,1.442
		c0.41,0.476,0.732,0.91,0.966,1.302l-0.574,0.42c-0.121-0.187-0.261-0.392-0.42-0.616c-0.159-0.224-0.336-0.453-0.532-0.686
		c-1.4,0.084-2.6,0.154-3.598,0.21c-0.999,0.056-1.834,0.105-2.506,0.147c-0.672,0.042-1.218,0.079-1.638,0.112
		s-0.749,0.061-0.987,0.084c-0.238,0.023-0.416,0.047-0.532,0.07c-0.117,0.023-0.212,0.049-0.287,0.077
		c-0.009-0.075-0.035-0.182-0.077-0.322c-0.042-0.14-0.086-0.257-0.133-0.35c0.131-0.028,0.294-0.119,0.49-0.273
		c0.196-0.154,0.411-0.348,0.644-0.581c0.13-0.112,0.322-0.303,0.574-0.574c0.252-0.271,0.542-0.592,0.868-0.966
		c0.327-0.373,0.66-0.777,1.001-1.211c0.34-0.434,0.656-0.87,0.945-1.309l0.658,0.308C68.99,65.204,68.343,66,67.676,66.76
		c-0.667,0.761-1.333,1.444-1.995,2.051l8.036-0.42c-0.346-0.401-0.716-0.798-1.113-1.19C72.208,66.809,71.818,66.45,71.435,66.123z
		 M65.583,76.693v-5.726h8.652v5.684h-0.686v-0.756h-7.294v0.798H65.583z M73.549,71.625h-7.294v3.612h7.294V71.625z"/>
	<path fill="#999999" d="M82.159,71.317l-0.42,0.518c-0.065-0.149-0.17-0.343-0.315-0.581c-0.145-0.238-0.304-0.492-0.476-0.763
		c-0.173-0.271-0.334-0.522-0.483-0.756v6.93h-0.644v-7.252c-0.168,0.579-0.359,1.15-0.574,1.715
		c-0.215,0.565-0.438,1.09-0.672,1.575s-0.471,0.9-0.714,1.246c-0.047-0.084-0.11-0.182-0.189-0.294
		c-0.08-0.112-0.157-0.201-0.231-0.266c0.308-0.41,0.609-0.926,0.903-1.547c0.294-0.621,0.562-1.288,0.805-2.002
		c0.242-0.714,0.434-1.412,0.574-2.093h-2.002v-0.63h2.1v-3.108h0.644v3.108h1.68v0.63h-1.68v1.162
		c0.103,0.122,0.233,0.296,0.392,0.525c0.158,0.229,0.326,0.469,0.504,0.721c0.177,0.252,0.338,0.485,0.483,0.7
		C81.989,71.07,82.094,71.224,82.159,71.317z M83.895,73.529l0.532,0.308c-0.271,0.401-0.616,0.805-1.036,1.211
		c-0.42,0.406-0.849,0.758-1.288,1.057c-0.065-0.065-0.14-0.135-0.224-0.21s-0.164-0.14-0.238-0.196
		c0.438-0.28,0.866-0.621,1.281-1.022C83.337,74.276,83.662,73.893,83.895,73.529z M90.251,73.123h-3.766v2.786
		c0,0.187-0.023,0.334-0.07,0.441c-0.047,0.107-0.149,0.184-0.308,0.231c-0.159,0.056-0.385,0.088-0.679,0.098
		s-0.674,0.014-1.141,0.014c-0.047-0.177-0.126-0.374-0.238-0.588c0.411,0.009,0.751,0.016,1.022,0.021
		c0.271,0.004,0.453,0.002,0.546-0.007c0.103-0.01,0.168-0.031,0.196-0.063c0.028-0.033,0.042-0.086,0.042-0.161v-2.772h-3.696
		v-0.616h8.092V73.123z M84.833,66.417v-1.176h-2.618v-0.588h8.05v0.588h-2.632v1.176h2.282v3.22h-7.224v-3.22H84.833z
		 M89.565,71.233h-6.552v-0.574h6.552V71.233z M83.293,66.991v2.072h1.568v-2.072H83.293z M87.031,66.417v-1.176h-1.61v1.176H87.031
		z M87.031,66.991h-1.61v2.072h1.61V66.991z M89.299,69.063v-2.072h-1.708v2.072H89.299z M87.829,73.907l0.49-0.322
		c0.243,0.215,0.495,0.453,0.756,0.714c0.261,0.262,0.504,0.518,0.728,0.77s0.406,0.476,0.546,0.672l-0.504,0.378
		c-0.14-0.196-0.32-0.425-0.539-0.686c-0.219-0.261-0.458-0.525-0.714-0.791C88.335,74.376,88.081,74.131,87.829,73.907z"/>
	<path fill="#999999" d="M91.931,78.373l-0.504-0.252c0.606-0.98,1.066-2.049,1.379-3.206c0.313-1.157,0.469-2.343,0.469-3.556
		s-0.157-2.396-0.469-3.549c-0.313-1.153-0.772-2.224-1.379-3.213l0.504-0.266c0.635,1.027,1.134,2.114,1.498,3.262
		c0.364,1.148,0.546,2.403,0.546,3.766s-0.182,2.616-0.546,3.759C93.065,76.261,92.566,77.346,91.931,78.373z"/>
</g>
<g>
	<path fill="#999999" d="M3.899,170.55l-0.602-0.321c0.243-0.299,0.464-0.645,0.665-1.037c0.201-0.392,0.375-0.793,0.525-1.203
		s0.275-0.793,0.378-1.148l0.588,0.21c-0.112,0.364-0.243,0.761-0.392,1.19s-0.32,0.845-0.511,1.246
		C4.359,169.887,4.142,170.242,3.899,170.55z M14.259,159.154v6.104H4.613v-6.104H14.259z M5.271,159.784v2.114h3.878v-2.114H5.271z
		 M5.271,162.5v2.143h3.878V162.5H5.271z M8.253,170.27h3.08c0.252,0,0.438-0.044,0.56-0.133c0.121-0.088,0.208-0.271,0.259-0.546
		c0.051-0.274,0.086-0.692,0.105-1.253c0.093,0.065,0.201,0.121,0.322,0.168c0.121,0.047,0.229,0.08,0.322,0.098
		c-0.037,0.617-0.1,1.09-0.189,1.422c-0.089,0.331-0.236,0.56-0.441,0.686c-0.206,0.126-0.509,0.189-0.91,0.189H8.253
		c-0.653,0-1.097-0.072-1.33-0.217c-0.233-0.146-0.35-0.438-0.35-0.875v-3.066h0.672v3.066c0,0.186,0.061,0.311,0.182,0.371
		C7.549,170.24,7.824,170.27,8.253,170.27z M11.306,167.764l-0.462,0.477c-0.215-0.205-0.49-0.434-0.826-0.686
		s-0.695-0.502-1.078-0.75c-0.383-0.247-0.756-0.464-1.12-0.65l0.448-0.42c0.364,0.187,0.737,0.396,1.12,0.63
		c0.382,0.233,0.744,0.472,1.085,0.714C10.813,167.32,11.091,167.549,11.306,167.764z M13.602,161.898v-2.114H9.793v2.114H13.602z
		 M13.602,164.643V162.5H9.793v2.143H13.602z M12.972,166.896l0.602-0.252c0.28,0.354,0.558,0.742,0.833,1.162
		c0.275,0.42,0.522,0.83,0.742,1.231s0.385,0.761,0.497,1.078l-0.644,0.294c-0.112-0.317-0.273-0.682-0.483-1.092
		c-0.21-0.411-0.451-0.828-0.721-1.254C13.527,167.641,13.251,167.251,12.972,166.896z"/>
	<path fill="#999999" d="M19.916,163.887l-0.378,0.545c-0.168-0.158-0.385-0.33-0.651-0.518c-0.266-0.187-0.551-0.369-0.854-0.546
		c-0.304-0.177-0.604-0.331-0.903-0.462l0.392-0.477c0.289,0.121,0.585,0.269,0.889,0.441c0.303,0.173,0.588,0.346,0.854,0.518
		C19.53,163.563,19.748,163.728,19.916,163.887z M19.72,166.084l0.532,0.378c-0.206,0.485-0.432,0.999-0.679,1.54
		c-0.248,0.541-0.5,1.071-0.756,1.589c-0.257,0.519-0.501,0.987-0.735,1.407l-0.588-0.406c0.214-0.363,0.453-0.798,0.714-1.302
		s0.525-1.036,0.791-1.597C19.265,167.135,19.505,166.598,19.72,166.084z M20.574,160.273l-0.406,0.547
		c-0.159-0.178-0.366-0.367-0.623-0.567s-0.534-0.396-0.833-0.588s-0.593-0.356-0.882-0.497l0.406-0.477
		c0.28,0.141,0.569,0.302,0.868,0.483c0.299,0.183,0.579,0.369,0.84,0.56C20.205,159.926,20.415,160.105,20.574,160.273z
		 M29.113,166.238h-2.814v4.172c0,0.195-0.028,0.348-0.084,0.455c-0.056,0.107-0.163,0.184-0.322,0.23
		c-0.149,0.057-0.374,0.089-0.672,0.098c-0.299,0.01-0.691,0.01-1.176,0c-0.019-0.074-0.049-0.168-0.091-0.279
		s-0.082-0.215-0.119-0.309c0.383,0.01,0.716,0.015,1.001,0.015s0.474,0,0.567,0c0.168-0.009,0.252-0.079,0.252-0.21v-4.172h-2.688
		v-4.69h2.338c0.074-0.261,0.149-0.55,0.224-0.868c0.075-0.316,0.131-0.606,0.168-0.867h-3.738v3.178
		c0,0.598-0.021,1.246-0.063,1.945c-0.042,0.701-0.126,1.412-0.252,2.135c-0.126,0.725-0.313,1.429-0.56,2.115
		c-0.248,0.686-0.576,1.322-0.987,1.91c-0.056-0.047-0.143-0.107-0.259-0.182s-0.212-0.126-0.287-0.154
		c0.401-0.578,0.719-1.197,0.952-1.854c0.233-0.658,0.408-1.333,0.525-2.023s0.191-1.367,0.224-2.03
		c0.033-0.662,0.049-1.283,0.049-1.861v-3.809h8.428v0.631h-3.514l0.224,0.056c-0.084,0.271-0.168,0.556-0.252,0.854
		s-0.164,0.573-0.238,0.825h3.164V166.238z M23.611,167.148l0.63,0.168c-0.233,0.551-0.518,1.099-0.854,1.645
		c-0.336,0.546-0.682,1.011-1.036,1.393c-0.065-0.047-0.156-0.111-0.273-0.195s-0.217-0.145-0.301-0.182
		c0.374-0.373,0.719-0.811,1.036-1.31S23.396,167.662,23.611,167.148z M23.598,162.122v1.47h4.872v-1.47H23.598z M23.598,164.166
		v1.498h4.872v-1.498H23.598z M27.56,167.316l0.574-0.252c0.243,0.279,0.483,0.59,0.721,0.931s0.455,0.675,0.651,1.001
		c0.196,0.326,0.345,0.621,0.448,0.882l-0.616,0.294c-0.093-0.262-0.236-0.558-0.427-0.889c-0.191-0.332-0.404-0.67-0.637-1.016
		C28.04,167.923,27.802,167.605,27.56,167.316z"/>
	<path fill="#999999" d="M43.688,167.189v0.617H31.326v-0.617h5.824v-1.596h-4.648v-0.588h4.648v-1.441h-4.382v-4.467h9.38v4.467
		h-4.34v1.441h4.662v0.588h-4.662v1.596H43.688z M32.012,171.264l-0.588-0.308c0.327-0.271,0.63-0.623,0.91-1.058
		c0.28-0.434,0.509-0.865,0.686-1.295l0.616,0.168c-0.178,0.43-0.406,0.875-0.686,1.338
		C32.669,170.57,32.357,170.956,32.012,171.264z M33.412,162.962h3.738v-3.276h-3.738V162.962z M34.476,160.316l0.49-0.182
		c0.224,0.345,0.434,0.719,0.63,1.119c0.196,0.401,0.326,0.747,0.392,1.036l-0.532,0.224c-0.065-0.299-0.191-0.652-0.378-1.063
		C34.891,161.039,34.69,160.662,34.476,160.316z M35.386,168.87l0.63-0.028c0.093,0.346,0.17,0.729,0.231,1.148
		c0.061,0.42,0.091,0.766,0.091,1.035l-0.658,0.099c0-0.28-0.026-0.635-0.077-1.063C35.551,169.631,35.479,169.234,35.386,168.87z
		 M41.476,162.962v-3.276h-3.668v3.276H41.476z M38.297,168.885l0.63-0.113c0.168,0.346,0.331,0.727,0.49,1.142
		s0.275,0.763,0.35,1.043l-0.658,0.168c-0.065-0.29-0.175-0.646-0.329-1.071C38.626,169.629,38.465,169.238,38.297,168.885z
		 M39.109,162.695l-0.448-0.223c0.14-0.205,0.287-0.446,0.441-0.722c0.154-0.274,0.303-0.556,0.448-0.84
		c0.145-0.284,0.264-0.544,0.357-0.776l0.56,0.237c-0.205,0.392-0.429,0.803-0.672,1.231
		C39.553,162.033,39.324,162.397,39.109,162.695z M41.182,168.842l0.602-0.224c0.242,0.224,0.485,0.476,0.728,0.756
		c0.242,0.28,0.469,0.556,0.679,0.826s0.38,0.513,0.511,0.728l-0.616,0.28c-0.122-0.215-0.287-0.46-0.497-0.735
		s-0.436-0.555-0.679-0.84C41.667,169.349,41.424,169.085,41.182,168.842z"/>
	<path fill="#999999" d="M50.744,164.782h-0.574v-1.358h-4.116v1.358h-0.56v-1.904h0.798v-3.821h3.654v3.821h0.798V164.782z
		 M49.945,164.559v5.894c0,0.345-0.112,0.56-0.336,0.644c-0.131,0.047-0.315,0.074-0.553,0.084c-0.238,0.01-0.553,0.014-0.945,0.014
		c-0.009-0.074-0.037-0.162-0.084-0.266c-0.047-0.103-0.093-0.195-0.14-0.279c0.298,0.009,0.562,0.014,0.791,0.014
		c0.229,0,0.375-0.005,0.441-0.014c0.14,0,0.21-0.066,0.21-0.196v-1.765h-2.45v2.521h-0.602v-6.649H49.945z M46.852,159.616v3.262
		h0.896v-2.155h1.61v-1.106H46.852z M49.33,165.104h-2.45v1.219h2.45V165.104z M46.879,168.143h2.45v-1.261h-2.45V168.143z
		 M49.357,162.878v-1.638h-1.092v1.638H49.357z M55.434,170.326h2.436v0.561h-7.252v-0.561h2.324
		c-0.037-0.233-0.103-0.492-0.196-0.777c-0.093-0.284-0.206-0.543-0.336-0.777l0.532-0.168c0.14,0.243,0.261,0.516,0.364,0.819
		c0.103,0.304,0.172,0.567,0.21,0.791l-0.322,0.112h2.016l-0.28-0.112c0.112-0.233,0.231-0.504,0.357-0.812
		c0.126-0.309,0.222-0.579,0.287-0.813l0.588,0.21c-0.122,0.262-0.245,0.528-0.371,0.798
		C55.665,169.869,55.545,170.111,55.434,170.326z M57.799,164.614v0.56h-6.958v-0.56H57.799z M57.226,159.882v3.906h-5.88v-3.906
		h1.722v-1.358h0.56v1.358h1.232v-1.358h0.56v1.358H57.226z M56.917,168.506h-5.264v-2.52h5.264V168.506z M51.905,160.414v1.134
		h1.218v-1.134H51.905z M51.905,162.094v1.162h1.218v-1.162H51.905z M52.255,166.504v1.484h4.046v-1.484H52.255z M53.627,161.548
		h1.232v-1.134h-1.232V161.548z M54.859,162.094h-1.232v1.162h1.232V162.094z M56.638,161.548v-1.134h-1.274v1.134H56.638z
		 M56.638,163.256v-1.162h-1.274v1.162H56.638z"/>
	<path fill="#999999" d="M71.66,162.402h-4.9c0.429,0.457,0.931,0.898,1.505,1.322c0.574,0.426,1.173,0.811,1.799,1.155
		c0.625,0.346,1.227,0.626,1.806,0.841c-0.084,0.064-0.17,0.148-0.259,0.252c-0.089,0.102-0.156,0.2-0.203,0.293
		c-0.616-0.252-1.258-0.58-1.925-0.986s-1.304-0.856-1.911-1.352c-0.606-0.494-1.134-1.003-1.582-1.525h-0.168v2.939h-0.672v-2.939
		h-0.154c-0.43,0.56-0.945,1.102-1.547,1.623c-0.602,0.523-1.235,0.994-1.897,1.414s-1.307,0.762-1.932,1.022
		c-0.047-0.084-0.115-0.177-0.203-0.28c-0.089-0.102-0.175-0.186-0.259-0.252c0.597-0.224,1.206-0.518,1.827-0.882
		s1.213-0.774,1.778-1.231c0.564-0.457,1.057-0.93,1.477-1.414h-4.872v-0.631h5.782v-1.764c-0.747,0.075-1.505,0.141-2.275,0.196
		s-1.515,0.107-2.233,0.153c-0.009-0.084-0.033-0.182-0.07-0.293c-0.037-0.112-0.075-0.211-0.112-0.295
		c0.803-0.046,1.631-0.102,2.485-0.168c0.854-0.064,1.692-0.145,2.513-0.237s1.584-0.196,2.289-0.308
		c0.705-0.113,1.309-0.238,1.813-0.379l0.56,0.532c-0.569,0.149-1.225,0.282-1.967,0.399c-0.742,0.117-1.519,0.227-2.331,0.328
		v1.834h5.838V162.402z M61.454,171.208v-5.446h8.288v5.418h-0.672v-0.518h-6.958v0.546H61.454z M69.069,166.336h-6.958v1.568h6.958
		V166.336z M62.111,170.088h6.958v-1.638h-6.958V170.088z"/>
	<path fill="#999999" d="M75.874,163.872l-0.378,0.56c-0.168-0.168-0.385-0.343-0.651-0.524c-0.266-0.183-0.553-0.362-0.861-0.539
		s-0.611-0.331-0.91-0.462l0.392-0.49c0.29,0.121,0.588,0.269,0.896,0.441c0.308,0.172,0.595,0.346,0.861,0.518
		C75.488,163.548,75.706,163.713,75.874,163.872z M85.925,163.564h-2.688c0.327,0.644,0.747,1.246,1.26,1.806
		c0.513,0.56,1.055,0.979,1.624,1.26c-0.075,0.065-0.161,0.149-0.259,0.252c-0.098,0.103-0.17,0.196-0.217,0.28
		c-0.374-0.215-0.735-0.488-1.085-0.818c-0.35-0.332-0.674-0.698-0.973-1.1v2.884h-4.536v1.736c0,0.233,0.061,0.385,0.182,0.454
		c0.121,0.07,0.411,0.105,0.868,0.105h3.346c0.242,0,0.427-0.039,0.553-0.119c0.126-0.079,0.212-0.238,0.259-0.476
		c0.047-0.238,0.08-0.595,0.098-1.071c0.084,0.065,0.184,0.119,0.301,0.161c0.116,0.042,0.221,0.077,0.315,0.104
		c-0.028,0.533-0.086,0.945-0.175,1.24c-0.089,0.293-0.233,0.498-0.434,0.615c-0.201,0.117-0.497,0.176-0.889,0.176h-3.374
		c-0.439,0-0.782-0.031-1.029-0.092c-0.248-0.061-0.42-0.18-0.518-0.357c-0.098-0.177-0.147-0.429-0.147-0.756v-4.396
		c-0.607,0.765-1.242,1.372-1.904,1.819c-0.093-0.148-0.224-0.293-0.392-0.434c-0.299,0.691-0.635,1.412-1.008,2.163
		c-0.374,0.751-0.724,1.417-1.05,1.995l-0.588-0.42c0.224-0.364,0.471-0.796,0.742-1.295c0.271-0.5,0.539-1.029,0.805-1.59
		c0.266-0.559,0.511-1.101,0.735-1.623l0.532,0.406l-0.084,0.182c0.513-0.326,1.018-0.772,1.512-1.338
		c0.495-0.564,0.9-1.149,1.218-1.756h-2.73v-0.645h2.59v-1.975h-1.974v-0.615h1.974v-1.792h0.658v1.792h3.178v-1.792h0.658v1.792
		h2.268v0.615h-2.268v1.975h2.646V163.564z M76.545,160.26l-0.406,0.547c-0.159-0.178-0.369-0.365-0.63-0.561
		c-0.261-0.196-0.543-0.39-0.847-0.581c-0.304-0.191-0.6-0.356-0.889-0.497l0.406-0.477c0.289,0.131,0.583,0.287,0.882,0.47
		c0.298,0.183,0.581,0.368,0.847,0.56C76.174,159.912,76.387,160.092,76.545,160.26z M78.631,165.174h4.9
		c-0.392-0.522-0.705-1.059-0.938-1.609h-2.996c-0.122,0.271-0.266,0.541-0.434,0.812S78.818,164.913,78.631,165.174z
		 M82.958,167.555v-1.807h-3.906v1.807H82.958z M79.443,160.945v1.975h3.178v-1.975H79.443z"/>
	<path fill="#999999" d="M93.5,165.748c-0.233,0-0.446-0.088-0.637-0.266s-0.287-0.401-0.287-0.672c0-0.271,0.095-0.492,0.287-0.666
		c0.191-0.172,0.404-0.258,0.637-0.258c0.243,0,0.457,0.086,0.644,0.258c0.187,0.174,0.28,0.395,0.28,0.666
		c0,0.271-0.093,0.494-0.28,0.672C93.957,165.66,93.742,165.748,93.5,165.748z"/>
	<path fill="#999999" d="M105.54,159.574v8.932h-3.22v1.092h-0.658v-10.023H105.54z M104.91,160.204h-2.59v3.444h2.59V160.204z
		 M102.319,167.876h2.59v-3.612h-2.59V167.876z M106.155,159.225h7.126c0,0.168-0.005,0.279-0.014,0.336
		c-0.056,1.035-0.117,1.869-0.182,2.498c-0.065,0.631-0.138,1.109-0.217,1.436c-0.08,0.326-0.18,0.555-0.301,0.686
		c-0.196,0.196-0.458,0.299-0.784,0.309c-0.149,0.01-0.364,0.012-0.644,0.007c-0.28-0.005-0.579-0.017-0.896-0.035
		c-0.01-0.103-0.028-0.21-0.056-0.321c-0.028-0.113-0.075-0.215-0.14-0.309c0.336,0.027,0.646,0.047,0.931,0.057
		c0.285,0.009,0.478,0.014,0.581,0.014c0.214,0,0.369-0.047,0.462-0.141c0.084-0.093,0.159-0.279,0.224-0.56
		c0.065-0.28,0.128-0.69,0.189-1.231c0.061-0.542,0.114-1.246,0.161-2.115h-3.122c-0.112,0.701-0.287,1.368-0.525,2.002
		c-0.238,0.635-0.577,1.209-1.015,1.723c-0.439,0.514-1.022,0.938-1.75,1.273c-0.047-0.074-0.112-0.16-0.196-0.258
		c-0.084-0.099-0.163-0.176-0.238-0.232c0.69-0.298,1.241-0.681,1.652-1.147c0.411-0.466,0.723-0.989,0.938-1.567
		c0.215-0.579,0.369-1.176,0.462-1.793h-2.646V159.225z M106.631,171.193v-5.627h6.482v5.572h-0.658v-0.673h-5.18v0.728H106.631z
		 M112.456,166.195h-5.18v3.641h5.18V166.195z"/>
	<path fill="#999999" d="M117.916,163.887l-0.378,0.545c-0.168-0.158-0.385-0.33-0.651-0.518c-0.266-0.187-0.551-0.369-0.854-0.546
		c-0.304-0.177-0.604-0.331-0.903-0.462l0.392-0.477c0.289,0.121,0.585,0.269,0.889,0.441c0.303,0.173,0.588,0.346,0.854,0.518
		C117.53,163.563,117.748,163.728,117.916,163.887z M117.72,166.084l0.532,0.378c-0.206,0.485-0.432,0.999-0.679,1.54
		c-0.248,0.541-0.5,1.071-0.756,1.589c-0.257,0.519-0.501,0.987-0.735,1.407l-0.588-0.406c0.214-0.363,0.453-0.798,0.714-1.302
		s0.525-1.036,0.791-1.597C117.265,167.135,117.505,166.598,117.72,166.084z M118.574,160.273l-0.406,0.547
		c-0.159-0.178-0.366-0.367-0.623-0.567s-0.534-0.396-0.833-0.588s-0.593-0.356-0.882-0.497l0.406-0.477
		c0.28,0.141,0.569,0.302,0.868,0.483c0.299,0.183,0.579,0.369,0.84,0.56C118.205,159.926,118.415,160.105,118.574,160.273z
		 M127.113,166.238h-2.814v4.172c0,0.195-0.028,0.348-0.084,0.455c-0.056,0.107-0.163,0.184-0.322,0.23
		c-0.149,0.057-0.374,0.089-0.672,0.098c-0.299,0.01-0.691,0.01-1.176,0c-0.019-0.074-0.049-0.168-0.091-0.279
		s-0.082-0.215-0.119-0.309c0.383,0.01,0.716,0.015,1.001,0.015s0.474,0,0.567,0c0.168-0.009,0.252-0.079,0.252-0.21v-4.172h-2.688
		v-4.69h2.338c0.074-0.261,0.149-0.55,0.224-0.868c0.075-0.316,0.131-0.606,0.168-0.867h-3.738v3.178
		c0,0.598-0.021,1.246-0.063,1.945c-0.042,0.701-0.126,1.412-0.252,2.135c-0.126,0.725-0.313,1.429-0.56,2.115
		c-0.248,0.686-0.576,1.322-0.987,1.91c-0.056-0.047-0.143-0.107-0.259-0.182s-0.212-0.126-0.287-0.154
		c0.401-0.578,0.719-1.197,0.952-1.854c0.233-0.658,0.408-1.333,0.525-2.023s0.191-1.367,0.224-2.03
		c0.033-0.662,0.049-1.283,0.049-1.861v-3.809h8.428v0.631h-3.514l0.224,0.056c-0.084,0.271-0.168,0.556-0.252,0.854
		s-0.164,0.573-0.238,0.825h3.164V166.238z M121.611,167.148l0.63,0.168c-0.233,0.551-0.518,1.099-0.854,1.645
		c-0.336,0.546-0.682,1.011-1.036,1.393c-0.065-0.047-0.156-0.111-0.273-0.195s-0.217-0.145-0.301-0.182
		c0.374-0.373,0.719-0.811,1.036-1.31S121.396,167.662,121.611,167.148z M121.598,162.122v1.47h4.872v-1.47H121.598z
		 M121.598,164.166v1.498h4.872v-1.498H121.598z M125.56,167.316l0.574-0.252c0.243,0.279,0.483,0.59,0.721,0.931
		s0.455,0.675,0.651,1.001c0.196,0.326,0.345,0.621,0.448,0.882l-0.616,0.294c-0.093-0.262-0.236-0.558-0.427-0.889
		c-0.191-0.332-0.404-0.67-0.637-1.016C126.04,167.923,125.802,167.605,125.56,167.316z"/>
	<path fill="#999999" d="M141.688,167.189v0.617h-12.362v-0.617h5.824v-1.596h-4.648v-0.588h4.648v-1.441h-4.382v-4.467h9.38v4.467
		h-4.34v1.441h4.662v0.588h-4.662v1.596H141.688z M130.012,171.264l-0.588-0.308c0.327-0.271,0.63-0.623,0.91-1.058
		c0.28-0.434,0.509-0.865,0.686-1.295l0.616,0.168c-0.178,0.43-0.406,0.875-0.686,1.338
		C130.669,170.57,130.357,170.956,130.012,171.264z M131.412,162.962h3.738v-3.276h-3.738V162.962z M132.476,160.316l0.49-0.182
		c0.224,0.345,0.434,0.719,0.63,1.119c0.196,0.401,0.326,0.747,0.392,1.036l-0.532,0.224c-0.065-0.299-0.191-0.652-0.378-1.063
		C132.891,161.039,132.69,160.662,132.476,160.316z M133.386,168.87l0.63-0.028c0.093,0.346,0.17,0.729,0.231,1.148
		c0.061,0.42,0.091,0.766,0.091,1.035l-0.658,0.099c0-0.28-0.026-0.635-0.077-1.063C133.551,169.631,133.479,169.234,133.386,168.87
		z M139.476,162.962v-3.276h-3.668v3.276H139.476z M136.297,168.885l0.63-0.113c0.168,0.346,0.331,0.727,0.49,1.142
		s0.275,0.763,0.35,1.043l-0.658,0.168c-0.065-0.29-0.175-0.646-0.329-1.071C136.626,169.629,136.465,169.238,136.297,168.885z
		 M137.109,162.695l-0.448-0.223c0.14-0.205,0.287-0.446,0.441-0.722c0.154-0.274,0.303-0.556,0.448-0.84
		c0.145-0.284,0.264-0.544,0.357-0.776l0.56,0.237c-0.205,0.392-0.429,0.803-0.672,1.231
		C137.553,162.033,137.324,162.397,137.109,162.695z M139.182,168.842l0.602-0.224c0.242,0.224,0.485,0.476,0.728,0.756
		c0.242,0.28,0.469,0.556,0.679,0.826s0.38,0.513,0.511,0.728l-0.616,0.28c-0.122-0.215-0.287-0.46-0.497-0.735
		s-0.436-0.555-0.679-0.84C139.667,169.349,139.424,169.085,139.182,168.842z"/>
	<path fill="#999999" d="M148.744,164.782h-0.574v-1.358h-4.116v1.358h-0.56v-1.904h0.798v-3.821h3.654v3.821h0.798V164.782z
		 M147.945,164.559v5.894c0,0.345-0.112,0.56-0.336,0.644c-0.131,0.047-0.315,0.074-0.553,0.084
		c-0.238,0.01-0.553,0.014-0.945,0.014c-0.009-0.074-0.037-0.162-0.084-0.266c-0.047-0.103-0.093-0.195-0.14-0.279
		c0.298,0.009,0.562,0.014,0.791,0.014c0.229,0,0.375-0.005,0.441-0.014c0.14,0,0.21-0.066,0.21-0.196v-1.765h-2.45v2.521h-0.602
		v-6.649H147.945z M144.852,159.616v3.262h0.896v-2.155h1.61v-1.106H144.852z M147.33,165.104h-2.45v1.219h2.45V165.104z
		 M144.879,168.143h2.45v-1.261h-2.45V168.143z M147.357,162.878v-1.638h-1.092v1.638H147.357z M153.434,170.326h2.436v0.561h-7.252
		v-0.561h2.324c-0.037-0.233-0.103-0.492-0.196-0.777c-0.093-0.284-0.206-0.543-0.336-0.777l0.532-0.168
		c0.14,0.243,0.261,0.516,0.364,0.819c0.103,0.304,0.172,0.567,0.21,0.791l-0.322,0.112h2.016l-0.28-0.112
		c0.112-0.233,0.231-0.504,0.357-0.812c0.126-0.309,0.222-0.579,0.287-0.813l0.588,0.21c-0.122,0.262-0.245,0.528-0.371,0.798
		C153.665,169.869,153.545,170.111,153.434,170.326z M155.799,164.614v0.56h-6.958v-0.56H155.799z M155.226,159.882v3.906h-5.88
		v-3.906h1.722v-1.358h0.56v1.358h1.232v-1.358h0.56v1.358H155.226z M154.917,168.506h-5.264v-2.52h5.264V168.506z M149.905,160.414
		v1.134h1.218v-1.134H149.905z M149.905,162.094v1.162h1.218v-1.162H149.905z M150.255,166.504v1.484h4.046v-1.484H150.255z
		 M151.627,161.548h1.232v-1.134h-1.232V161.548z M152.859,162.094h-1.232v1.162h1.232V162.094z M154.638,161.548v-1.134h-1.274
		v1.134H154.638z M154.638,163.256v-1.162h-1.274v1.162H154.638z"/>
</g>
<g>
</g>
<g>
</g>
<g>
</g>
<g>
</g>
<g>
</g>
<g>
</g>
</svg>
