<?xml version="1.0" encoding="utf-8"?>
<!-- Generator: Adobe Illustrator 16.0.0, SVG Export Plug-In . SVG Version: 6.00 Build 0)  -->
<!DOCTYPE svg PUBLIC "-//W3C//DTD SVG 1.1//EN" "http://www.w3.org/Graphics/SVG/1.1/DTD/svg11.dtd">
<svg version="1.1" id="Layer_2" xmlns="http://www.w3.org/2000/svg" xmlns:xlink="http://www.w3.org/1999/xlink" x="0px" y="0px"
	 width="481.5px" height="175.5px" viewBox="0 0 481.5 175.5" enable-background="new 0 0 481.5 175.5" xml:space="preserve">
<circle fill="#85D5F7" cx="49" cy="39.667" r="9"/>
<circle fill="#85D5F7" cx="73.333" cy="24.993" r="9"/>
<circle fill="#85D5F7" cx="96" cy="25.674" r="9"/>
<circle fill="#85D5F7" cx="140" cy="54.007" r="9"/>
<ellipse fill="#85D5F7" cx="189.5" cy="19.302" rx="17" ry="9"/>
<circle fill="#85D5F7" cx="249" cy="19.302" r="9"/>
<circle fill="#85D5F7" cx="274.08" cy="19.302" r="9"/>
<circle fill="#85D5F7" cx="334.848" cy="15.993" r="9"/>
<circle fill="#85D5F7" cx="370.5" cy="48.667" r="9"/>
<circle fill="#85D5F7" cx="418" cy="54.007" r="9"/>
<g>
	<path fill="#999999" d="M7.928,159.916v8.834H4.61v1.121H4.204v-9.955H7.928z M7.522,160.322H4.61v3.725h2.912V160.322z
		 M4.61,168.345h2.912v-3.892H4.61V168.345z M8.586,159.58h7.112c0,0.131-0.005,0.22-0.014,0.267
		c-0.065,1.055-0.131,1.895-0.196,2.521c-0.065,0.625-0.14,1.098-0.224,1.42s-0.187,0.549-0.308,0.68
		c-0.159,0.158-0.392,0.238-0.7,0.238c-0.149,0.009-0.366,0.009-0.651,0c-0.285-0.01-0.576-0.023-0.875-0.043
		c-0.009-0.064-0.023-0.133-0.042-0.203c-0.019-0.069-0.051-0.137-0.098-0.203c0.355,0.038,0.681,0.059,0.98,0.063
		s0.5,0.007,0.602,0.007c0.121,0,0.215-0.007,0.28-0.021c0.065-0.015,0.126-0.05,0.182-0.104c0.093-0.094,0.177-0.29,0.252-0.589
		c0.074-0.298,0.145-0.739,0.21-1.323c0.065-0.582,0.126-1.351,0.182-2.303h-3.402c-0.112,0.7-0.29,1.375-0.532,2.023
		c-0.243,0.648-0.586,1.236-1.029,1.764s-1.029,0.959-1.757,1.295c-0.038-0.037-0.086-0.086-0.147-0.146
		c-0.061-0.061-0.115-0.105-0.161-0.133c0.709-0.309,1.279-0.717,1.708-1.226s0.761-1.071,0.994-1.687
		c0.233-0.617,0.401-1.246,0.504-1.891h-2.87V159.58z M9.09,171.467v-5.572h6.454v5.516h-0.406v-0.714H9.496v0.771H9.09z
		 M15.138,166.301H9.496v3.99h5.642V166.301z"/>
	<path fill="#999999" d="M20.346,164.313l-0.238,0.336c-0.261-0.242-0.621-0.508-1.078-0.798c-0.457-0.289-0.91-0.536-1.358-0.742
		l0.252-0.308c0.299,0.131,0.602,0.282,0.91,0.455c0.308,0.172,0.595,0.352,0.861,0.539
		C19.961,163.981,20.178,164.154,20.346,164.313z M20.374,166.469l0.322,0.252c-0.205,0.485-0.438,1.001-0.7,1.547
		c-0.262,0.546-0.527,1.08-0.798,1.604c-0.271,0.521-0.528,0.988-0.77,1.399l-0.35-0.28c0.224-0.363,0.471-0.8,0.742-1.309
		c0.271-0.509,0.542-1.045,0.812-1.61C19.903,167.507,20.15,166.973,20.374,166.469z M20.99,160.701l-0.252,0.336
		c-0.168-0.178-0.383-0.369-0.644-0.574c-0.262-0.205-0.542-0.406-0.84-0.603s-0.593-0.368-0.882-0.519l0.266-0.279
		c0.289,0.141,0.585,0.306,0.889,0.497s0.583,0.385,0.84,0.581C20.624,160.336,20.831,160.523,20.99,160.701z M29.53,166.426h-2.912
		v4.453c0,0.158-0.026,0.277-0.077,0.356s-0.143,0.138-0.273,0.175c-0.14,0.037-0.357,0.061-0.651,0.07s-0.688,0.01-1.183,0
		c-0.009-0.047-0.03-0.105-0.063-0.175c-0.033-0.07-0.063-0.138-0.091-0.203c0.42,0.009,0.782,0.015,1.085,0.015
		c0.303,0,0.501,0,0.595,0c0.168-0.01,0.252-0.09,0.252-0.238v-4.453h-2.814v-4.605h2.408c0.093-0.279,0.184-0.6,0.273-0.959
		c0.088-0.359,0.156-0.674,0.203-0.945h-4.018v3.402c0,0.598-0.021,1.242-0.063,1.932c-0.042,0.691-0.126,1.394-0.252,2.107
		s-0.313,1.414-0.56,2.1c-0.248,0.687-0.577,1.323-0.987,1.912c-0.037-0.047-0.091-0.092-0.161-0.134
		c-0.07-0.042-0.128-0.072-0.175-0.091c0.401-0.578,0.721-1.201,0.959-1.869c0.238-0.667,0.416-1.346,0.532-2.037
		c0.117-0.69,0.193-1.369,0.231-2.037c0.037-0.667,0.056-1.295,0.056-1.883v-3.809h8.358v0.406h-3.738L26.716,160
		c-0.084,0.29-0.17,0.598-0.259,0.924c-0.089,0.328-0.175,0.626-0.259,0.896h3.332V166.426z M24.154,167.435l0.406,0.112
		c-0.252,0.56-0.553,1.11-0.903,1.652c-0.35,0.541-0.703,1.002-1.057,1.385c-0.038-0.027-0.096-0.069-0.175-0.125
		c-0.079-0.057-0.142-0.099-0.189-0.127c0.374-0.383,0.728-0.828,1.064-1.336C23.636,168.486,23.92,167.967,24.154,167.435z
		 M23.804,162.227v1.666h5.32v-1.666H23.804z M23.804,164.313v1.693h5.32v-1.693H23.804z M28.102,167.533l0.35-0.169
		c0.261,0.29,0.52,0.604,0.777,0.945c0.256,0.341,0.488,0.677,0.693,1.008s0.364,0.628,0.476,0.89l-0.378,0.209
		c-0.103-0.261-0.257-0.56-0.462-0.896c-0.206-0.336-0.434-0.679-0.686-1.028C28.62,168.142,28.363,167.822,28.102,167.533z"/>
	<path fill="#999999" d="M38.182,167.603h6.006v0.405H31.826v-0.405h5.95v-1.834H33.03v-0.406h4.746v-1.638H33.31v-4.242h9.268
		v4.242h-4.396v1.638h4.746v0.406h-4.746V167.603z M32.302,171.551l-0.322-0.211c0.327-0.279,0.635-0.637,0.924-1.07
		c0.29-0.434,0.523-0.865,0.7-1.295l0.364,0.084c-0.187,0.43-0.422,0.875-0.707,1.337C32.976,170.857,32.657,171.242,32.302,171.551
		z M33.716,163.318h4.06v-3.43h-4.06V163.318z M34.962,160.533l0.35-0.141c0.243,0.346,0.467,0.729,0.672,1.148
		s0.345,0.779,0.42,1.078l-0.378,0.168c-0.075-0.299-0.212-0.663-0.413-1.093C35.412,161.266,35.195,160.878,34.962,160.533z
		 M35.97,169.17l0.392-0.014c0.093,0.355,0.17,0.74,0.231,1.155c0.061,0.415,0.091,0.759,0.091,1.028l-0.392,0.07
		c-0.009-0.279-0.042-0.632-0.098-1.057C36.138,169.929,36.063,169.535,35.97,169.17z M42.172,163.318v-3.43h-3.99v3.43H42.172z
		 M38.91,169.17l0.378-0.069c0.177,0.345,0.348,0.728,0.511,1.147c0.164,0.42,0.282,0.766,0.357,1.037l-0.378,0.111
		c-0.075-0.289-0.196-0.645-0.364-1.064S39.078,169.525,38.91,169.17z M39.484,162.996l-0.308-0.168
		c0.149-0.215,0.311-0.464,0.483-0.748c0.172-0.285,0.336-0.576,0.49-0.875c0.154-0.299,0.282-0.564,0.385-0.799l0.406,0.196
		c-0.215,0.401-0.455,0.823-0.721,1.267C39.953,162.313,39.708,162.688,39.484,162.996z M41.836,169.143l0.35-0.154
		c0.252,0.225,0.501,0.475,0.749,0.749c0.247,0.275,0.48,0.546,0.7,0.812c0.219,0.267,0.395,0.507,0.525,0.722l-0.364,0.21
		c-0.121-0.215-0.289-0.457-0.504-0.729c-0.215-0.27-0.448-0.548-0.7-0.832C42.34,169.635,42.088,169.376,41.836,169.143z"/>
	<path fill="#999999" d="M51.118,165.055h-0.406v-1.428h-4.256v1.428H46.05v-1.848h0.798v-3.781h3.472v3.781h0.798V165.055z
		 M50.334,164.9v6.006c0,0.149-0.021,0.262-0.063,0.336s-0.124,0.131-0.245,0.168s-0.299,0.059-0.532,0.063
		c-0.233,0.005-0.556,0.007-0.966,0.007c-0.009-0.047-0.033-0.105-0.07-0.175c-0.038-0.07-0.075-0.134-0.112-0.188
		c0.336,0.008,0.63,0.014,0.882,0.014s0.411-0.006,0.476-0.014c0.149-0.01,0.224-0.08,0.224-0.211v-1.974h-2.702v2.548H46.82v-6.58
		H50.334z M49.928,165.307h-2.702v1.372h2.702V165.307z M47.226,168.526h2.702v-1.428h-2.702V168.526z M47.254,159.832v3.375h0.994
		v-2.129h1.666v-1.246H47.254z M49.914,163.207v-1.723h-1.246v1.723H49.914z M51.034,170.725h7.308v0.406h-7.308V170.725z
		 M58.286,165.013v0.405H51.23v-0.405H58.286z M57.628,160.28v3.808H51.79v-3.808h1.778v-1.399h0.406v1.399h1.4v-1.399h0.406v1.399
		H57.628z M57.292,166.328v2.479H52.14v-2.479H57.292z M52.21,160.687v1.274h1.358v-1.274H52.21z M52.21,162.381v1.302h1.358v-1.302
		H52.21z M56.886,168.4v-1.666h-4.34v1.666H56.886z M53.89,170.57l-0.406,0.126c-0.028-0.233-0.089-0.501-0.182-0.805
		s-0.205-0.581-0.336-0.833l0.378-0.098c0.14,0.242,0.256,0.516,0.35,0.818C53.787,170.083,53.853,170.347,53.89,170.57z
		 M53.974,161.961h1.4v-1.274h-1.4V161.961z M55.374,162.381h-1.4v1.302h1.4V162.381z M55.766,170.711l-0.336-0.154
		c0.112-0.225,0.231-0.492,0.357-0.805s0.222-0.582,0.287-0.806l0.392,0.183c-0.112,0.262-0.231,0.537-0.357,0.826
		S55.869,170.496,55.766,170.711z M57.208,161.961v-1.274H55.78v1.274H57.208z M57.208,163.683v-1.302H55.78v1.302H57.208z"/>
</g>
<g>
	<path d="M19.717,7.031c-1.633,4.317-3.733,8.692-6.066,12.717v38.967H9.508V26.106c-1.808,2.625-3.792,4.958-5.775,7
		c-0.408-0.992-1.633-3.208-2.45-4.2C7,23.307,12.425,14.615,15.692,5.748L19.717,7.031z M47.484,54.34c3.5,0,4.142-1.575,4.608-8.4
		c1.05,0.7,2.742,1.4,3.966,1.634c-0.758,8.108-2.1,10.675-8.458,10.675H32.259c-6.883,0-8.925-1.633-8.925-8.05V31.065
		l-5.775,2.217l-1.633-3.792l7.409-2.917V11.406h4.142V24.94l8.517-3.325V5.631h3.967v14.467l9.684-3.733l0.816-0.642l3.208,0.992
		l-0.175,0.816c-0.175,8.4-0.758,19.542-1.692,26.426l-3.558-1.05c0.583-5.483,0.933-14.409,1.05-21.992l-9.333,3.617v21.351h-3.967
		V26.106l-8.517,3.325v20.767c0,3.383,0.758,4.142,4.842,4.142H47.484z"/>
	<path d="M66.909,27.798H63V14.79h22.109v-4.083H65.975V7.148h42.817v3.558H89.367v4.083h22.634v13.009h-4.083v-9.684h-18.55v15.167
		h-4.258V18.115h-18.2V27.798z M112.759,48.157h-6.883v9.042H69.767v-3.617h31.851v-5.425H63.292v-3.441h38.326v-5.309H69.592V35.79
		h36.284v8.925h6.883V48.157z M68.192,30.598c3.617-0.816,8.809-2.275,14-3.733l0.408,2.8c-4.608,1.458-9.159,2.975-13.009,4.142
		L68.192,30.598z M70.875,20.098c3.675,0.7,8.633,1.925,11.2,3.092l-1.225,2.625c-2.625-1.167-7.467-2.625-11.259-3.383
		L70.875,20.098z M106.284,33.865c-3.267-1.458-9.567-3.558-14.467-4.667l1.225-2.508c4.725,0.992,11.025,2.975,14.35,4.433
		L106.284,33.865z M105.526,22.432c-3.325,1.458-8.108,2.566-11.375,3.267l-1.575-2.217c3.325-0.758,8.167-2.45,11.083-3.559
		L105.526,22.432z"/>
	<path d="M157.909,28.381c3.675,4.55,9.509,8.692,15.109,10.734c-0.934,0.816-2.159,2.333-2.8,3.441
		c-6.417-2.742-12.95-8.225-16.8-14.175H138.25c-3.908,6.3-10.208,11.317-16.567,14.642c-0.583-0.875-2.217-2.45-3.15-3.208
		c5.833-2.625,11.258-6.592,14.7-11.434h-13.067v-4.025h14.175v-7.7H123.9v-4.025h10.442V5.456h4.258v7.175h14.292V5.456h4.258
		v7.175h10.617v4.025h-10.617v7.7h14.525v4.025H157.909z M123.784,51.249c3.559-3.208,6.358-8.458,8.05-12.775l3.617,1.517
		c-1.867,4.433-4.492,9.917-8.108,13.417L123.784,51.249z M138.601,24.356h14.292v-7.7h-14.292V24.356z M140.001,33.515h4.258
		v25.317h-4.258V33.515z M151.026,39.115c1.692,3.967,3.325,9.1,3.967,12.542l-3.675,0.934c-0.583-3.442-2.275-8.692-3.85-12.717
		L151.026,39.115z M158.435,37.015c3.675,4.316,7.467,10.208,9.042,14.233l-3.617,1.692c-1.633-4.025-5.308-10.092-8.925-14.467
		L158.435,37.015z"/>
	<path d="M201.834,15.898l2.508-0.117l-0.059,4.025l-2.45,0.175v0.292c0,7.117-0.642,16.159-6.067,24.617
		c2.858,2.567,5.425,5.017,7.233,7l-3.208,3.384c-1.633-1.925-3.967-4.317-6.592-6.825c-3.092,3.733-7.233,7.292-12.892,10.383
		c-0.642-1.05-1.983-2.508-3.034-3.267c5.6-3.034,9.684-6.475,12.601-10.092c-3.267-2.917-6.884-5.833-10.092-8.225
		c1.342-4.2,2.684-10.034,3.909-16.159l-6.008,0.408l-0.525-4.317l7.35-0.35c0.583-3.85,1.167-7.7,1.458-11.083l4.492,0.292
		c-0.408,3.325-0.992,6.942-1.575,10.559l8.691-0.467v-2.858h4.259V15.898z M188.067,20.856c-1.05,5.425-2.275,10.733-3.442,15.108
		c2.509,1.867,5.134,3.967,7.7,6.067c4.725-7.525,5.25-15.458,5.25-21.817L188.067,20.856z M227.501,11.814v44.684h-4.258v-3.5
		h-12.601v4.317H206.5V11.814H227.501z M223.243,48.857v-32.9h-12.601v32.9H223.243z"/>
	<path d="M283.15,54.632c1.926,0,2.275-0.7,2.509-4.842c0.875,0.583,2.509,1.108,3.617,1.4c-0.467,5.542-1.692,7-5.717,7h-9.742
		c-5.366,0-6.708-1.167-6.708-5.309V41.974h-14.584v3.85h12.367v3.091h-12.367v5.017l12.426-1.342
		c-0.117,0.933-0.117,2.333-0.059,3.15c-14.351,1.809-16.158,2.1-17.326,2.684c-0.116-0.992-0.699-2.684-1.225-3.442
		c0.934-0.233,2.1-0.642,2.1-2.566V41.974h-4.316c-0.583,5.775-1.983,12.25-5.425,17.092c-0.7-0.817-2.45-2.217-3.267-2.625
		c4.375-6.242,4.9-14.817,4.9-21V25.407h20.942c-0.291-0.642-0.642-1.342-0.991-1.925v0.292h-3.909v-7.642h-12.308v7.758h-3.792
		v-10.5h20.009v8.809l3.208-1.05c0.875,1.225,1.809,2.917,2.393,4.259h21.699v3.208h-15.517v3.15h13.942v10.208h-14.875v3.85h14.232
		v3.091h-14.232v4.025c0,1.4,0.466,1.691,3.033,1.691H283.15z M261.509,10.765H238.35V7.673h23.159V10.765z M244.417,35.557
		c0,1.108,0,2.217-0.058,3.442h9.742V34.74h-9.684V35.557z M244.417,28.615v3.15h9.684v-3.15H244.417z M254.917,18.931v2.684h-9.625
		v-2.684H254.917z M268.101,28.615h-10.092v3.15h10.092V28.615z M268.101,38.999V34.74h-10.092v4.259H268.101z M287.76,10.765
		h-23.393V7.673h23.393V10.765z M282.159,23.773v-7.642h-12.658v7.758h-3.792v-10.5h20.417v10.383H282.159z M270.959,21.615v-2.684
		h9.625v2.684H270.959z M272.067,34.74v4.259h9.917V34.74H272.067z"/>
	<path d="M317.393,28.79c-0.525,18.842-0.934,25.2-2.45,27.242c-0.933,1.283-1.925,1.691-3.442,1.867
		c-1.283,0.175-3.558,0.175-5.833,0.058c-0.116-1.283-0.466-2.975-1.167-4.083c2.217,0.175,4.201,0.233,5.076,0.233
		c0.816,0,1.283-0.175,1.75-0.758c0.991-1.283,1.458-6.883,1.866-22.517h-7.934c-0.759,11.375-2.741,21.525-8.458,28
		c-0.7-0.992-2.217-2.45-3.268-3.092c7-7.758,7.759-21.875,7.992-36.576h-7.059V15.14h25.084v4.025h-13.825
		c-0.059,2.567-0.116,5.134-0.233,7.642h11.9V28.79z M307.242,14.906c-0.758-2.217-2.858-5.717-4.783-8.283l3.791-1.458
		c1.984,2.508,4.143,5.833,4.959,8.05L307.242,14.906z M347.668,15.898v4.025h-20.533c-1.926,3.733-4.025,7.059-6.359,9.684
		c-0.816-0.992-2.158-2.275-3.383-3.033c4.55-4.784,8.691-13.125,10.791-21.234l4.201,1.108c-0.934,3.208-2.101,6.417-3.384,9.45
		H347.668z M326.025,43.607c6.359,3.15,14.701,8.05,18.784,11.55l-2.976,3.792c-3.85-3.559-12.074-8.75-18.55-12.075L326.025,43.607
		z M329.584,26.865c4.259,2.625,9.859,6.592,12.601,9.159l-2.917,3.325c-2.625-2.567-8.166-6.708-12.425-9.567L329.584,26.865z"/>
	<path d="M378.525,44.54l0.992,4.2c-8.926,3.559-18.492,7.35-25.609,10.092l-1.809-4.434c4.317-1.517,10.326-3.675,16.625-6.066
		V27.915h-14.758v-4.434h14.758V6.623h4.434V46.64L378.525,44.54z M398.476,53.232c2.509,0,2.858-2.392,3.209-11.784
		c1.108,0.934,2.916,1.75,4.2,2.042c-0.525,10.325-1.692,14-7.117,14h-8.983c-5.309,0-6.767-1.75-6.767-7.875V6.681h4.375v19.95
		c5.425-2.625,10.967-5.833,14.525-8.575l2.975,3.5c-4.667,3.208-11.434,6.358-17.5,9.1v19.075c0,2.917,0.467,3.5,2.916,3.5H398.476
		z"/>
	<path d="M460.252,17.531v41.067h-4.434v-4.316H414.81V17.59h4.433v32.317h15.984V6.214h4.433v43.692h16.159V17.531H460.252z"/>
</g>
<g>
	<path fill="#999999" d="M4.218,76.893l-0.364-0.182c0.252-0.299,0.478-0.649,0.679-1.05c0.2-0.401,0.378-0.814,0.532-1.239
		c0.154-0.425,0.278-0.81,0.371-1.155L5.8,73.393c-0.112,0.364-0.245,0.759-0.399,1.183c-0.154,0.425-0.329,0.84-0.525,1.246
		C4.68,76.229,4.46,76.585,4.218,76.893z M14.718,65.553v5.978H5.156v-5.978H14.718z M5.562,65.959v2.366h4.214v-2.366H5.562z
		 M5.562,68.731v2.394h4.214v-2.394H5.562z M8.572,76.795h3.36c0.261,0,0.457-0.047,0.588-0.14c0.13-0.093,0.224-0.285,0.28-0.574
		c0.056-0.289,0.093-0.728,0.112-1.316c0.065,0.047,0.133,0.084,0.203,0.112c0.07,0.028,0.137,0.051,0.203,0.07
		c-0.028,0.607-0.079,1.073-0.154,1.4s-0.203,0.551-0.385,0.672c-0.182,0.121-0.459,0.182-0.833,0.182H8.614
		c-0.588,0-0.987-0.054-1.197-0.161c-0.21-0.107-0.315-0.348-0.315-0.721v-3.262h0.406v3.276c0,0.177,0.065,0.298,0.196,0.364
		C7.834,76.763,8.124,76.795,8.572,76.795z M11.694,74.233l-0.28,0.294c-0.215-0.205-0.495-0.434-0.84-0.686
		c-0.346-0.252-0.717-0.504-1.113-0.756c-0.397-0.252-0.782-0.476-1.155-0.672l0.28-0.252c0.373,0.187,0.756,0.401,1.148,0.644
		c0.392,0.243,0.761,0.488,1.106,0.735C11.185,73.788,11.47,74.019,11.694,74.233z M14.312,68.325v-2.366h-4.13v2.366H14.312z
		 M14.312,71.125v-2.394h-4.13v2.394H14.312z M13.556,73.197l0.364-0.154c0.289,0.364,0.576,0.758,0.861,1.183
		c0.285,0.425,0.542,0.84,0.77,1.246c0.229,0.406,0.399,0.763,0.511,1.071l-0.392,0.196c-0.121-0.317-0.292-0.681-0.511-1.092
		c-0.22-0.411-0.469-0.831-0.749-1.26C14.13,73.958,13.845,73.562,13.556,73.197z"/>
	<path fill="#999999" d="M20.346,70.341l-0.238,0.336c-0.261-0.243-0.621-0.508-1.078-0.798c-0.457-0.289-0.91-0.537-1.358-0.742
		l0.252-0.308c0.299,0.131,0.602,0.283,0.91,0.455c0.308,0.173,0.595,0.353,0.861,0.539C19.961,70.01,20.178,70.183,20.346,70.341z
		 M20.374,72.497l0.322,0.252c-0.205,0.485-0.438,1.001-0.7,1.547c-0.262,0.546-0.527,1.08-0.798,1.603
		c-0.271,0.522-0.528,0.989-0.77,1.4l-0.35-0.28c0.224-0.364,0.471-0.8,0.742-1.309c0.271-0.509,0.542-1.045,0.812-1.61
		C19.903,73.536,20.15,73.001,20.374,72.497z M20.99,66.729l-0.252,0.336c-0.168-0.177-0.383-0.369-0.644-0.574
		c-0.262-0.205-0.542-0.406-0.84-0.602c-0.299-0.196-0.593-0.369-0.882-0.518l0.266-0.28c0.289,0.14,0.585,0.306,0.889,0.497
		s0.583,0.385,0.84,0.581C20.624,66.365,20.831,66.552,20.99,66.729z M29.53,72.455h-2.912v4.452c0,0.159-0.026,0.278-0.077,0.357
		s-0.143,0.138-0.273,0.175c-0.14,0.037-0.357,0.061-0.651,0.07s-0.688,0.009-1.183,0c-0.009-0.047-0.03-0.105-0.063-0.175
		c-0.033-0.07-0.063-0.138-0.091-0.203c0.42,0.009,0.782,0.014,1.085,0.014c0.303,0,0.501,0,0.595,0
		c0.168-0.01,0.252-0.089,0.252-0.238v-4.452h-2.814v-4.606h2.408c0.093-0.28,0.184-0.6,0.273-0.959
		c0.088-0.359,0.156-0.674,0.203-0.945h-4.018v3.402c0,0.598-0.021,1.242-0.063,1.932c-0.042,0.691-0.126,1.393-0.252,2.107
		s-0.313,1.414-0.56,2.1c-0.248,0.686-0.577,1.323-0.987,1.911c-0.037-0.047-0.091-0.091-0.161-0.133
		c-0.07-0.042-0.128-0.072-0.175-0.091c0.401-0.579,0.721-1.202,0.959-1.869c0.238-0.667,0.416-1.346,0.532-2.037
		c0.117-0.69,0.193-1.37,0.231-2.037c0.037-0.667,0.056-1.295,0.056-1.883v-3.808h8.358v0.406h-3.738l0.252,0.084
		c-0.084,0.29-0.17,0.597-0.259,0.924c-0.089,0.327-0.175,0.625-0.259,0.896h3.332V72.455z M24.154,73.463l0.406,0.112
		c-0.252,0.56-0.553,1.111-0.903,1.652c-0.35,0.541-0.703,1.003-1.057,1.386c-0.038-0.028-0.096-0.07-0.175-0.126
		c-0.079-0.056-0.142-0.098-0.189-0.126c0.374-0.383,0.728-0.828,1.064-1.337C23.636,74.516,23.92,73.995,24.154,73.463z
		 M23.804,68.255v1.666h5.32v-1.666H23.804z M23.804,70.341v1.694h5.32v-1.694H23.804z M28.102,73.562l0.35-0.168
		c0.261,0.29,0.52,0.604,0.777,0.945c0.256,0.341,0.488,0.677,0.693,1.008c0.205,0.332,0.364,0.628,0.476,0.889l-0.378,0.21
		c-0.103-0.261-0.257-0.56-0.462-0.896c-0.206-0.336-0.434-0.679-0.686-1.029C28.62,74.17,28.363,73.851,28.102,73.562z"/>
	<path fill="#999999" d="M38.182,73.631h6.006v0.406H31.826v-0.406h5.95v-1.834H33.03v-0.406h4.746v-1.638H33.31v-4.242h9.268v4.242
		h-4.396v1.638h4.746v0.406h-4.746V73.631z M32.302,77.579l-0.322-0.21c0.327-0.28,0.635-0.637,0.924-1.071
		c0.29-0.434,0.523-0.866,0.7-1.295l0.364,0.084c-0.187,0.429-0.422,0.875-0.707,1.337C32.976,76.886,32.657,77.271,32.302,77.579z
		 M33.716,69.347h4.06v-3.43h-4.06V69.347z M34.962,66.562l0.35-0.14c0.243,0.345,0.467,0.728,0.672,1.148s0.345,0.779,0.42,1.078
		l-0.378,0.168c-0.075-0.299-0.212-0.663-0.413-1.092C35.412,67.294,35.195,66.907,34.962,66.562z M35.97,75.199l0.392-0.014
		c0.093,0.355,0.17,0.74,0.231,1.155c0.061,0.415,0.091,0.758,0.091,1.029l-0.392,0.07c-0.009-0.28-0.042-0.632-0.098-1.057
		C36.138,75.958,36.063,75.563,35.97,75.199z M42.172,69.347v-3.43h-3.99v3.43H42.172z M38.91,75.199l0.378-0.07
		c0.177,0.345,0.348,0.728,0.511,1.148c0.164,0.42,0.282,0.765,0.357,1.036l-0.378,0.112c-0.075-0.29-0.196-0.644-0.364-1.064
		S39.078,75.554,38.91,75.199z M39.484,69.025l-0.308-0.168c0.149-0.215,0.311-0.464,0.483-0.749
		c0.172-0.285,0.336-0.576,0.49-0.875c0.154-0.299,0.282-0.564,0.385-0.798l0.406,0.196c-0.215,0.401-0.455,0.824-0.721,1.267
		C39.953,68.342,39.708,68.717,39.484,69.025z M41.836,75.171l0.35-0.154c0.252,0.224,0.501,0.474,0.749,0.749
		c0.247,0.275,0.48,0.546,0.7,0.812c0.219,0.266,0.395,0.506,0.525,0.721l-0.364,0.21c-0.121-0.215-0.289-0.458-0.504-0.728
		s-0.448-0.548-0.7-0.833C42.34,75.664,42.088,75.405,41.836,75.171z"/>
	<path fill="#999999" d="M51.118,71.083h-0.406v-1.428h-4.256v1.428H46.05v-1.848h0.798v-3.78h3.472v3.78h0.798V71.083z
		 M50.334,70.929v6.006c0,0.149-0.021,0.261-0.063,0.336c-0.042,0.074-0.124,0.13-0.245,0.168c-0.121,0.037-0.299,0.058-0.532,0.063
		c-0.233,0.004-0.556,0.007-0.966,0.007c-0.009-0.047-0.033-0.105-0.07-0.175c-0.038-0.07-0.075-0.133-0.112-0.189
		c0.336,0.009,0.63,0.014,0.882,0.014s0.411-0.005,0.476-0.014c0.149-0.01,0.224-0.08,0.224-0.21v-1.974h-2.702v2.548H46.82v-6.58
		H50.334z M49.928,71.335h-2.702v1.372h2.702V71.335z M47.226,74.555h2.702v-1.428h-2.702V74.555z M47.254,65.861v3.374h0.994
		v-2.128h1.666v-1.246H47.254z M49.914,69.235v-1.722h-1.246v1.722H49.914z M51.034,76.753h7.308v0.406h-7.308V76.753z
		 M58.286,71.042v0.406H51.23v-0.406H58.286z M57.628,66.309v3.808H51.79v-3.808h1.778v-1.4h0.406v1.4h1.4v-1.4h0.406v1.4H57.628z
		 M57.292,72.357v2.478H52.14v-2.478H57.292z M52.21,66.715v1.274h1.358v-1.274H52.21z M52.21,68.409v1.302h1.358v-1.302H52.21z
		 M56.886,74.429v-1.666h-4.34v1.666H56.886z M53.89,76.599l-0.406,0.126c-0.028-0.233-0.089-0.501-0.182-0.805
		s-0.205-0.581-0.336-0.833l0.378-0.098c0.14,0.243,0.256,0.516,0.35,0.819C53.787,76.112,53.853,76.375,53.89,76.599z
		 M53.974,67.989h1.4v-1.274h-1.4V67.989z M55.374,68.409h-1.4v1.302h1.4V68.409z M55.766,76.739l-0.336-0.154
		c0.112-0.224,0.231-0.492,0.357-0.805c0.126-0.313,0.222-0.581,0.287-0.805l0.392,0.182c-0.112,0.262-0.231,0.537-0.357,0.826
		S55.869,76.525,55.766,76.739z M57.208,67.989v-1.274H55.78v1.274H57.208z M57.208,69.711v-1.302H55.78v1.302H57.208z"/>
	<path fill="#999999" d="M72.16,68.577h-5.194c0.439,0.485,0.959,0.964,1.561,1.435c0.602,0.472,1.232,0.896,1.89,1.274
		s1.286,0.679,1.883,0.903c-0.121,0.093-0.224,0.205-0.308,0.336c-0.607-0.252-1.253-0.585-1.939-1.001
		c-0.686-0.416-1.342-0.88-1.967-1.393s-1.162-1.031-1.61-1.554h-0.294v3.066h-0.406v-3.066h-0.252
		c-0.429,0.569-0.957,1.125-1.582,1.666c-0.625,0.542-1.281,1.027-1.967,1.456c-0.686,0.43-1.337,0.779-1.953,1.05
		c-0.084-0.131-0.187-0.243-0.308-0.336c0.607-0.242,1.237-0.562,1.89-0.959c0.653-0.396,1.279-0.844,1.876-1.344
		c0.597-0.499,1.111-1.01,1.54-1.533h-5.152v-0.406h5.908v-1.96c-0.775,0.084-1.566,0.156-2.373,0.217
		c-0.807,0.061-1.584,0.114-2.331,0.161c-0.009-0.056-0.025-0.117-0.049-0.182c-0.023-0.065-0.044-0.126-0.063-0.182
		c0.812-0.046,1.654-0.107,2.527-0.182s1.727-0.159,2.562-0.252s1.61-0.198,2.324-0.315c0.714-0.116,1.318-0.245,1.813-0.385
		l0.406,0.322c-0.569,0.149-1.232,0.285-1.988,0.406c-0.756,0.122-1.563,0.233-2.422,0.336v2.016h5.978V68.577z M61.982,77.523
		v-5.432H70.2v5.39h-0.406v-0.532h-7.406v0.574H61.982z M69.794,72.497h-7.406v1.778h7.406V72.497z M62.388,76.543h7.406v-1.862
		h-7.406V76.543z"/>
	<path fill="#999999" d="M76.276,70.341l-0.238,0.336c-0.168-0.168-0.385-0.345-0.651-0.532c-0.266-0.187-0.556-0.369-0.868-0.546
		c-0.313-0.177-0.619-0.331-0.917-0.462l0.252-0.308c0.299,0.131,0.602,0.283,0.91,0.455c0.308,0.173,0.595,0.353,0.861,0.539
		C75.891,70.01,76.108,70.183,76.276,70.341z M76.304,72.497l0.322,0.252c-0.206,0.485-0.439,1.001-0.7,1.547
		s-0.527,1.08-0.798,1.603c-0.271,0.522-0.527,0.989-0.77,1.4l-0.35-0.28c0.224-0.364,0.471-0.8,0.742-1.309
		c0.271-0.509,0.541-1.045,0.812-1.61C75.833,73.536,76.08,73.001,76.304,72.497z M76.92,66.729l-0.252,0.336
		c-0.159-0.177-0.369-0.369-0.63-0.574c-0.262-0.205-0.544-0.406-0.847-0.602c-0.303-0.196-0.6-0.369-0.889-0.518l0.266-0.28
		c0.29,0.14,0.586,0.306,0.889,0.497s0.583,0.385,0.84,0.581C76.554,66.365,76.761,66.552,76.92,66.729z M86.412,69.837H83.57
		c0.215,0.458,0.481,0.898,0.798,1.323c0.317,0.425,0.667,0.803,1.05,1.134c0.383,0.331,0.77,0.595,1.162,0.791
		c-0.112,0.093-0.21,0.201-0.294,0.322c-0.411-0.233-0.814-0.537-1.211-0.91c-0.397-0.373-0.761-0.789-1.092-1.246
		c-0.332-0.458-0.609-0.929-0.833-1.414h-3.192c-0.233,0.485-0.523,0.961-0.868,1.428c-0.345,0.467-0.714,0.894-1.106,1.281
		s-0.779,0.707-1.162,0.959c-0.037-0.056-0.086-0.114-0.147-0.175c-0.061-0.061-0.114-0.109-0.161-0.147
		c0.364-0.214,0.735-0.499,1.113-0.854c0.378-0.354,0.732-0.747,1.064-1.176c0.331-0.429,0.614-0.868,0.847-1.316H76.64v-0.42h2.688
		v-2.212H77.27v-0.406h2.058v-1.876h0.406v1.876h3.514v-1.876h0.42v1.876h2.38v0.406h-2.38v2.212h2.744V69.837z M80.392,76.921
		h3.598c0.252,0,0.438-0.04,0.56-0.119c0.122-0.08,0.208-0.245,0.259-0.497s0.086-0.625,0.105-1.12
		c0.065,0.047,0.135,0.086,0.21,0.119s0.145,0.059,0.21,0.077c-0.028,0.513-0.077,0.913-0.147,1.197
		c-0.07,0.285-0.196,0.483-0.378,0.595s-0.455,0.168-0.819,0.168h-3.556c-0.598,0-1.003-0.061-1.218-0.182s-0.322-0.387-0.322-0.798
		v-4.774h5.166v2.842H79.3v1.946c0,0.214,0.068,0.359,0.203,0.434S79.935,76.921,80.392,76.921z M83.654,71.993H79.3v2.03h4.354
		V71.993z M79.734,67.205v2.212h3.514v-2.212H79.734z"/>
</g>
<g>
	<path d="M15.692,99.719l3.966,1.225c-0.816,2.101-1.721,4.191-2.712,6.271s-2.052,4.112-3.179,6.096v39.375H9.508v-32.725
		c-1.789,2.566-3.714,4.899-5.775,7c-0.233-0.467-0.604-1.146-1.108-2.042c-0.506-0.894-0.954-1.575-1.342-2.042
		c1.905-1.866,3.752-4.033,5.542-6.504c1.788-2.469,3.441-5.123,4.958-7.963C13.3,105.572,14.603,102.675,15.692,99.719z
		 M32.434,148.077h14.875c1.205,0,2.109-0.224,2.712-0.671c0.603-0.446,1.04-1.283,1.313-2.508c0.271-1.226,0.486-2.984,0.642-5.279
		c0.544,0.389,1.196,0.749,1.954,1.079c0.758,0.331,1.448,0.574,2.071,0.729c-0.233,2.645-0.612,4.744-1.138,6.299
		c-0.525,1.556-1.352,2.654-2.479,3.297c-1.128,0.641-2.762,0.962-4.9,0.962H32.258c-2.295,0-4.104-0.224-5.425-0.671
		c-1.323-0.447-2.246-1.254-2.771-2.42c-0.525-1.168-0.788-2.801-0.788-4.9v-18.959l-5.658,2.217l-1.692-3.791l7.35-2.859v-15.341
		h4.258v13.649l8.517-3.324V99.602h4.142v14.467l9.042-3.5l0.583-0.524l0.758-0.642l2.975,1.225l-0.175,0.759
		c0,3.5-0.02,6.708-0.058,9.625c-0.04,2.917-0.108,5.396-0.205,7.438c-0.097,2.042-0.243,3.471-0.438,4.287
		c-0.233,1.323-0.651,2.304-1.254,2.946c-0.604,0.642-1.352,1.079-2.246,1.313c-0.778,0.195-1.73,0.32-2.858,0.379
		c-1.128,0.059-2.139,0.068-3.034,0.029c-0.039-0.661-0.156-1.38-0.35-2.158c-0.195-0.777-0.429-1.42-0.7-1.926
		c0.777,0.039,1.613,0.068,2.508,0.088c0.894,0.02,1.536,0.029,1.925,0.029c0.544,0,0.972-0.106,1.284-0.32
		c0.311-0.214,0.544-0.69,0.7-1.43c0.233-0.777,0.388-2.635,0.467-5.57c0.078-2.937,0.136-6.68,0.175-11.229l-9.1,3.558v21.408
		H36.05v-19.774l-8.517,3.384v20.533c0,1.089,0.117,1.935,0.35,2.537c0.233,0.604,0.709,1.012,1.429,1.225
		C30.032,147.971,31.072,148.077,32.434,148.077z"/>
	<path d="M112.875,138.803v3.383h-7.466v10.383h-4.375v-2.041H67.842v-3.559h33.192v-4.783h-38.85v-3.383h38.85v-4.726H68.892v-3.5
		h36.517v8.226H112.875z M66.909,112.785v9.101H63v-12.601h22.225v-3.85h-18.9v-3.559h42.35v3.559h-19.25v3.85h22.633v12.601h-4.025
		v-9.101H89.425v15.342h-4.2v-15.342H66.909z M68.483,126.261v-3.092h13.883v3.092H68.483z M69.708,116.461h12.6v3.092h-12.6
		V116.461z M92.342,116.461h12.892v3.092H92.342V116.461z M92.342,126.261v-3.092h14.35v3.092H92.342z"/>
	<path d="M171.675,122.352h-13.767c1.828,2.256,4.103,4.356,6.825,6.301c2.721,1.945,5.483,3.422,8.283,4.434
		c-0.467,0.389-0.973,0.924-1.517,1.604c-0.545,0.682-0.973,1.293-1.284,1.838c-2.139-0.934-4.249-2.129-6.329-3.588
		c-2.081-1.458-4.025-3.092-5.833-4.9c-1.809-1.808-3.354-3.703-4.638-5.688H138.25c-1.945,3.15-4.395,5.961-7.35,8.43
		c-2.956,2.471-6.028,4.541-9.217,6.213c-0.272-0.428-0.749-0.972-1.429-1.634c-0.681-0.661-1.254-1.186-1.721-1.575
		c2.917-1.321,5.667-2.955,8.254-4.899c2.586-1.944,4.734-4.122,6.446-6.534h-13.067v-4.024h14.175v-7.7H123.9v-4.025h10.441v-7.174
		h4.258v7.174h14.292v-7.174h4.258v7.174h10.617v4.025H157.15v7.7h14.525V122.352z M131.6,132.443l3.675,1.518
		c-0.934,2.062-2.052,4.249-3.354,6.563c-1.304,2.314-2.81,4.287-4.521,5.92l-3.559-2.1c1.711-1.517,3.247-3.373,4.608-5.57
		C129.811,136.576,130.861,134.467,131.6,132.443z M140.175,147.727v-20.183h4.142v20.183c0,1.205-0.146,2.13-0.438,2.771
		c-0.292,0.642-0.866,1.138-1.721,1.487c-0.856,0.312-1.974,0.505-3.354,0.583c-1.381,0.078-3.102,0.117-5.163,0.117
		c-0.079-0.623-0.233-1.303-0.467-2.041c-0.233-0.74-0.506-1.421-0.816-2.043c1.594,0.039,3.013,0.068,4.258,0.088
		c1.244,0.02,2.061,0.01,2.45-0.029c0.428-0.039,0.719-0.116,0.875-0.232C140.097,148.311,140.175,148.077,140.175,147.727z
		 M138.6,110.627v7.7h14.292v-7.7H138.6z M147.409,133.844l3.558-0.816c0.972,1.945,1.809,4.064,2.509,6.358
		c0.7,2.295,1.186,4.298,1.458,6.009l-3.792,0.933c-0.195-1.711-0.642-3.733-1.342-6.066
		C149.101,137.928,148.303,135.789,147.409,133.844z M154.934,132.443l3.5-1.458c1.205,1.4,2.392,2.937,3.559,4.608
		c1.167,1.673,2.226,3.316,3.179,4.93c0.952,1.613,1.701,3.082,2.246,4.404l-3.733,1.691c-0.506-1.283-1.225-2.751-2.158-4.404
		c-0.934-1.652-1.974-3.334-3.121-5.046C157.257,135.458,156.101,133.883,154.934,132.443z"/>
	<path d="M200.2,111.27l2.683,0.524c-0.389,5.64-1.128,10.616-2.217,14.933c-1.089,4.317-2.489,8.109-4.2,11.375
		c1.321,1.09,2.538,2.159,3.646,3.209c1.108,1.05,2.032,2.041,2.771,2.975l-2.917,3.617c-0.739-0.895-1.604-1.847-2.596-2.858
		c-0.991-1.011-2.071-2.062-3.237-3.149c-1.789,2.488-3.802,4.628-6.038,6.416c-2.237,1.788-4.735,3.305-7.496,4.55
		c-0.312-0.545-0.72-1.167-1.225-1.866c-0.506-0.7-0.992-1.283-1.458-1.75c2.645-1.012,5.036-2.353,7.175-4.025
		c2.138-1.672,4.044-3.752,5.716-6.242c-1.633-1.36-3.325-2.712-5.075-4.054c-1.75-1.341-3.422-2.557-5.017-3.646
		c0.738-2.061,1.467-4.472,2.188-7.233c0.719-2.761,1.409-5.619,2.071-8.575h-7.059v-4.025h7.934
		c0.427-2.061,0.796-4.102,1.108-6.125c0.311-2.021,0.583-3.946,0.816-5.774l4.258,0.351c-0.233,1.789-0.525,3.665-0.875,5.629
		s-0.739,3.938-1.167,5.92h9.45L200.2,111.27z M198.333,115.469h-9.159c-0.583,2.566-1.187,5.057-1.808,7.467
		c-0.623,2.412-1.225,4.647-1.809,6.709c1.244,0.855,2.499,1.76,3.763,2.712c1.263,0.953,2.518,1.935,3.763,2.946
		c1.283-2.605,2.381-5.562,3.296-8.867C197.292,123.131,197.944,119.475,198.333,115.469z M206.033,105.785h22.633v44.684h-4.258
		v-3.5h-14.292v4.316h-4.083V105.785z M210.117,142.827h14.292v-32.899h-14.292V142.827z"/>
	<path d="M274.167,148.895h9.042c0.699,0,1.225-0.137,1.574-0.409c0.35-0.271,0.604-0.807,0.759-1.604
		c0.155-0.796,0.253-1.973,0.292-3.529c0.467,0.313,1.039,0.584,1.721,0.817c0.68,0.233,1.273,0.429,1.779,0.583
		c-0.117,1.983-0.36,3.51-0.729,4.58c-0.37,1.068-0.943,1.808-1.722,2.216c-0.777,0.409-1.847,0.612-3.207,0.612h-9.918
		c-1.75,0-3.111-0.146-4.082-0.438c-0.973-0.291-1.645-0.797-2.014-1.516c-0.369-0.721-0.554-1.742-0.554-3.063v-11.201h-14.583
		v3.851h12.367v3.092h-12.367v5.25l12.482-1.4c0,0.429,0.01,0.943,0.029,1.546s0.049,1.099,0.088,1.488
		c-3.656,0.466-6.592,0.846-8.809,1.137c-2.217,0.292-3.908,0.525-5.074,0.7c-1.167,0.175-2.013,0.33-2.538,0.467
		c-0.524,0.136-0.943,0.263-1.254,0.379c-0.155-0.429-0.408-0.973-0.759-1.634c-0.35-0.661-0.699-1.205-1.05-1.633
		c0.544-0.195,1.147-0.535,1.809-1.021c0.661-0.485,0.991-1.195,0.991-2.129v-10.092h-4.316c-0.272,2.879-0.816,5.844-1.633,8.896
		c-0.816,3.053-2.081,5.784-3.792,8.195c-0.35-0.428-0.875-0.924-1.575-1.487c-0.7-0.563-1.264-0.943-1.691-1.138
		c1.478-2.1,2.557-4.375,3.237-6.824c0.68-2.45,1.127-4.91,1.342-7.379c0.213-2.47,0.321-4.734,0.321-6.797v-10.033h20.942
		c-0.156-0.311-0.313-0.642-0.467-0.991c-0.156-0.351-0.331-0.661-0.525-0.934v0.292h-3.908v-7.643h-12.308v7.759h-3.792v-10.5
		h20.008v8.809l3.209-1.05c0.428,0.622,0.865,1.322,1.313,2.1c0.446,0.778,0.807,1.498,1.078,2.158h21.701v3.209h-15.518v3.149
		h13.941v10.208h-14.875v5.018c2.412-0.506,4.803-1.06,7.176-1.663c2.371-0.603,4.316-1.215,5.834-1.837l2.857,2.566
		c-2.178,0.739-4.695,1.439-7.555,2.1c-2.857,0.662-5.629,1.206-8.313,1.634v3.384c0,0.738,0.195,1.215,0.584,1.429
		C272.105,148.786,272.922,148.895,274.167,148.895z M261.508,101.645v3.091H238.35v-3.091H261.508z M244.417,128.711v0.816
		c0,0.545,0,1.1,0,1.662c0,0.564-0.02,1.158-0.059,1.779h9.741v-4.258H244.417z M254.1,122.586h-9.683v3.149h9.683V122.586z
		 M253.4,115.586l-2.393,2.1c-0.428-0.777-1.078-1.643-1.953-2.596s-1.721-1.799-2.538-2.537l2.217-1.809
		c0.894,0.738,1.779,1.556,2.654,2.449C252.263,114.089,252.934,114.886,253.4,115.586z M268.1,125.735v-3.149h-10.092v3.149H268.1z
		 M258.008,132.969H268.1v-4.258h-10.092V132.969z M287.758,101.645v3.091h-23.391v-3.091H287.758z M286.125,117.744h-3.967v-7.643
		H269.5v7.759h-3.791v-10.5h20.416V117.744z M271.95,112.669l2.217-1.925c0.894,0.662,1.817,1.439,2.771,2.333
		c0.953,0.896,1.682,1.731,2.188,2.509l-2.275,2.1c-0.506-0.738-1.225-1.584-2.158-2.537S272.844,113.369,271.95,112.669z
		 M281.983,128.711h-9.917v4.258h9.917V128.711z"/>
	<path d="M304.617,121.186h11.608c0,1.012-0.021,1.672-0.059,1.983c-0.155,4.55-0.331,8.41-0.524,11.579
		c-0.195,3.17-0.4,5.766-0.613,7.787c-0.214,2.023-0.467,3.598-0.758,4.726c-0.292,1.128-0.652,1.963-1.08,2.509
		c-0.467,0.621-0.953,1.059-1.457,1.313c-0.506,0.252-1.129,0.417-1.867,0.495c-0.623,0.077-1.4,0.116-2.334,0.116
		s-1.924-0.02-2.975-0.058c-0.039-0.583-0.156-1.255-0.35-2.013c-0.195-0.758-0.447-1.409-0.759-1.954
		c1.011,0.078,1.915,0.126,2.712,0.146c0.797,0.021,1.391,0.029,1.779,0.029c0.738,0.039,1.303-0.213,1.692-0.758
		c0.388-0.428,0.72-1.4,0.991-2.917s0.516-3.812,0.729-6.884c0.214-3.071,0.417-7.116,0.612-12.133H304.5
		c-0.312,5.756-0.991,10.977-2.041,15.662c-1.051,4.688-2.898,8.604-5.542,11.754c-0.312-0.545-0.798-1.128-1.458-1.75
		c-0.662-0.622-1.265-1.089-1.809-1.399c2.1-2.527,3.625-5.609,4.579-9.246c0.952-3.636,1.575-7.729,1.866-12.278
		c0.292-4.551,0.457-9.47,0.496-14.759h-5.775v-4.025h23.451v4.025H304.85c-0.039,1.361-0.068,2.722-0.087,4.083
		C304.742,118.58,304.694,119.902,304.617,121.186z M310.509,107.419l-4.083,1.634c-0.351-1.128-0.982-2.47-1.896-4.025
		c-0.914-1.555-1.857-2.975-2.829-4.258l3.792-1.459c1.011,1.245,1.992,2.625,2.945,4.142S310.08,106.291,310.509,107.419z
		 M330.984,99.193l3.966,1.226c-0.272,1.05-0.622,2.12-1.05,3.208c1.05,2.063,2.342,4.113,3.879,6.154
		c1.536,2.042,3.209,3.918,5.018,5.629c1.808,1.712,3.605,3.072,5.395,4.084c-0.506,0.389-1.069,0.934-1.691,1.633
		c-0.622,0.7-1.128,1.342-1.516,1.926c-2.373-1.595-4.707-3.753-7-6.476c-2.296-2.722-4.279-5.619-5.951-8.691
		c-1.479,3.228-3.286,6.164-5.424,8.808c-2.14,2.646-4.531,4.881-7.176,6.709c-0.35-0.545-0.797-1.138-1.342-1.779
		s-1.107-1.195-1.691-1.662c3.422-2.101,6.388-4.968,8.896-8.604C327.805,107.721,329.7,103.666,330.984,99.193z M322.351,141.193
		l2.741-3.266c1.789,0.855,3.694,1.857,5.717,3.004c2.021,1.147,3.947,2.304,5.775,3.471c1.827,1.166,3.305,2.256,4.434,3.267
		l-2.917,3.792c-1.089-1.012-2.528-2.14-4.317-3.384s-3.685-2.47-5.688-3.675S324.178,142.127,322.351,141.193z M338.917,129.586
		l-2.976,3.208c-0.699-0.738-1.623-1.584-2.77-2.538c-1.148-0.952-2.354-1.914-3.617-2.887c-1.264-0.972-2.479-1.847-3.646-2.625
		l2.801-2.801c1.166,0.74,2.392,1.566,3.675,2.479c1.283,0.915,2.509,1.818,3.675,2.713
		C337.226,128.031,338.178,128.848,338.917,129.586z"/>
	<path d="M368.9,114.244v-13.65h4.375v51.625H368.9v-13.066c-2.606,1.129-5.184,2.227-7.729,3.296
		c-2.548,1.069-4.871,2.052-6.971,2.946l-2.042-4.375c2.139-0.662,4.686-1.556,7.642-2.684c2.955-1.128,5.988-2.295,9.101-3.5
		v-16.334h-14.934v-4.258H368.9z M390.425,147.202H399c0.895,0,1.565-0.34,2.013-1.021c0.446-0.68,0.777-1.905,0.991-3.676
		c0.214-1.769,0.38-4.248,0.496-7.438c0.544,0.429,1.215,0.838,2.013,1.226c0.797,0.39,1.507,0.661,2.129,0.816
		c-0.155,3.54-0.447,6.35-0.875,8.429c-0.429,2.082-1.138,3.588-2.129,4.521c-0.992,0.934-2.441,1.4-4.346,1.4h-9.334
		c-1.789,0-3.188-0.234-4.199-0.7c-1.012-0.467-1.722-1.274-2.13-2.421s-0.612-2.751-0.612-4.813v-42.875h4.375v19.25
		c2.722-1.633,5.367-3.363,7.934-5.191s4.725-3.578,6.475-5.25l3.209,3.732c-2.412,1.906-5.183,3.821-8.313,5.746
		c-3.131,1.926-6.233,3.744-9.305,5.455v19.191c0,1.516,0.194,2.499,0.583,2.945C388.363,146.979,389.18,147.202,390.425,147.202z"
		/>
	<path d="M456.109,113.252h4.433v38.559h-4.433v-4.492h-37.101v4.726h-4.375v-38.733h4.375v29.633h16.042v-42.232h4.434v42.232
		h16.625V113.252z"/>
</g>
<g>
</g>
<g>
</g>
<g>
</g>
<g>
</g>
<g>
</g>
<g>
</g>
</svg>
