<?xml version="1.0" encoding="utf-8"?>
<!-- Generator: Adobe Illustrator 16.0.0, SVG Export Plug-In . SVG Version: 6.00 Build 0)  -->
<!DOCTYPE svg PUBLIC "-//W3C//DTD SVG 1.1//EN" "http://www.w3.org/Graphics/SVG/1.1/DTD/svg11.dtd">
<svg version="1.1" id="Layer_1" xmlns="http://www.w3.org/2000/svg" xmlns:xlink="http://www.w3.org/1999/xlink" x="0px" y="0px"
	 width="807.332px" height="116.995px" viewBox="0 0 807.332 116.995" enable-background="new 0 0 807.332 116.995"
	 xml:space="preserve">
<g>
	<g>
		<path d="M18.026,47.347l1.514,0.589c-1.178,7.57-3.001,14.02-5.468,19.347c2.019,3.364,4.71,5.875,8.075,7.528
			c3.365,1.655,7.388,2.747,12.071,3.281c4.682,0.532,10.023,0.799,16.024,0.799c2.972,0,6.07-0.029,9.295-0.084
			c3.224-0.057,6.42-0.155,9.589-0.295c3.167-0.141,6.042-0.323,8.622-0.547c-0.225,0.392-0.408,0.869-0.547,1.431
			c-0.141,0.56-0.267,1.009-0.378,1.346c-2.412,0.111-5.118,0.224-8.118,0.336c-3,0.112-6.085,0.182-9.253,0.211
			c-3.169,0.027-6.211,0.042-9.126,0.042c-6.338,0-11.89-0.281-16.655-0.842c-4.767-0.561-8.833-1.682-12.197-3.364
			s-6.169-4.177-8.412-7.486c-2.973,5.665-6.45,10.065-10.431,13.206c-0.225-0.336-0.519-0.701-0.883-1.094
			c-0.365-0.393-0.688-0.701-0.967-0.925c3.756-2.805,7.024-6.827,9.8-12.071c2.776-5.242,4.808-11.537,6.099-18.884H7.512
			c-1.066,0-2.033,0.112-2.902,0.336c-0.87,0.225-1.444,0.478-1.724,0.758c-0.113-0.448-0.323-0.995-0.631-1.641
			c-0.309-0.645-0.576-1.163-0.799-1.557c0.56-0.168,1.163-0.406,1.809-0.715c0.644-0.308,1.275-0.826,1.893-1.556
			c0.505-0.617,1.233-1.584,2.187-2.902c0.953-1.317,2.004-2.831,3.154-4.542c1.149-1.71,2.271-3.407,3.365-5.09
			c1.094-1.682,2.061-3.196,2.902-4.542H2.128v-2.439h16.235l0.841-0.421l2.271,1.094c-0.897,1.234-1.949,2.748-3.154,4.542
			c-1.207,1.796-2.496,3.674-3.87,5.637c-1.375,1.963-2.734,3.869-4.08,5.72s-2.58,3.478-3.701,4.879h10.851L18.026,47.347z
			 M18.026,20.008l-2.019,1.346c-0.729-1.177-1.682-2.536-2.86-4.079c-1.178-1.542-2.412-3.14-3.701-4.795
			c-1.291-1.653-2.552-3.154-3.785-4.5L7.68,6.886c1.233,1.402,2.509,2.902,3.828,4.5c1.317,1.599,2.565,3.154,3.743,4.669
			C16.428,17.569,17.354,18.887,18.026,20.008z M31.99,32.878l2.523,0.505c-1.234,4.431-2.847,8.721-4.836,12.87
			c-1.991,4.15-4.136,7.711-6.435,10.683c-0.225-0.224-0.562-0.505-1.009-0.841c-0.45-0.337-0.841-0.589-1.178-0.757
			c2.41-2.804,4.555-6.183,6.435-10.137C29.368,41.249,30.867,37.141,31.99,32.878z M25.26,21.018h52.069v2.439H59.749v44.75
			c0,1.066-0.155,1.823-0.462,2.271c-0.309,0.449-0.856,0.813-1.641,1.094c-0.786,0.225-1.963,0.351-3.533,0.379
			c-1.571,0.028-3.673,0.042-6.309,0.042c-0.057-0.337-0.197-0.716-0.421-1.136c-0.225-0.421-0.449-0.827-0.673-1.22
			c2.299,0.057,4.261,0.084,5.888,0.084c1.626,0,2.719,0,3.281,0c0.953-0.056,1.43-0.532,1.43-1.43V23.458H45.196v9.169
			c0,3.196-0.168,6.506-0.505,9.926c-0.336,3.421-1.038,6.843-2.103,10.263c-1.066,3.421-2.692,6.785-4.879,10.094
			c-2.187,3.31-5.131,6.477-8.833,9.505c-0.225-0.279-0.519-0.589-0.883-0.925c-0.365-0.337-0.688-0.561-0.967-0.673
			c3.645-2.915,6.519-5.985,8.622-9.211c2.103-3.225,3.659-6.49,4.668-9.8c1.009-3.309,1.668-6.589,1.977-9.842
			c0.308-3.252,0.462-6.364,0.462-9.337v-9.169H25.26V21.018z M46.038,6.718c1.458,1.963,2.915,4.136,4.374,6.519
			c1.458,2.385,2.551,4.389,3.281,6.015l-2.355,1.01c-0.729-1.683-1.795-3.729-3.196-6.141c-1.403-2.411-2.833-4.598-4.29-6.562
			L46.038,6.718z M64.627,34.224l2.187-0.841c1.626,2.355,3.167,4.921,4.626,7.696c1.458,2.776,2.734,5.482,3.828,8.118
			c1.093,2.636,1.864,4.963,2.313,6.981l-2.355,1.01c-0.449-2.074-1.207-4.444-2.271-7.108c-1.066-2.663-2.313-5.384-3.743-8.159
			C67.782,39.145,66.253,36.58,64.627,34.224z"/>
	</g>
	<g>
		<path fill="#999999" d="M9.58,113.279v-10.001h5.421v0.462H10.07v4.048h4.65v0.448h-4.65v4.581h4.931v0.462H9.58z"/>
		<path fill="#999999" d="M16.328,105.869h0.588l2.311,3.264l2.311-3.264h0.575l-2.563,3.6l2.731,3.811h-0.588l-2.465-3.474
			l-2.451,3.474h-0.561l2.704-3.811L16.328,105.869z"/>
		<path fill="#999999" d="M26.844,112.802v0.435c-0.308,0.098-0.645,0.182-1.135,0.182c-1.289,0-1.765-0.756-1.765-2.129v-4.986
			h-1.121v-0.351l1.106-0.098l0.14-1.808h0.364v1.821h2.367v0.435h-2.367v4.944c0,1.121,0.322,1.723,1.303,1.723
			C26.186,112.97,26.536,112.901,26.844,112.802z"/>
		<path fill="#999999" d="M32.318,105.897l-0.084,0.448c-0.336-0.099-0.63-0.141-1.022-0.141c-1.499,0-2.241,1.149-2.241,2.942
			v4.132h-0.49v-7.41h0.434l0.042,1.401h0.028c0.294-0.841,1.064-1.514,2.241-1.514C31.646,105.756,31.996,105.798,32.318,105.897z"
			/>
		<path fill="#999999" d="M38.632,108.348v4.931H38.24l-0.07-1.387h-0.042c-0.42,0.854-1.19,1.526-2.661,1.526
			c-1.471,0-2.255-0.756-2.255-1.988c0-1.471,1.289-2.199,3.53-2.325l1.415-0.07v-0.589c0-1.61-0.63-2.269-1.877-2.269
			c-0.757,0-1.429,0.182-2.199,0.56l-0.168-0.434c0.729-0.336,1.527-0.561,2.368-0.561
			C37.848,105.743,38.632,106.542,38.632,108.348z M36.783,109.525c-1.905,0.084-3.054,0.658-3.054,1.905
			c0,0.98,0.645,1.555,1.779,1.555c1.779,0,2.619-1.121,2.647-2.773v-0.757L36.783,109.525z"/>
		<path fill="#999999" d="M41.22,103.278h0.49v9.539h4.917v0.462H41.22V103.278z"/>
		<path fill="#999999" d="M48.835,103.627c0,0.28-0.084,0.49-0.42,0.49c-0.294,0-0.406-0.21-0.406-0.49
			c0-0.266,0.112-0.477,0.406-0.477C48.751,103.151,48.835,103.362,48.835,103.627z M48.653,113.279h-0.49v-7.41h0.49V113.279z"/>
		<path fill="#999999" d="M56.356,107.101h0.042l0.084-1.232h0.393v7.732c0,1.821-0.854,3.039-3.11,3.039
			c-1.121,0-1.933-0.224-2.62-0.518v-0.519c0.687,0.336,1.583,0.589,2.634,0.589c1.877,0,2.619-1.009,2.619-2.578v-0.546
			c0-0.505,0-0.841,0.028-1.345h-0.028c-0.364,1.12-1.289,1.694-2.619,1.694c-1.905,0-3.054-1.303-3.054-3.754
			c0-2.423,1.093-3.936,3.222-3.936C55.25,105.729,55.936,106.289,56.356,107.101z M51.229,109.679c0,2.143,0.924,3.291,2.577,3.291
			c2.087,0,2.591-1.555,2.591-3.138v-0.616c0-1.793-0.588-3.039-2.423-3.039C52.112,106.177,51.229,107.48,51.229,109.679z"/>
		<path fill="#999999" d="M59.881,106.247c0,0.421-0.014,0.715-0.028,1.107h0.028c0.322-0.869,1.177-1.625,2.662-1.625
			c1.625,0,2.549,0.854,2.549,2.703v4.847h-0.49v-4.833c0-1.568-0.756-2.269-2.087-2.269c-1.625,0-2.634,0.938-2.634,2.928v4.174
			h-0.49v-10.646h0.49V106.247z"/>
		<path fill="#999999" d="M70.425,112.802v0.435c-0.308,0.098-0.645,0.182-1.135,0.182c-1.289,0-1.765-0.756-1.765-2.129v-4.986
			h-1.121v-0.351l1.106-0.098l0.14-1.808h0.364v1.821h2.367v0.435h-2.367v4.944c0,1.121,0.322,1.723,1.303,1.723
			C69.767,112.97,70.117,112.901,70.425,112.802z"/>
	</g>
</g>
<g>
	<g>
		<path d="M138.98,46.675l2.187,0.841c-0.562,3.59-1.276,6.954-2.145,10.095c-0.87,3.141-1.865,6.029-2.986,8.664
			c1.962,3.311,4.542,5.777,7.739,7.402c3.197,1.627,7.051,2.705,11.566,3.238c4.513,0.533,9.631,0.799,15.352,0.799
			c2.972,0,6.14-0.027,9.505-0.084s6.701-0.168,10.01-0.336c3.308-0.168,6.336-0.365,9.084-0.588
			c-0.393,0.504-0.702,1.176-0.925,2.018c-0.225,0.842-0.393,1.543-0.504,2.104c-3.758,0.223-8.09,0.379-12.996,0.463
			c-4.908,0.084-9.604,0.125-14.09,0.125c-6.113,0-11.482-0.281-16.108-0.84c-4.626-0.563-8.595-1.656-11.903-3.281
			c-3.31-1.625-6.057-4.064-8.244-7.318c-1.459,2.748-3.057,5.215-4.794,7.402c-1.739,2.188-3.59,4.037-5.552,5.553
			c-0.281-0.451-0.715-0.982-1.304-1.6s-1.08-1.064-1.472-1.346c3.645-2.748,6.827-6.631,9.547-11.65
			c2.719-5.018,4.696-11.004,5.93-17.958h-8.328c-1.01,0-1.964,0.113-2.86,0.336c-0.897,0.226-1.514,0.478-1.851,0.758
			c-0.113-0.561-0.365-1.275-0.757-2.146c-0.393-0.869-0.729-1.556-1.009-2.061c0.616-0.168,1.247-0.421,1.893-0.757
			c0.644-0.337,1.275-0.869,1.893-1.599c0.505-0.56,1.178-1.443,2.019-2.649c0.841-1.206,1.779-2.579,2.818-4.122
			c1.037-1.542,2.074-3.112,3.112-4.711c1.037-1.598,1.948-3.014,2.734-4.248h-13.627v-3.616h16.151l0.841-0.421l3.028,1.346
			c-1.122,1.627-2.51,3.674-4.164,6.141c-1.655,2.469-3.365,4.963-5.131,7.486c-1.766,2.523-3.379,4.739-4.836,6.646h9.421
			L138.98,46.675z M139.653,19.505l-3.281,2.103c-0.729-1.178-1.669-2.551-2.818-4.122c-1.15-1.569-2.37-3.182-3.659-4.836
			c-1.291-1.654-2.523-3.155-3.701-4.501l3.196-1.767c1.233,1.402,2.509,2.902,3.828,4.501c1.317,1.598,2.551,3.154,3.701,4.668
			C138.068,17.065,138.98,18.384,139.653,19.505z M152.439,31.954l3.786,0.757c-1.178,4.431-2.721,8.721-4.626,12.87
			c-1.907,4.15-4.01,7.684-6.309,10.599c-0.393-0.279-0.925-0.644-1.598-1.094c-0.673-0.447-1.262-0.784-1.767-1.009
			c2.355-2.804,4.429-6.126,6.225-9.968C149.943,40.269,151.373,36.217,152.439,31.954z M146.383,19.505h52.069v3.869h-16.908
			v43.068c0,1.346-0.183,2.342-0.547,2.986c-0.365,0.646-0.996,1.137-1.893,1.473c-0.898,0.281-2.16,0.463-3.785,0.547
			c-1.627,0.084-3.758,0.125-6.393,0.125c-0.057-0.447-0.239-1.051-0.547-1.809c-0.309-0.756-0.604-1.387-0.883-1.893
			c2.13,0.057,3.981,0.084,5.552,0.084c1.569,0,2.635,0,3.197,0c0.953-0.055,1.43-0.531,1.43-1.43V23.374h-10.683v9.085
			c0,3.196-0.155,6.491-0.463,9.884c-0.309,3.394-0.996,6.813-2.061,10.262c-1.066,3.449-2.664,6.801-4.794,10.052
			c-2.132,3.254-5.02,6.365-8.664,9.338c-0.336-0.449-0.814-0.926-1.43-1.43c-0.618-0.506-1.15-0.869-1.598-1.094
			c3.477-2.805,6.238-5.764,8.286-8.875c2.046-3.112,3.561-6.279,4.542-9.505c0.981-3.224,1.626-6.406,1.935-9.548
			c0.308-3.14,0.462-6.168,0.462-9.084v-9.085h-16.823V19.505z M168.421,6.046c1.346,1.907,2.692,3.982,4.038,6.225
			c1.346,2.243,2.383,4.179,3.112,5.804l-3.953,1.431c-0.729-1.683-1.725-3.659-2.986-5.931s-2.565-4.359-3.912-6.267L168.421,6.046
			z M185.498,33.468l3.364-1.093c1.514,2.354,2.958,4.907,4.333,7.654c1.373,2.748,2.579,5.44,3.617,8.075
			c1.037,2.637,1.78,4.963,2.229,6.981l-3.701,1.347c-0.393-2.02-1.081-4.36-2.061-7.024c-0.982-2.663-2.145-5.396-3.491-8.201
			C188.441,38.403,187.011,35.823,185.498,33.468z"/>
	</g>
	<g>
		<path fill="#999999" d="M146.438,103.278h0.49v9.539h4.917v0.462h-5.407V103.278z"/>
		<path fill="#999999" d="M154.055,103.627c0,0.28-0.084,0.49-0.42,0.49c-0.294,0-0.406-0.21-0.406-0.49
			c0-0.266,0.112-0.477,0.406-0.477C153.971,103.151,154.055,103.362,154.055,103.627z M153.873,113.279h-0.49v-7.41h0.49V113.279z"
			/>
		<path fill="#999999" d="M161.575,107.101h0.042l0.084-1.232h0.393v7.732c0,1.821-0.854,3.039-3.11,3.039
			c-1.121,0-1.933-0.224-2.62-0.518v-0.519c0.687,0.336,1.583,0.589,2.634,0.589c1.877,0,2.619-1.009,2.619-2.578v-0.546
			c0-0.505,0-0.841,0.028-1.345h-0.028c-0.364,1.12-1.289,1.694-2.619,1.694c-1.905,0-3.054-1.303-3.054-3.754
			c0-2.423,1.093-3.936,3.222-3.936C160.468,105.729,161.155,106.289,161.575,107.101z M156.448,109.679
			c0,2.143,0.924,3.291,2.577,3.291c2.087,0,2.591-1.555,2.591-3.138v-0.616c0-1.793-0.588-3.039-2.423-3.039
			C157.331,106.177,156.448,107.48,156.448,109.679z"/>
		<path fill="#999999" d="M165.1,106.247c0,0.421-0.014,0.715-0.028,1.107h0.028c0.322-0.869,1.177-1.625,2.662-1.625
			c1.625,0,2.549,0.854,2.549,2.703v4.847h-0.49v-4.833c0-1.568-0.756-2.269-2.087-2.269c-1.625,0-2.634,0.938-2.634,2.928v4.174
			h-0.49v-10.646h0.49V106.247z"/>
		<path fill="#999999" d="M175.644,112.802v0.435c-0.308,0.098-0.645,0.182-1.135,0.182c-1.289,0-1.765-0.756-1.765-2.129v-4.986
			h-1.121v-0.351l1.106-0.098l0.14-1.808h0.364v1.821h2.367v0.435h-2.367v4.944c0,1.121,0.322,1.723,1.303,1.723
			C174.985,112.97,175.335,112.901,175.644,112.802z"/>
	</g>
</g>
<g>
	<g>
		<path d="M259.934,45.959l2.86,1.094c-1.123,7.011-2.721,13.067-4.795,18.168c1.851,3.254,4.318,5.693,7.402,7.318
			c3.083,1.627,6.785,2.691,11.104,3.197c4.318,0.504,9.224,0.758,14.721,0.758c2.972,0,6.21-0.043,9.715-0.127
			c3.504-0.084,6.982-0.211,10.431-0.379s6.574-0.363,9.379-0.588c-0.393,0.617-0.757,1.484-1.094,2.607
			c-0.336,1.121-0.589,2.074-0.757,2.859c-3.926,0.223-8.37,0.393-13.333,0.504c-4.963,0.113-9.744,0.17-14.342,0.17
			c-5.945,0-11.146-0.281-15.604-0.842c-4.458-0.561-8.3-1.654-11.524-3.281c-3.226-1.625-5.93-4.037-8.117-7.234
			c-2.86,5.498-6.281,9.758-10.263,12.787c-0.393-0.619-0.982-1.334-1.767-2.145c-0.786-0.814-1.458-1.418-2.019-1.809
			c3.645-2.637,6.771-6.352,9.379-11.146c2.608-4.795,4.528-10.5,5.762-17.118h-7.486c-0.954,0-1.907,0.126-2.86,0.378
			c-0.954,0.253-1.57,0.52-1.851,0.8c-0.225-0.673-0.561-1.569-1.009-2.692c-0.449-1.121-0.841-1.962-1.178-2.523
			c0.617-0.168,1.248-0.434,1.893-0.799c0.644-0.364,1.304-0.911,1.977-1.641c0.616-0.673,1.514-1.851,2.692-3.532
			c1.177-1.683,2.41-3.519,3.701-5.51c1.289-1.99,2.439-3.799,3.449-5.426h-12.618v-4.711h15.898l0.841-0.421l3.87,1.683
			c-1.066,1.627-2.397,3.632-3.996,6.015c-1.598,2.384-3.226,4.795-4.879,7.234c-1.655,2.439-3.211,4.613-4.668,6.519h8.159
			L259.934,45.959z M261.195,18.873l-4.374,2.944c-0.729-1.178-1.655-2.552-2.776-4.122c-1.123-1.569-2.328-3.182-3.617-4.837
			c-1.291-1.653-2.523-3.182-3.701-4.584l4.29-2.355c1.233,1.346,2.495,2.818,3.786,4.416c1.289,1.599,2.509,3.142,3.659,4.627
			C259.61,16.448,260.522,17.752,261.195,18.873z M272.888,30.986l5.131,1.009c-1.123,4.431-2.637,8.721-4.542,12.87
			c-1.907,4.151-3.982,7.655-6.225,10.515c-0.505-0.392-1.207-0.841-2.103-1.346c-0.897-0.505-1.682-0.953-2.355-1.346
			c2.299-2.804,4.303-6.069,6.014-9.8C270.518,39.16,271.878,35.192,272.888,30.986z M290.805,5.33
			c1.289,1.796,2.537,3.758,3.743,5.889c1.205,2.132,2.172,4.01,2.902,5.636l-3.365,1.178h25.572v5.215h-16.319v41.386
			c0,1.627-0.21,2.846-0.631,3.658c-0.42,0.814-1.108,1.445-2.061,1.893c-1.009,0.395-2.37,0.646-4.08,0.758
			c-1.711,0.113-3.856,0.168-6.435,0.168c-0.056-0.561-0.281-1.373-0.673-2.439c-0.393-1.064-0.757-1.963-1.093-2.691
			c1.962,0.057,3.701,0.084,5.215,0.084c1.514,0,2.551,0,3.112,0c0.56-0.055,0.925-0.182,1.093-0.379
			c0.168-0.195,0.252-0.547,0.252-1.051V23.247h-9.253v9.085c0,3.142-0.155,6.407-0.463,9.8c-0.309,3.394-0.981,6.786-2.019,10.178
			c-1.039,3.394-2.608,6.729-4.71,10.011c-2.103,3.279-4.921,6.379-8.454,9.295c-0.449-0.617-1.108-1.262-1.977-1.936
			c-0.87-0.674-1.641-1.178-2.313-1.514c3.365-2.748,6.042-5.621,8.033-8.623c1.99-2.999,3.477-6.057,4.458-9.169
			c0.98-3.112,1.611-6.195,1.893-9.253c0.28-3.056,0.42-6.015,0.42-8.874v-9.001h-16.15v-5.215h24.058
			c-0.673-1.626-1.556-3.435-2.65-5.426c-1.093-1.99-2.201-3.855-3.322-5.594L290.805,5.33z M306.367,32.753l4.626-1.431
			c1.458,2.355,2.818,4.908,4.08,7.655c1.262,2.748,2.369,5.439,3.323,8.075c0.953,2.637,1.626,4.963,2.019,6.981l-4.963,1.683
			c-0.336-2.019-0.967-4.359-1.893-7.024c-0.925-2.662-2.005-5.396-3.238-8.201C309.086,37.688,307.768,35.107,306.367,32.753z"/>
	</g>
	<g>
		<path fill="#999999" d="M266.745,113.279l-6.121-9.049h-0.028c0.014,0.784,0.028,1.442,0.028,2.213v6.836h-0.477v-10.001h0.448
			l6.093,9.021h0.028c-0.014-0.658-0.014-1.484-0.014-2.171v-6.85h0.476v10.001H266.745z"/>
		<path fill="#999999" d="M272.651,113.418c-2.101,0-3.222-1.61-3.222-3.852c0-2.367,1.232-3.838,3.306-3.838
			c2.199,0,3.166,1.652,3.166,3.838C275.9,111.794,274.85,113.418,272.651,113.418z M272.651,112.97c1.905,0,2.746-1.4,2.746-3.403
			c0-1.905-0.756-3.39-2.676-3.39c-1.793,0-2.787,1.261-2.787,3.39C269.934,111.583,270.816,112.97,272.651,112.97z"/>
		<path fill="#999999" d="M281.821,105.897l-0.084,0.448c-0.336-0.099-0.63-0.141-1.022-0.141c-1.499,0-2.241,1.149-2.241,2.942
			v4.132h-0.49v-7.41h0.434l0.042,1.401h0.028c0.294-0.841,1.064-1.514,2.241-1.514
			C281.149,105.756,281.499,105.798,281.821,105.897z"/>
		<path fill="#999999" d="M292.997,108.25v5.028h-0.49v-5.015c0-1.457-0.757-2.087-1.779-2.087c-1.401,0-2.339,0.771-2.339,2.605
			v4.496h-0.49v-5.015c0-1.457-0.756-2.087-1.779-2.087c-1.331,0-2.339,0.784-2.339,2.647v4.454h-0.49v-7.41h0.392l0.084,1.303
			h0.028c0.322-0.7,1.008-1.442,2.353-1.442c1.051,0,1.821,0.518,2.087,1.484h0.028c0.378-0.896,1.219-1.484,2.494-1.484
			C292.086,105.729,292.997,106.513,292.997,108.25z"/>
		<path fill="#999999" d="M300.231,108.348v4.931h-0.392l-0.07-1.387h-0.042c-0.42,0.854-1.19,1.526-2.661,1.526
			c-1.471,0-2.255-0.756-2.255-1.988c0-1.471,1.289-2.199,3.53-2.325l1.415-0.07v-0.589c0-1.61-0.63-2.269-1.877-2.269
			c-0.757,0-1.429,0.182-2.199,0.56l-0.168-0.434c0.729-0.336,1.527-0.561,2.368-0.561
			C299.447,105.743,300.231,106.542,300.231,108.348z M298.382,109.525c-1.905,0.084-3.054,0.658-3.054,1.905
			c0,0.98,0.645,1.555,1.779,1.555c1.779,0,2.619-1.121,2.647-2.773v-0.757L298.382,109.525z"/>
		<path fill="#999999" d="M302.651,113.279v-10.646h0.49v10.646H302.651z"/>
	</g>
</g>
<g>
	<g>
		<path d="M380.888,45.707L384,46.8c-1.009,7.01-2.523,13.01-4.542,18.001c1.794,3.253,4.206,5.692,7.234,7.318
			c3.028,1.627,6.658,2.691,10.893,3.196c4.233,0.505,9.043,0.757,14.426,0.757c3.028,0,6.309-0.042,9.841-0.126
			c3.533-0.084,7.052-0.224,10.558-0.421c3.504-0.195,6.687-0.406,9.547-0.631c-0.449,0.673-0.855,1.626-1.22,2.86
			c-0.365,1.232-0.631,2.271-0.799,3.112c-3.982,0.224-8.469,0.392-13.459,0.505c-4.992,0.111-9.814,0.168-14.468,0.168
			c-5.833,0-10.964-0.281-15.394-0.841c-4.431-0.562-8.23-1.641-11.398-3.239c-3.169-1.598-5.846-3.995-8.033-7.191
			c-2.86,5.496-6.281,9.757-10.262,12.785c-0.393-0.673-1.024-1.459-1.893-2.354c-0.87-0.898-1.613-1.571-2.229-2.02
			c3.588-2.635,6.673-6.294,9.253-10.978c2.579-4.682,4.486-10.275,5.72-16.781h-7.15c-0.954,0-1.907,0.126-2.86,0.379
			c-0.954,0.252-1.598,0.519-1.935,0.799c-0.168-0.729-0.504-1.683-1.009-2.86c-0.505-1.177-0.925-2.073-1.262-2.691
			c0.616-0.224,1.262-0.505,1.935-0.841c0.673-0.337,1.346-0.896,2.019-1.683c0.616-0.673,1.472-1.809,2.565-3.407
			c1.094-1.598,2.271-3.364,3.533-5.299c1.262-1.935,2.369-3.687,3.323-5.258h-12.197v-5.131h15.814l0.925-0.421l4.122,1.767
			c-1.066,1.571-2.37,3.533-3.911,5.889c-1.543,2.355-3.142,4.752-4.795,7.191c-1.655,2.439-3.183,4.613-4.584,6.52h7.571
			L380.888,45.707z M382.486,18.705l-4.879,3.112c-0.729-1.178-1.655-2.551-2.776-4.122c-1.122-1.569-2.328-3.182-3.617-4.837
			c-1.291-1.653-2.524-3.154-3.701-4.5l4.794-2.607c1.794,2.075,3.672,4.318,5.636,6.729
			C379.906,14.892,381.42,16.967,382.486,18.705z M393.674,30.649l5.636,1.01c-1.123,4.487-2.622,8.805-4.5,12.954
			c-1.879,4.15-3.94,7.654-6.183,10.515c-0.561-0.448-1.318-0.953-2.271-1.514c-0.954-0.561-1.823-1.037-2.608-1.431
			c2.299-2.804,4.29-6.057,5.973-9.758C391.402,38.724,392.719,34.8,393.674,30.649z M412.348,5.078
			c1.233,1.738,2.439,3.659,3.617,5.762c1.178,2.104,2.103,3.94,2.776,5.51l-3.196,1.094h25.151v5.72h-16.066v40.797
			c0,1.739-0.21,3.043-0.631,3.912c-0.421,0.87-1.136,1.556-2.146,2.061c-1.065,0.393-2.468,0.646-4.206,0.757
			c-1.739,0.113-3.898,0.169-6.477,0.169c-0.056-0.561-0.281-1.443-0.673-2.65c-0.393-1.205-0.786-2.173-1.178-2.901
			c1.851,0.056,3.533,0.084,5.047,0.084s2.551,0,3.112,0c0.56-0.056,0.925-0.182,1.093-0.379c0.168-0.195,0.252-0.547,0.252-1.052
			V23.163h-8.664v9.085c0,3.142-0.155,6.407-0.462,9.8c-0.309,3.394-0.982,6.786-2.019,10.178c-1.038,3.394-2.595,6.717-4.668,9.968
			c-2.075,3.254-4.879,6.338-8.412,9.253c-0.505-0.616-1.22-1.304-2.145-2.061s-1.781-1.331-2.566-1.725
			c3.308-2.691,5.943-5.522,7.907-8.495c1.962-2.972,3.42-6,4.374-9.085c0.953-3.084,1.569-6.141,1.851-9.169
			c0.28-3.028,0.42-5.943,0.42-8.748v-9.001h-15.898v-5.72h23.637c-0.673-1.626-1.514-3.378-2.524-5.258
			c-1.009-1.878-2.047-3.63-3.112-5.257L412.348,5.078z M427.32,32.416l5.132-1.514c1.4,2.355,2.719,4.907,3.953,7.654
			c1.233,2.748,2.313,5.44,3.238,8.075c0.926,2.637,1.584,4.963,1.978,6.982l-5.468,1.766c-0.337-2.019-0.94-4.359-1.809-7.023
			c-0.87-2.663-1.922-5.396-3.154-8.201C429.956,37.351,428.667,34.771,427.32,32.416z"/>
	</g>
	<g>
		<path fill="#999999" d="M386.018,105.953c0,1.499-0.854,2.382-2.213,2.76l2.745,4.566h-0.602l-2.647-4.427h-2.662v4.427h-0.49
			v-10.001h2.297C384.786,103.278,386.018,103.908,386.018,105.953z M380.639,103.726v4.664h2.171c1.625,0,2.703-0.868,2.703-2.423
			c0-1.724-1.022-2.241-3.124-2.241H380.639z"/>
		<path fill="#999999" d="M393.662,109.174v0.406h-5.463c-0.014,2.172,1.008,3.39,2.872,3.39c0.91,0,1.442-0.111,2.297-0.49v0.477
			c-0.714,0.322-1.387,0.462-2.311,0.462c-2.297,0-3.362-1.555-3.362-3.781c0-2.13,1.079-3.908,3.222-3.908
			C392.808,105.729,393.662,107.213,393.662,109.174z M388.227,109.147h4.931c0-1.766-0.729-2.984-2.241-2.984
			C389.39,106.163,388.381,107.213,388.227,109.147z"/>
		<path fill="#999999" d="M400.927,107.101h0.042l0.084-1.232h0.393v7.732c0,1.821-0.854,3.039-3.11,3.039
			c-1.121,0-1.933-0.224-2.62-0.518v-0.519c0.687,0.336,1.583,0.589,2.634,0.589c1.877,0,2.619-1.009,2.619-2.578v-0.546
			c0-0.505,0-0.841,0.028-1.345h-0.028c-0.364,1.12-1.289,1.694-2.619,1.694c-1.905,0-3.054-1.303-3.054-3.754
			c0-2.423,1.093-3.936,3.222-3.936C399.821,105.729,400.507,106.289,400.927,107.101z M395.801,109.679
			c0,2.143,0.924,3.291,2.577,3.291c2.087,0,2.591-1.555,2.591-3.138v-0.616c0-1.793-0.588-3.039-2.423-3.039
			C396.683,106.177,395.801,107.48,395.801,109.679z"/>
		<path fill="#999999" d="M409.552,113.279h-0.393l-0.07-1.471h-0.028c-0.35,0.841-1.163,1.61-2.647,1.61
			c-1.681,0-2.55-0.924-2.55-2.689v-4.86h0.477v4.791c0,1.597,0.742,2.311,2.101,2.311c1.611,0,2.633-0.938,2.633-2.913v-4.188
			h0.477V113.279z"/>
		<path fill="#999999" d="M412.083,113.279v-10.646h0.49v10.646H412.083z"/>
		<path fill="#999999" d="M419.911,108.348v4.931h-0.392l-0.07-1.387h-0.042c-0.42,0.854-1.19,1.526-2.661,1.526
			s-2.255-0.756-2.255-1.988c0-1.471,1.289-2.199,3.53-2.325l1.415-0.07v-0.589c0-1.61-0.63-2.269-1.877-2.269
			c-0.757,0-1.429,0.182-2.199,0.56l-0.168-0.434c0.729-0.336,1.527-0.561,2.368-0.561
			C419.127,105.743,419.911,106.542,419.911,108.348z M418.062,109.525c-1.905,0.084-3.054,0.658-3.054,1.905
			c0,0.98,0.645,1.555,1.779,1.555c1.779,0,2.619-1.121,2.647-2.773v-0.757L418.062,109.525z"/>
		<path fill="#999999" d="M426.169,105.897l-0.084,0.448c-0.336-0.099-0.631-0.141-1.023-0.141c-1.498,0-2.24,1.149-2.24,2.942
			v4.132h-0.49v-7.41h0.434l0.042,1.401h0.028c0.294-0.841,1.064-1.514,2.24-1.514C425.497,105.756,425.847,105.798,426.169,105.897
			z"/>
	</g>
</g>
<g>
	<g>
		<path d="M501.842,45.118l3.785,1.346c-0.113,0.729-0.225,1.444-0.337,2.146s-0.252,1.388-0.42,2.061
			c2.299-2.804,4.206-5.973,5.72-9.505c1.515-3.533,2.72-7.318,3.617-11.356l6.813,1.262c-1.065,4.487-2.523,8.791-4.374,12.912
			c-1.851,4.122-3.869,7.585-6.057,10.389c-0.673-0.505-1.612-1.079-2.817-1.725c-1.207-0.644-2.202-1.163-2.986-1.556
			c-0.45,2.355-0.954,4.599-1.515,6.729c-0.561,2.132-1.206,4.151-1.935,6.055c1.737,3.254,4.051,5.666,6.939,7.234
			c2.888,1.572,6.364,2.607,10.431,3.113c4.065,0.504,8.678,0.756,13.838,0.756c3.028,0,6.363-0.041,10.01-0.125
			c3.645-0.084,7.289-0.225,10.936-0.42c3.645-0.197,6.952-0.436,9.926-0.717c-0.562,0.787-1.052,1.922-1.473,3.408
			c-0.42,1.484-0.743,2.732-0.967,3.742c-4.15,0.281-8.748,0.477-13.796,0.59c-5.047,0.111-9.954,0.168-14.72,0.168
			c-5.608,0-10.558-0.268-14.848-0.799c-4.289-0.533-7.99-1.6-11.104-3.197c-3.112-1.598-5.762-3.967-7.948-7.107
			c-1.402,2.691-2.944,5.09-4.627,7.191c-1.683,2.104-3.505,3.912-5.468,5.426c-0.505-0.785-1.276-1.725-2.313-2.818
			c-1.038-1.094-1.921-1.893-2.649-2.396c3.477-2.523,6.463-6.043,8.959-10.557c2.494-4.514,4.359-9.855,5.594-16.025h-6.309
			c-0.955,0-1.922,0.126-2.902,0.379c-0.982,0.252-1.641,0.519-1.977,0.799c-0.226-0.841-0.618-1.948-1.178-3.322
			c-0.562-1.374-1.039-2.425-1.431-3.154c0.617-0.169,1.262-0.435,1.936-0.8c0.673-0.364,1.346-0.938,2.019-1.725
			c0.56-0.616,1.346-1.64,2.355-3.07c1.009-1.43,2.088-3.027,3.238-4.794c1.148-1.767,2.173-3.407,3.07-4.921h-11.271V24.51h15.646
			l0.925-0.337l4.879,1.935c-1.009,1.571-2.258,3.506-3.743,5.805c-1.486,2.3-3.015,4.626-4.584,6.981
			c-1.57,2.355-3.058,4.487-4.458,6.393h6.393L501.842,45.118z M504.028,18.2l-5.972,3.87c-0.673-1.178-1.571-2.566-2.692-4.164
			c-1.122-1.599-2.313-3.225-3.574-4.879c-1.262-1.653-2.481-3.154-3.659-4.5l5.804-3.281c1.794,2.075,3.659,4.319,5.594,6.729
			C501.463,14.388,502.963,16.463,504.028,18.2z M534.563,4.489c1.121,1.683,2.242,3.52,3.364,5.51
			c1.121,1.991,1.99,3.743,2.608,5.258l-2.523,0.841h23.805v6.981H546.34v39.283c0,2.02-0.225,3.533-0.673,4.543
			c-0.449,1.01-1.262,1.795-2.439,2.355c-1.122,0.504-2.595,0.842-4.416,1.01c-1.823,0.168-3.968,0.252-6.436,0.252
			c-0.056-0.674-0.336-1.768-0.841-3.281s-0.981-2.719-1.43-3.617c1.737,0.057,3.336,0.084,4.795,0.084c1.457,0,2.467,0,3.027,0
			c0.561-0.055,0.926-0.182,1.094-0.377c0.168-0.197,0.253-0.547,0.253-1.053V23.079h-7.402v9.085c0,3.142-0.155,6.393-0.463,9.758
			c-0.309,3.364-0.968,6.729-1.977,10.094c-1.01,3.365-2.523,6.66-4.543,9.883c-2.019,3.227-4.767,6.268-8.243,9.127
			c-0.618-0.729-1.501-1.555-2.649-2.48c-1.15-0.926-2.202-1.641-3.155-2.145c3.197-2.58,5.733-5.313,7.613-8.203
			c1.878-2.888,3.28-5.817,4.206-8.79c0.925-2.972,1.527-5.931,1.809-8.874c0.279-2.944,0.42-5.763,0.42-8.454v-9.001h-15.225
			v-6.981h22.627c-0.617-1.515-1.346-3.112-2.187-4.795c-0.842-1.683-1.739-3.224-2.692-4.626L534.563,4.489z M548.19,31.743
			l6.225-1.851c1.29,2.412,2.523,4.992,3.701,7.739c1.178,2.748,2.2,5.426,3.07,8.033c0.869,2.607,1.473,4.921,1.809,6.939
			l-6.646,2.104c-0.281-2.02-0.828-4.36-1.64-7.024c-0.813-2.663-1.781-5.396-2.902-8.201
			C550.686,36.679,549.479,34.099,548.19,31.743z"/>
	</g>
	<g>
		<path fill="#999999" d="M500.103,103.866h-0.042c0.028,0.49,0.028,0.868,0.028,1.387v8.026h-0.477v-10.001h0.771l3.712,9.175
			h0.042l3.727-9.175h0.742v10.001h-0.49v-8.11c0-0.378,0.014-0.799,0.027-1.289h-0.027l-3.824,9.399h-0.378L500.103,103.866z"/>
		<path fill="#999999" d="M516.82,109.174v0.406h-5.463c-0.014,2.172,1.009,3.39,2.872,3.39c0.91,0,1.442-0.111,2.297-0.49v0.477
			c-0.714,0.322-1.387,0.462-2.312,0.462c-2.297,0-3.361-1.555-3.361-3.781c0-2.13,1.078-3.908,3.222-3.908
			C515.966,105.729,516.82,107.213,516.82,109.174z M511.386,109.147h4.931c0-1.766-0.729-2.984-2.241-2.984
			C512.549,106.163,511.54,107.213,511.386,109.147z"/>
		<path fill="#999999" d="M518.456,109.693c0-2.563,1.162-3.964,3.235-3.964c1.317,0,2.13,0.714,2.452,1.652h0.042
			c-0.028-0.588-0.042-1.177-0.042-1.709v-3.039h0.49v10.646h-0.406l-0.042-1.499h-0.042c-0.351,0.896-1.121,1.639-2.55,1.639
			C519.507,113.418,518.456,112.116,518.456,109.693z M524.144,109.623v-0.069c0-2.186-0.757-3.376-2.424-3.376
			c-1.779,0-2.76,1.19-2.76,3.516c0,2.186,0.854,3.277,2.662,3.277C523.442,112.97,524.144,111.738,524.144,109.623z"/>
		<path fill="#999999" d="M527.794,103.627c0,0.28-0.084,0.49-0.42,0.49c-0.294,0-0.406-0.21-0.406-0.49
			c0-0.266,0.112-0.477,0.406-0.477C527.71,103.151,527.794,103.362,527.794,103.627z M527.612,113.279h-0.49v-7.41h0.49V113.279z"
			/>
		<path fill="#999999" d="M535.707,113.279h-0.393l-0.07-1.471h-0.027c-0.351,0.841-1.163,1.61-2.647,1.61
			c-1.682,0-2.55-0.924-2.55-2.689v-4.86h0.477v4.791c0,1.597,0.742,2.311,2.101,2.311c1.611,0,2.634-0.938,2.634-2.913v-4.188
			h0.477V113.279z"/>
		<path fill="#999999" d="M547.932,108.25v5.028h-0.49v-5.015c0-1.457-0.757-2.087-1.779-2.087c-1.4,0-2.339,0.771-2.339,2.605
			v4.496h-0.49v-5.015c0-1.457-0.757-2.087-1.779-2.087c-1.331,0-2.339,0.784-2.339,2.647v4.454h-0.49v-7.41h0.392l0.084,1.303
			h0.028c0.322-0.7,1.009-1.442,2.354-1.442c1.05,0,1.82,0.518,2.087,1.484h0.028c0.378-0.896,1.219-1.484,2.493-1.484
			C547.021,105.729,547.932,106.513,547.932,108.25z"/>
	</g>
</g>
<g>
	<g>
		<path d="M622.796,44.108l4.709,1.683c0,0.225-0.027,0.365-0.084,0.42c1.684-2.523,3.084-5.271,4.207-8.243
			c1.121-2.972,2.018-6.168,2.691-9.59l8.748,1.599c-0.953,4.542-2.328,8.861-4.121,12.954c-1.797,4.094-3.758,7.543-5.889,10.347
			c-0.73-0.505-1.67-1.052-2.818-1.641c-1.15-0.589-2.285-1.163-3.406-1.725c-0.393,2.244-0.855,4.403-1.389,6.478
			c-0.533,2.075-1.107,4.066-1.725,5.972c1.627,3.197,3.785,5.566,6.479,7.107c2.691,1.543,5.93,2.553,9.715,3.029
			s8.088,0.715,12.912,0.715c3.027,0,6.447-0.055,10.262-0.168s7.656-0.281,11.525-0.506c3.869-0.223,7.402-0.475,10.598-0.756
			c-0.729,1.064-1.375,2.537-1.934,4.416c-0.563,1.877-0.982,3.49-1.262,4.836c-4.375,0.225-9.127,0.406-14.258,0.547
			c-5.133,0.139-10.166,0.211-15.1,0.211c-5.328,0-10.025-0.268-14.09-0.799c-4.066-0.535-7.6-1.572-10.6-3.113
			c-3-1.543-5.566-3.828-7.695-6.855c-1.402,2.58-2.932,4.893-4.586,6.939s-3.463,3.799-5.426,5.258
			c-0.449-0.674-1.051-1.43-1.809-2.271c-0.756-0.842-1.555-1.67-2.396-2.48c-0.842-0.814-1.57-1.445-2.188-1.893
			c3.365-2.412,6.238-5.691,8.623-9.842c2.383-4.15,4.164-9.057,5.342-14.721h-5.047c-0.898,0-1.865,0.126-2.902,0.378
			c-1.039,0.253-1.725,0.547-2.063,0.884c-0.168-0.673-0.449-1.527-0.84-2.565c-0.393-1.037-0.799-2.047-1.221-3.028
			c-0.42-0.98-0.799-1.752-1.135-2.313c0.672-0.224,1.359-0.532,2.061-0.926c0.701-0.392,1.416-1.009,2.145-1.851
			c0.449-0.504,1.08-1.346,1.893-2.523s1.695-2.509,2.65-3.995c0.953-1.485,1.85-2.93,2.691-4.332h-9.758v-7.907h15.479l0.84-0.337
			l6.057,2.439c-0.953,1.515-2.102,3.352-3.447,5.51c-1.346,2.16-2.734,4.361-4.164,6.604c-1.43,2.243-2.818,4.319-4.164,6.225
			h4.289L622.796,44.108z M625.907,17.358l-7.822,5.048c-0.674-1.233-1.557-2.636-2.65-4.206c-1.094-1.569-2.258-3.183-3.49-4.837
			c-1.234-1.653-2.439-3.182-3.617-4.585l7.57-4.205c1.795,2.075,3.645,4.304,5.553,6.688
			C623.354,13.645,624.841,15.677,625.907,17.358z M657.62,3.479c0.953,1.57,1.906,3.268,2.859,5.089
			c0.953,1.823,1.738,3.464,2.355,4.921l-1.262,0.421h21.449v9h-14.551v36.844c0,2.413-0.254,4.249-0.758,5.51
			s-1.43,2.258-2.775,2.986c-1.234,0.672-2.818,1.107-4.754,1.303c-1.934,0.197-4.135,0.295-6.602,0.295
			c0-0.561-0.156-1.4-0.463-2.523c-0.309-1.121-0.674-2.271-1.094-3.449s-0.828-2.131-1.221-2.859
			c1.516,0.057,2.957,0.084,4.332,0.084s2.342,0,2.902,0c0.561-0.055,0.912-0.182,1.053-0.378c0.139-0.196,0.209-0.547,0.209-1.052
			V22.91h-5.215v9.001c0,3.085-0.154,6.309-0.463,9.674c-0.309,3.364-0.953,6.729-1.934,10.094c-0.982,3.365-2.455,6.632-4.418,9.8
			c-1.963,3.168-4.598,6.154-7.906,8.959c-0.898-0.953-2.104-2.033-3.617-3.24c-1.514-1.205-2.859-2.115-4.037-2.732
			c4.037-3.252,7.01-6.744,8.916-10.473c1.906-3.729,3.125-7.486,3.66-11.271c0.531-3.786,0.799-7.416,0.799-10.894V22.91h-14.301
			v-9h20.945c-0.504-1.289-1.066-2.579-1.682-3.869c-0.619-1.29-1.234-2.524-1.852-3.701L657.62,3.479z M668.976,30.649l8.076-2.271
			c1.178,2.412,2.283,4.978,3.322,7.697c1.037,2.721,1.934,5.384,2.691,7.991s1.275,4.949,1.557,7.023l-8.664,2.607
			c-0.225-2.019-0.674-4.374-1.346-7.065c-0.674-2.691-1.502-5.438-2.482-8.243C671.147,35.585,670.097,33.005,668.976,30.649z"/>
	</g>
	<g>
		<path fill="#999999" d="M634.804,103.278c2.451,0,3.488,0.784,3.488,2.423c0,1.135-0.688,2.073-1.975,2.297v0.028
			c1.596,0.252,2.227,1.106,2.227,2.409c0,2.031-1.484,2.844-3.545,2.844h-2.898v-10.001H634.804z M634.944,107.802
			c1.947,0,2.828-0.701,2.828-2.073c0-1.415-0.896-2.003-2.996-2.003h-2.186v4.076H634.944z M632.591,112.831h2.479
			c1.877,0,2.971-0.757,2.971-2.396c0-1.625-1.135-2.185-3.125-2.185h-2.324V112.831z"/>
		<path fill="#999999" d="M643.358,113.418c-2.102,0-3.223-1.61-3.223-3.852c0-2.367,1.232-3.838,3.307-3.838
			c2.199,0,3.166,1.652,3.166,3.838C646.608,111.794,645.558,113.418,643.358,113.418z M643.358,112.97
			c1.904,0,2.744-1.4,2.744-3.403c0-1.905-0.756-3.39-2.674-3.39c-1.793,0-2.789,1.261-2.789,3.39
			C640.64,111.583,641.522,112.97,643.358,112.97z"/>
		<path fill="#999999" d="M648.69,113.279v-10.646h0.49v10.646H648.69z"/>
		<path fill="#999999" d="M651.237,109.693c0-2.563,1.162-3.964,3.236-3.964c1.316,0,2.129,0.714,2.451,1.652h0.043
			c-0.029-0.588-0.043-1.177-0.043-1.709v-3.039h0.49v10.646h-0.406l-0.041-1.499h-0.043c-0.35,0.896-1.121,1.639-2.549,1.639
			C652.288,113.418,651.237,112.116,651.237,109.693z M656.925,109.623v-0.069c0-2.186-0.756-3.376-2.424-3.376
			c-1.779,0-2.76,1.19-2.76,3.516c0,2.186,0.855,3.277,2.662,3.277C656.224,112.97,656.925,111.738,656.925,109.623z"/>
	</g>
</g>
<g>
	<g>
		<path d="M743.665,43.099l4.29,1.514c1.683-2.523,3.057-5.229,4.122-8.117c1.064-2.888,1.878-6.042,2.439-9.463l10.683,1.935
			c-0.897,4.542-2.201,8.861-3.911,12.954c-1.711,4.094-3.632,7.515-5.762,10.262c-0.729-0.56-1.712-1.163-2.944-1.809
			c-1.234-0.644-2.469-1.247-3.701-1.809c-0.337,2.244-0.729,4.375-1.178,6.394c-0.449,2.019-0.954,3.982-1.514,5.888
			c1.514,3.142,3.504,5.468,5.972,6.982c2.467,1.514,5.439,2.496,8.917,2.943c3.477,0.451,7.457,0.703,11.944,0.758
			c3.028,0,6.532-0.07,10.515-0.211c3.981-0.139,8.033-0.32,12.155-0.547c4.122-0.223,7.865-0.504,11.229-0.84
			c-0.562,0.785-1.094,1.85-1.598,3.195c-0.505,1.346-0.955,2.734-1.347,4.164c-0.393,1.43-0.701,2.705-0.925,3.828
			c-4.599,0.279-9.52,0.49-14.763,0.631c-5.244,0.139-10.418,0.211-15.52,0.211c-4.992,0-9.422-0.268-13.291-0.801
			s-7.234-1.555-10.094-3.07c-2.86-1.514-5.356-3.729-7.486-6.645c-2.749,5.158-6.029,9.141-9.842,11.945
			c-0.505-0.787-1.234-1.711-2.188-2.777c-0.954-1.064-1.935-2.088-2.944-3.07c-1.009-0.98-1.907-1.723-2.691-2.229
			c6.616-4.598,11.074-12.141,13.375-22.627h-3.785c-0.842,0-1.796,0.126-2.86,0.379c-1.066,0.252-1.796,0.575-2.188,0.967
			c-0.168-0.841-0.491-1.863-0.967-3.07c-0.478-1.205-0.954-2.397-1.431-3.574c-0.477-1.178-0.912-2.104-1.304-2.776
			c0.729-0.224,1.443-0.532,2.146-0.925c0.7-0.393,1.415-1.037,2.145-1.936c0.617-0.616,1.473-1.779,2.565-3.49
			c1.094-1.71,2.229-3.519,3.407-5.426h-8.328v-9.59h15.226l0.926-0.336l7.233,2.775c-0.897,1.515-1.949,3.295-3.154,5.342
			c-1.206,2.048-2.468,4.136-3.785,6.267c-1.318,2.132-2.622,4.15-3.911,6.057h2.271L743.665,43.099z M747.787,16.602l-9.589,6.141
			c-0.618-1.233-1.473-2.65-2.566-4.248c-1.093-1.599-2.258-3.225-3.49-4.879c-1.234-1.653-2.412-3.183-3.533-4.585l9.253-5.131
			c1.794,2.019,3.63,4.206,5.51,6.562C745.249,12.815,746.722,14.863,747.787,16.602z M751.909,11.723h19.431
			c-0.393-0.953-0.771-1.921-1.135-2.902c-0.366-0.98-0.771-1.92-1.22-2.818l11.692-3.448c0.784,1.402,1.569,2.916,2.354,4.542
			c0.785,1.627,1.458,3.169,2.02,4.627h19.179v11.02h-13.627v6.561l9-2.439c1.064,2.412,2.062,4.978,2.986,7.697
			c0.926,2.721,1.71,5.37,2.355,7.949c0.644,2.58,1.079,4.907,1.304,6.981l-10.599,3.112c-0.113-1.794-0.421-3.883-0.926-6.267
			c-0.504-2.383-1.107-4.837-1.809-7.36s-1.472-4.935-2.313-7.234v25.403c0,2.917-0.281,5.119-0.842,6.603
			c-0.561,1.486-1.598,2.65-3.112,3.492c-1.402,0.785-3.141,1.303-5.215,1.555c-2.075,0.254-4.29,0.379-6.646,0.379
			c0-0.672-0.183-1.682-0.547-3.027c-0.365-1.346-0.786-2.762-1.262-4.248c-0.478-1.486-0.968-2.677-1.472-3.576
			c1.289,0.057,2.578,0.084,3.869,0.084c1.289,0,2.215,0,2.775,0c0.561-0.055,0.896-0.181,1.01-0.378
			c0.111-0.196,0.168-0.547,0.168-1.052V22.742h-3.112v9c0,3.085-0.155,6.296-0.462,9.632c-0.31,3.337-0.926,6.674-1.851,10.01
			c-0.926,3.337-2.343,6.575-4.248,9.716c-1.907,3.141-4.459,6.057-7.655,8.748c-0.673-0.785-1.57-1.641-2.691-2.566
			c-1.123-0.926-2.271-1.822-3.449-2.691s-2.271-1.557-3.28-2.061c3.813-3.083,6.604-6.378,8.37-9.884
			c1.766-3.504,2.915-7.065,3.448-10.683c0.532-3.617,0.799-7.079,0.799-10.389v-8.832h-13.29V11.723z"/>
	</g>
	<g>
		<path fill="#999999" d="M755.173,113.279v-5.028h-6.121v5.028h-0.49v-10.001h0.49v4.524h6.121v-4.524h0.49v10.001H755.173z"/>
		<path fill="#999999" d="M763.866,109.174v0.406h-5.463c-0.014,2.172,1.009,3.39,2.872,3.39c0.91,0,1.442-0.111,2.297-0.49v0.477
			c-0.714,0.322-1.387,0.462-2.312,0.462c-2.297,0-3.361-1.555-3.361-3.781c0-2.13,1.078-3.908,3.222-3.908
			C763.012,105.729,763.866,107.213,763.866,109.174z M758.432,109.147h4.931c0-1.766-0.729-2.984-2.241-2.984
			C759.595,106.163,758.586,107.213,758.432,109.147z"/>
		<path fill="#999999" d="M770.782,108.348v4.931h-0.393l-0.07-1.387h-0.042c-0.42,0.854-1.19,1.526-2.661,1.526
			s-2.256-0.756-2.256-1.988c0-1.471,1.289-2.199,3.53-2.325l1.415-0.07v-0.589c0-1.61-0.631-2.269-1.877-2.269
			c-0.757,0-1.429,0.182-2.199,0.56l-0.168-0.434c0.729-0.336,1.526-0.561,2.367-0.561
			C769.997,105.743,770.782,106.542,770.782,108.348z M768.933,109.525c-1.905,0.084-3.054,0.658-3.054,1.905
			c0,0.98,0.645,1.555,1.779,1.555c1.779,0,2.619-1.121,2.647-2.773v-0.757L768.933,109.525z"/>
		<path fill="#999999" d="M771.94,105.869h0.504l2.031,5.309c0.238,0.617,0.393,1.051,0.532,1.514h0.028
			c0.168-0.463,0.309-0.911,0.546-1.514l2.031-5.309h0.505l-2.858,7.41h-0.462L771.94,105.869z"/>
		<path fill="#999999" d="M778.633,105.869l1.877,4.889c0.322,0.868,0.546,1.485,0.687,1.905h0.027
			c0.141-0.406,0.351-1.037,0.673-1.863l1.891-4.931h0.505l-3.446,8.937c-0.477,1.247-0.994,1.878-1.989,1.878
			c-0.294,0-0.532-0.057-0.798-0.141v-0.448c0.266,0.084,0.476,0.141,0.771,0.141c0.728,0,1.148-0.448,1.582-1.583l0.547-1.443
			l-2.844-7.34H778.633z"/>
	</g>
</g>
<g>
</g>
<g>
</g>
<g>
</g>
<g>
</g>
<g>
</g>
<g>
</g>
</svg>
