<?xml version="1.0" encoding="utf-8"?>
<!-- Generator: Adobe Illustrator 16.0.0, SVG Export Plug-In . SVG Version: 6.00 Build 0)  -->
<!DOCTYPE svg PUBLIC "-//W3C//DTD SVG 1.1//EN" "http://www.w3.org/Graphics/SVG/1.1/DTD/svg11.dtd">
<svg version="1.1" id="Layer_1" xmlns="http://www.w3.org/2000/svg" xmlns:xlink="http://www.w3.org/1999/xlink" x="0px" y="0px"
	 width="100px" height="100px" viewBox="0 0 100 100" enable-background="new 0 0 100 100" xml:space="preserve">
<g>
	<path d="M12.201,71.4v12.4h-4.1V13.597h18.401V71.4H12.201z M12.201,17.897V67.1h10.2V17.897H12.201z M35.502,47.499
		C34.402,60,32.302,71.6,28.001,79.5c-0.7-0.699-2.399-1.699-3.5-2.299c4.5-7.501,6.101-18.502,7-30.202L35.502,47.499z
		 M52.203,41.099v49.003c0,2.4-0.5,3.301-1.9,4.1c-1.5,0.701-3.801,0.701-7.4,0.701c-0.2-1-0.8-2.5-1.4-3.602h5.801
		c0.699,0,1-0.299,1-1.1V41.099h-7.601v54.003h-3.801V41.099h-7.6v-4.3h13.601V23.297H31.202v-4.2h11.701V4.796h4.5v14.301h11.701
		v4.2H47.403v13.501h12.501v4.3H52.203z M56.203,47.999c2,4.7,4.1,10.601,5.102,15.001c1.398-4.801,2.199-10.201,2.699-15.901
		l3.9,0.5c-1.201,11.1-3.5,21-8.102,27.702c-0.699-0.6-2.398-1.801-3.398-2.301c1.898-2.6,3.398-5.5,4.5-8.8L57.803,65
		c-0.699-4.4-2.799-11.101-5.1-16.301L56.203,47.999z M85.404,41.099v49.103c0,2.301-0.5,3.301-1.898,4
		c-1.4,0.701-3.701,0.801-7.301,0.801c-0.201-1-0.9-2.6-1.5-3.6h5.801c0.799,0,1-0.301,1-1.102V41.099h-8.301v54.304h-3.801V41.099
		h-7.201v-4.3h13.402V23.297H64.104v-4.2h11.502V4.796h4.5v14.301h13.801v4.2H80.105v13.501h15.4v4.3H85.404z M89.506,46.099
		c3.1,8.5,5.9,19.5,6.801,26.702L92.406,74c-0.801-7.199-3.602-18.201-6.502-26.701L89.506,46.099z"/>
</g>
<g>
</g>
<g>
</g>
<g>
</g>
<g>
</g>
<g>
</g>
<g>
</g>
</svg>
