<?xml version="1.0" encoding="utf-8"?>
<!-- Generator: Adobe Illustrator 16.0.0, SVG Export Plug-In . SVG Version: 6.00 Build 0)  -->
<!DOCTYPE svg PUBLIC "-//W3C//DTD SVG 1.1//EN" "http://www.w3.org/Graphics/SVG/1.1/DTD/svg11.dtd">
<svg version="1.1" id="Layer_1" xmlns="http://www.w3.org/2000/svg" xmlns:xlink="http://www.w3.org/1999/xlink" x="0px" y="0px"
	 width="100px" height="100px" viewBox="0 0 100 100" enable-background="new 0 0 100 100" xml:space="preserve">
<g>
	<path d="M12.201,66.5v8.301h-4.1V15.197h18.901V66.2c2-5.3,3.301-11.501,4.2-18.101l3.9,0.6c-1.5,11.201-4.5,21.301-9.2,28.201
		c-0.7-0.699-2.5-1.799-3.4-2.199c1.8-2.4,3.2-5.102,4.4-8.201H12.201z M12.201,19.497v42.702h10.701V19.497H12.201z M52.104,42.299
		v47.604c0,2.5-0.6,3.699-2.401,4.5c-1.7,0.6-4.6,0.699-9.4,0.699c-0.3-1-1-2.699-1.5-3.9c3.801,0.1,7.001,0,8.001,0
		c1-0.1,1.3-0.299,1.3-1.299V42.299h-6.801v12.101c0,13.101-1.899,28.702-16.601,41.202c-0.7-0.9-2-2-3-2.699
		c14.101-11.801,15.7-27.002,15.7-38.604v-12h-8.4v-4.3h13.801V23.297h-11.5v-4.2h11.5V4.796h4.601v14.301h11.701v4.2H47.403v14.701
		h12.601v4.3H52.104z M57.904,66.6c-0.602-4.5-2.801-11.2-5.102-16.201l3.4-1.3c2.1,4.7,4.201,10.701,5.102,15
		c1.398-4.8,2.199-10.1,2.699-15.9l3.801,0.6C66.703,59.9,64.305,69.7,59.703,76.4c-0.6-0.699-2.299-1.699-3.1-2.199
		c1.801-2.5,3.199-5.501,4.301-8.9L57.904,66.6z M84.705,42.299v47.604c0,2.5-0.6,3.699-2.4,4.5c-1.6,0.699-4.6,0.699-9.6,0.699
		c-0.201-1-0.701-2.699-1.301-3.9c3.801,0.1,7,0,8,0c0.9-0.1,1.301-0.299,1.301-1.299V42.299h-6.5v13.5
		c0,13.002-1.801,27.602-14.801,39.504c-0.801-0.801-2.102-2-3.102-2.602C68.904,81.502,70.305,67.2,70.305,55.799v-13.5h-8.102
		v-4.3h13.402V23.297H64.104v-4.2h11.502V4.796h4.5v14.301h13.801v4.2H80.105v14.701h15.4v4.3H84.705z M89.406,47.299
		c3.199,8.4,6.1,19.401,6.9,26.701l-3.801,1.201c-0.801-7.301-3.6-18.302-6.5-26.802L89.406,47.299z"/>
</g>
<g>
</g>
<g>
</g>
<g>
</g>
<g>
</g>
<g>
</g>
<g>
</g>
</svg>
