<?xml version="1.0" encoding="utf-8"?>
<!-- Generator: Adobe Illustrator 16.0.0, SVG Export Plug-In . SVG Version: 6.00 Build 0)  -->
<!DOCTYPE svg PUBLIC "-//W3C//DTD SVG 1.1//EN" "http://www.w3.org/Graphics/SVG/1.1/DTD/svg11.dtd">
<svg version="1.1" id="Layer_1" xmlns="http://www.w3.org/2000/svg" xmlns:xlink="http://www.w3.org/1999/xlink" x="0px" y="0px"
	 width="100px" height="100px" viewBox="0 0 100 100" enable-background="new 0 0 100 100" xml:space="preserve">
<g>
	<path d="M68.904,42.399c6.701,8.5,17.9,16.8,27.701,20.701c-1.1,1-2.6,2.601-3.299,3.9c-10.701-4.801-22.602-14.601-29.604-24.601
		h-28C28.902,53.199,18.201,62,7.201,67.7C6.5,66.801,4.6,65,3.5,64.3c10.601-5.101,20.501-12.801,26.802-21.901H6v-4.601h25.401
		V22.397H12.601v-4.5h18.801v-13.4h4.7v13.4h27.501v-13.4h4.801v13.4h19.002v4.5H68.404v15.401h25.902v4.601H68.904z M13.601,83.002
		c6.2-5.602,11-15.002,13.801-22.402l4.1,1.7c-3,7.501-7.6,17.101-13.9,23.101L13.601,83.002z M36.102,37.798h27.501V22.397H36.102
		V37.798z M41.403,52.1h4.7v43.303h-4.7V52.1z M57.303,61.199c3.201,6.9,6.4,15.801,7.602,21.701l-4.201,1.102
		c-1.199-5.801-4.4-14.902-7.4-21.803L57.303,61.199z M70.104,58.3c6.502,7.4,13.402,17.601,16.201,24.501l-4,2
		C79.404,77.9,72.604,67.5,66.203,60L70.104,58.3z"/>
</g>
<g>
</g>
<g>
</g>
<g>
</g>
<g>
</g>
<g>
</g>
<g>
</g>
</svg>
