<?xml version="1.0" encoding="utf-8"?>
<!-- Generator: Adobe Illustrator 16.0.0, SVG Export Plug-In . SVG Version: 6.00 Build 0)  -->
<!DOCTYPE svg PUBLIC "-//W3C//DTD SVG 1.1//EN" "http://www.w3.org/Graphics/SVG/1.1/DTD/svg11.dtd">
<svg version="1.1" id="Layer_1" xmlns="http://www.w3.org/2000/svg" xmlns:xlink="http://www.w3.org/1999/xlink" x="0px" y="0px"
	 width="100px" height="100px" viewBox="0 0 100 100" enable-background="new 0 0 100 100" xml:space="preserve">
<g>
	<path d="M68.904,42.399c6.701,8.5,17.801,16.8,27.602,20.701c-1.1,0.9-2.5,2.601-3.199,3.9
		c-10.701-4.801-22.602-14.601-29.604-24.601h-28C28.902,53.199,18.201,62,7.201,67.7C6.5,66.801,4.6,65,3.5,64.2
		c10.601-5.001,20.501-12.701,26.802-21.801H6v-4.601h25.401V22.397H12.601v-4.5h18.801v-13.4h4.7v13.4h27.501v-13.4h4.801v13.4
		h19.002v4.5H68.404v15.401h25.902v4.601H68.904z M31.001,62.3c-3.1,7.101-7.5,16.101-13.5,21.601l-4.1-2.398
		c5.9-5.201,10.7-14.102,13.501-20.902L31.001,62.3z M41.502,52.1h4.601v36.602c0,3.301-0.7,4.602-3.101,5.5
		c-2.5,0.801-7,0.801-14.101,0.801c-0.2-1.4-0.9-3.201-1.7-4.6c6.2,0.199,11.001,0.199,12.501,0.1s1.8-0.5,1.8-1.701V52.1z
		 M36.102,37.798h27.501V22.397H36.102V37.798z M57.303,61.1c3.602,6.701,6.502,15.4,7.502,21.201l-4.301,1.1
		c-0.9-5.699-3.801-14.6-7.201-21.201L57.303,61.1z M70.104,58.3c6.4,7.2,13.102,17.2,15.902,23.901l-4.102,2
		c-2.699-6.6-9.4-16.9-15.701-24.201L70.104,58.3z"/>
</g>
<g>
</g>
<g>
</g>
<g>
</g>
<g>
</g>
<g>
</g>
<g>
</g>
</svg>
