<?xml version="1.0" encoding="utf-8"?>
<!-- Generator: Adobe Illustrator 16.0.0, SVG Export Plug-In . SVG Version: 6.00 Build 0)  -->
<!DOCTYPE svg PUBLIC "-//W3C//DTD SVG 1.1//EN" "http://www.w3.org/Graphics/SVG/1.1/DTD/svg11.dtd">
<svg version="1.1" id="Layer_1" xmlns="http://www.w3.org/2000/svg" xmlns:xlink="http://www.w3.org/1999/xlink" x="0px" y="0px"
	 width="100px" height="100px" viewBox="0 0 100 100" enable-background="new 0 0 100 100" xml:space="preserve">
<g>
	<path d="M21.501,46.399c-3.7-3.2-10.801-7.5-16.901-10.101l2.7-3.4c6,2.3,13.301,6.301,16.801,9.601L21.501,46.399z M6.9,91.402
		C11,83.701,17.001,70.601,21.202,59.6l3.8,2.6c-3.9,10.301-9.4,23.102-13.901,31.902L6.9,91.402z M24.902,20.197
		c-3.2-3.5-10.001-8.201-15.701-11.101l2.8-3.3c5.601,2.7,12.501,7.201,15.801,10.601L24.902,20.197z M33.802,81.9v8.701h-4.301
		V50.699h12.301V30.898H25.501v-4.5h16.301V6.997h4.501v19.401h14.5v4.5h-14.5v19.801h11.201V81.9H33.802z M33.802,55.1v22.4h19.202
		V55.1H33.802z M91.805,88.201c0,3.1-0.898,4.602-3,5.4c-2.299,0.801-6.1,0.9-13.1,0.801c-0.201-1.1-0.9-3-1.701-4.201
		c5.5,0.1,10.002,0.1,11.301,0c1.4-0.1,2-0.5,2-2.1V61.5H69.504c-1,12-4.1,24.701-12.9,33.902c-0.699-0.801-2.6-2.301-3.5-2.801
		c11.4-11.9,12.5-29.002,12.5-43.002V8.796h26.201V88.201z M87.305,57.1V37.098H70.004v12.501c0,2.401,0,4.901-0.199,7.5H87.305z
		 M70.004,13.197v19.401h17.301V13.197H70.004z"/>
</g>
<g>
</g>
<g>
</g>
<g>
</g>
<g>
</g>
<g>
</g>
<g>
</g>
</svg>
