<?xml version="1.0" encoding="utf-8"?>
<!-- Generator: Adobe Illustrator 16.0.0, SVG Export Plug-In . SVG Version: 6.00 Build 0)  -->
<!DOCTYPE svg PUBLIC "-//W3C//DTD SVG 1.1//EN" "http://www.w3.org/Graphics/SVG/1.1/DTD/svg11.dtd">
<svg version="1.1" id="Layer_1" xmlns="http://www.w3.org/2000/svg" xmlns:xlink="http://www.w3.org/1999/xlink" x="0px" y="0px"
	 width="100px" height="100px" viewBox="0 0 100 100" enable-background="new 0 0 100 100" xml:space="preserve">
<g>
	<path d="M21.601,46.599c-3.6-3.3-10.9-7.601-17.001-10.401l2.7-3.4c6,2.5,13.301,6.6,16.901,9.8L21.601,46.599z M6.4,91.502
		c4.2-7.701,10.201-20.801,14.301-31.803l3.8,2.601c-3.9,10.3-9.301,23.101-13.801,31.901L6.4,91.502z M12.101,5.796
		c5.701,2.9,12.401,7.4,15.801,10.701l-2.9,3.9c-3.3-3.5-10.101-8.301-15.801-11.301L12.101,5.796z M46.703,26.398h14.801v4.5
		H46.703v19.801h11.6v31.502H34.702v8.801h-4.399V50.699h11.9V30.898H26.001v-4.5h16.201V6.597h4.5V26.398z M53.902,55.1H34.702
		v22.701h19.201V55.1z M92.105,88.201c0,3.1-0.9,4.5-3,5.4c-2.301,0.701-6,0.9-13,0.801c-0.301-1.1-1-3-1.701-4.201
		c5.4,0.1,9.9,0.1,11.201,0c1.5-0.1,2-0.5,2-2.1V62.199H70.104v32.803h-4.5V8.796h26.502V88.201z M70.104,13.197v20.801h17.502
		V13.197H70.104z M87.605,57.699V38.398H70.104v19.301H87.605z"/>
</g>
<g>
</g>
<g>
</g>
<g>
</g>
<g>
</g>
<g>
</g>
<g>
</g>
</svg>
