<?xml version="1.0" encoding="utf-8"?>
<!-- Generator: Adobe Illustrator 16.0.0, SVG Export Plug-In . SVG Version: 6.00 Build 0)  -->
<!DOCTYPE svg PUBLIC "-//W3C//DTD SVG 1.1//EN" "http://www.w3.org/Graphics/SVG/1.1/DTD/svg11.dtd">
<svg version="1.1" id="Layer_1" xmlns="http://www.w3.org/2000/svg" xmlns:xlink="http://www.w3.org/1999/xlink" x="0px" y="0px"
	 width="100px" height="100px" viewBox="0 0 100 100" enable-background="new 0 0 100 100" xml:space="preserve">
<g>
	<path d="M51.504,40.999c11.199,9.5,29.4,16.901,44.803,20.301c-1,1.101-2.102,3-2.701,4.101
		C78.504,61.6,60.404,53.699,49.603,44.899c-9.4,8-26.002,16.201-43.002,21.402C6.2,65.2,5.2,63.6,4.3,62.6
		c17.201-4.9,33.902-13,42.803-21.601H51.504z M13.201,36.898h-4.6V19.998h38.703v-6.901H13.801v-4.1h72.504v4.1H52.104v6.901
		h39.402v16.901h-4.701V23.897H52.104v14.101h-4.8V23.897H13.201V36.898z M16.801,40.398h24.501v3.7H16.801V40.398z M17.401,67.2
		h56.804l0.699-0.3l3.301,2.1c-5,6.301-14.602,13.301-21.902,17.902c3.201,1.699,6.301,3.299,8.801,4.799l-2.1,4
		c-6.801-4.4-20.702-11.5-30.102-16l2-3.201c4.7,2.102,10.801,5.102,16.801,8.102c5.9-3.201,13.701-8.801,18.4-13.301H17.401V67.2z
		 M41.203,30.398v3.7H18.901v-3.7H41.203z M31.902,56.799h36.403v3.9H31.902V56.799z M81.105,30.398v3.7H58.203v-3.7H81.105z
		 M58.203,40.398h25.502v3.7H58.203V40.398z"/>
</g>
<g>
</g>
<g>
</g>
<g>
</g>
<g>
</g>
<g>
</g>
<g>
</g>
</svg>
