<?xml version="1.0" encoding="utf-8"?>
<!-- Generator: Adobe Illustrator 16.0.0, SVG Export Plug-In . SVG Version: 6.00 Build 0)  -->
<!DOCTYPE svg PUBLIC "-//W3C//DTD SVG 1.1//EN" "http://www.w3.org/Graphics/SVG/1.1/DTD/svg11.dtd">
<svg version="1.1" id="Layer_1" xmlns="http://www.w3.org/2000/svg" xmlns:xlink="http://www.w3.org/1999/xlink" x="0px" y="0px"
	 width="100px" height="100px" viewBox="0 0 100 100" enable-background="new 0 0 100 100" xml:space="preserve">
<g>
	<path d="M55.904,45.499c-1,0.8-2.002,1.6-3.201,2.4C63.404,53.6,82.605,59.5,96.307,62c-1,1-2.4,2.801-3,4
		c-13.602-2.9-33.203-9.5-44.303-15.801C37.502,57.199,21.702,63.1,7.4,66.5C6.8,65.4,5.7,64,4.7,63
		c17.201-3.9,36.703-11.4,47.603-19.701L55.904,45.499z M13.201,36.999h-4.5V20.097h38.702v-6.9H13.901v-4.1h72.304v4.1H52.104v6.9
		h39.303v16.901h-4.602V23.998H52.104v15.701h-4.701V23.998H13.201V36.999z M16.901,40.398h24.401v3.7H16.901V40.398z M79.404,66.6
		l3.201,2.101c-5.801,6.601-16.602,13.302-25.002,17.501c4.801,1.9,9,3.9,12.201,5.701l-2.4,4
		c-8.301-4.801-24.501-11.301-37.203-15.102l2.301-3.301c6.3,1.701,13.4,4.102,20.001,6.602c7.1-3,16.201-8.4,22.102-13.201H17.801
		v-4h60.904L79.404,66.6z M41.203,30.498v3.6H19.101v-3.6H41.203z M53.104,66.1c-1.801-2.6-5.5-6.3-8.801-8.8l3.2-2.3
		c3.2,2.399,7.001,6,8.902,8.6L53.104,66.1z M81.105,30.498v3.6H58.203v-3.6H81.105z M58.203,40.398h25.502v3.7H58.203V40.398z"/>
</g>
<g>
</g>
<g>
</g>
<g>
</g>
<g>
</g>
<g>
</g>
<g>
</g>
</svg>
