<?xml version="1.0" encoding="utf-8"?>
<!-- Generator: Adobe Illustrator 16.0.0, SVG Export Plug-In . SVG Version: 6.00 Build 0)  -->
<!DOCTYPE svg PUBLIC "-//W3C//DTD SVG 1.1//EN" "http://www.w3.org/Graphics/SVG/1.1/DTD/svg11.dtd">
<svg version="1.1" id="Layer_1" xmlns="http://www.w3.org/2000/svg" xmlns:xlink="http://www.w3.org/1999/xlink" x="0px" y="0px"
	 width="100px" height="100px" viewBox="0 0 100 100" enable-background="new 0 0 100 100" xml:space="preserve">
<g>
	<path d="M51.504,41.898C62.703,51.399,80.705,59.1,96.105,62.6c-0.9,1.101-2,2.9-2.6,4c-15.102-3.8-33.203-11.9-43.903-21
		c-9.001,8.2-25.802,16.801-42.803,22C6.3,66.4,5.3,64.9,4.4,63.8C21.601,59,38.403,50.499,47.203,41.898H51.504z M13.201,36.898
		h-4.5V20.097h38.702v-6.9H13.901v-4.1h72.304v4.1H52.104v6.9h39.303v16.801h-4.701V23.998H52.104v15.701h-4.701V23.998H13.201
		V36.898z M81.105,84.4c0,2.801-0.6,4.201-3.102,5.002c-2.5,0.6-6.9,0.6-14.4,0.6c-0.199-1.301-1.1-2.701-1.799-4
		c6.6,0.1,11.1,0.1,12.699,0c1.602-0.102,1.9-0.5,1.9-1.602V73.5H44.703v21.701h-4.601V73.5H15.401v-3.9h65.705V84.4z
		 M16.901,40.398h24.401v3.7H16.901V40.398z M41.203,30.498v3.6H19.001v-3.6H41.203z M68.205,58.1V62H32.002v-3.9H68.205z
		 M81.105,30.498v3.6H58.104v-3.6H81.105z M58.104,40.398h25.502v3.7H58.104V40.398z"/>
</g>
<g>
</g>
<g>
</g>
<g>
</g>
<g>
</g>
<g>
</g>
<g>
</g>
</svg>
