<?xml version="1.0" encoding="utf-8"?>
<!-- Generator: Adobe Illustrator 16.0.0, SVG Export Plug-In . SVG Version: 6.00 Build 0)  -->
<!DOCTYPE svg PUBLIC "-//W3C//DTD SVG 1.1//EN" "http://www.w3.org/Graphics/SVG/1.1/DTD/svg11.dtd">
<svg version="1.1" id="Layer_1" xmlns="http://www.w3.org/2000/svg" xmlns:xlink="http://www.w3.org/1999/xlink" x="0px" y="0px"
	 width="100px" height="100px" viewBox="0 0 100 100" enable-background="new 0 0 100 100" xml:space="preserve">
<g>
	<path d="M55.303,41.999c-0.699,0.7-1.5,1.3-2.4,2c8.902,5.9,26.602,12.601,42.904,15.601c-1.102,1-2.4,2.9-3.102,4.101
		c-16.4-3.4-34.002-11.001-43.102-17.401C37.902,54.1,22.001,60.4,8.601,64.5c-0.9-1-2.5-2.9-3.8-3.801
		c16.701-4.4,35.302-11.8,46.103-20.801L55.303,41.999z M52.402,39.898h-4.7V23.998H13.201v13.001h-4.5V20.097h39.002v-6.9H13.901
		v-4.1h72.304v4.1H52.402v6.9h39.004v16.901h-4.602V23.998H52.402V39.898z M16.501,40.798c6.6-1.3,15.701-3.6,25.001-5.7l0.4,3.4
		c-8.4,2.4-16.501,4.5-23.502,6.4L16.501,40.798z M74.904,66.801l3.301,2.1c-5.201,6.5-14.701,13.5-22.002,17.9
		c3.5,1.701,6.5,3.4,8.701,4.801l-1.9,3.9c-6.9-4.201-19.901-11.201-30.102-15.9l2-3.201c5.2,2.301,11.201,5.201,16.801,8
		c5.9-3.1,13.5-8.5,18.602-13.199H17.401V67.1h56.804L74.904,66.801z M21.301,25.897c6.4,1.1,15.001,3.2,19.602,4.9l-1.5,3.5
		c-4.601-1.8-13.102-4-19.702-5.4L21.301,25.897z M69.904,57.6V61.4H30.702V57.6H69.904z M83.006,44.999
		c-5.701-2.4-16.303-5.3-24.602-7l1.5-3.1c8.199,1.3,18.9,4.1,24.602,6.4L83.006,44.999z M81.404,29.098c-5.9,2.2-14.6,4-20.9,5
		l-1.9-2.8c6.1-1.1,15.201-3.8,20.4-5.4L81.404,29.098z"/>
</g>
<g>
</g>
<g>
</g>
<g>
</g>
<g>
</g>
<g>
</g>
<g>
</g>
</svg>
